<?xml version="1.0" encoding="UTF-8" standalone="no"?>
<!-- Generator: Adobe Illustrator 16.0.3, SVG Export Plug-In . SVG Version: 6.00 Build 0)  -->

<svg
   xmlns:dc="http://purl.org/dc/elements/1.1/"
   xmlns:cc="http://creativecommons.org/ns#"
   xmlns:rdf="http://www.w3.org/1999/02/22-rdf-syntax-ns#"
   xmlns:svg="http://www.w3.org/2000/svg"
   xmlns="http://www.w3.org/2000/svg"
   xmlns:sodipodi="http://sodipodi.sourceforge.net/DTD/sodipodi-0.dtd"
   xmlns:inkscape="http://www.inkscape.org/namespaces/inkscape"
   version="1.1"
   id="Ebene_2"
   x="0px"
   y="0px"
   width="566.929px"
   height="77.199px"
   viewBox="0 0 566.929 77.199"
   enable-background="new 0 0 566.929 77.199"
   xml:space="preserve"
   sodipodi:docname="system.svg"
   inkscape:version="0.92.2 (5c3e80d, 2017-08-06)"><metadata
     id="metadata5439"><rdf:RDF><cc:Work
         rdf:about=""><dc:format>image/svg+xml</dc:format><dc:type
           rdf:resource="http://purl.org/dc/dcmitype/StillImage" /></cc:Work></rdf:RDF></metadata><defs
     id="defs5437" /><sodipodi:namedview
     pagecolor="#ffffff"
     bordercolor="#666666"
     borderopacity="1"
     objecttolerance="10"
     gridtolerance="10"
     guidetolerance="10"
     inkscape:pageopacity="0"
     inkscape:pageshadow="2"
     inkscape:window-width="1366"
     inkscape:window-height="746"
     id="namedview5435"
     showgrid="false"
     inkscape:zoom="1.0680349"
     inkscape:cx="292.39171"
     inkscape:cy="-16.25415"
     inkscape:window-x="1912"
     inkscape:window-y="1072"
     inkscape:window-maximized="1"
     inkscape:current-layer="Ebene_2" /><g
     id="g5432"><g
       id="g5418"><path
         d="M76.534,26.614l-1.553-0.719c0.097-0.32,0.194-0.719,0.194-1.119c0-1.039-9.127-6.633-24.953-6.633    c-15.146,0-21.651,3.836-21.651,8.79c0,13.104,57.186-6.072,57.186,22.854c0,10.548-12.428,18.699-37.283,18.699    c-23.689,0-30.486-6.233-32.719-6.233c-0.583,0-0.874,0.398-1.359,0.639l-1.262-0.24l8.058-13.585l1.554,0.639    c0,0.322-0.195,0.642-0.195,1.28c0,4.716,12.525,8.069,24.953,8.069c17.671,0,23.69-4.153,23.69-8.55    c0-15.66-56.41,3.755-56.41-22.771c0-13.425,17.185-19.019,36.021-19.019c16.894,0,28.739,6.073,29.904,6.073    c1.262,0,1.456-0.319,1.748-0.559l1.553,0.399L76.534,26.614z"
         id="path5410" /><path
         d="M93.229,66.567c2.136,0,2.524-0.639,2.524-2.398V13.03c0-1.758-0.389-2.397-2.524-2.397V9.514h63.012    c2.33,0,3.301-0.64,3.301-1.758h1.359v13.265h-1.359c0-1.438-0.971-2.077-3.301-2.077H109.54v14.224h30.487    c2.33,0,3.301-0.64,3.301-2.078h1.359v13.422h-1.359c0-0.639-0.194-1.118-0.777-1.438c-0.485-0.319-1.359-0.48-2.524-0.48H109.54    v15.664h47.575c2.33,0,3.301-0.641,3.301-1.918h1.359v13.104h-1.359c0-1.119-0.971-1.758-3.301-1.758H93.229V66.567z"
         id="path5412" /><path
         d="M247.888,37.002v1.119c-0.971,0.16-1.845,0.799-1.845,2.557v15.741c0,1.279,0.486,1.757,1.748,1.997v1.119    c-6.117,2.876-21.069,8.951-37.866,8.951c-22.331,0-41.943-9.112-41.943-29.886c0-20.776,22.913-29.886,43.108-29.886    c7.962,0,15.535,1.518,21.069,2.957c5.146,1.838,8.932,3.277,9.612,3.277c0.874,0,1.748-0.4,2.136-0.879l1.359,0.479    l-9.417,13.104l-1.36-0.719c0.097-0.319,0.194-0.799,0.194-1.358c0-2.478-10.485-7.432-23.398-7.432    c-16.311,0-29.515,6.633-29.515,20.138c0,14.143,13.204,20.773,28.156,20.773c12.234,0,19.418-3.436,22.331-5.193V47.23h-16.699    c-1.942,0-3.107,0.799-3.107,1.916h-1.36V35.085h1.36c0,1.118,1.165,1.917,3.107,1.917H247.888z"
         id="path5414" /><path
         d="M252.736,67.687v-1.119c1.748-0.079,2.33-0.479,3.689-3.037l26.506-49.062c0.485-0.799,1.067-1.678,1.067-2.397    c0-0.879-0.775-1.279-2.039-1.438V9.514h21.167v1.119c-1.456,0.16-2.04,0.639-2.04,1.199c0,0.639,0.389,1.278,0.874,2.078    l28.156,49.621c1.359,2.478,1.748,3.037,3.786,3.037v1.119h-19.32v-1.119c1.263,0,1.748-0.4,1.748-0.799    c0-0.879-0.874-1.998-7.38-13.425h-33.302c-5.631,10.387-7.087,11.986-7.087,13.025c0,0.719,0.582,1.119,1.456,1.198v1.119    H252.736z M303.321,43.234l-11.651-20.935l-11.457,20.935H303.321z"
         id="path5416" /></g><g
       id="g5422"><path
         d="M546.461,77.199H0V0h546.461V77.199z M4.917,72.282h536.627V4.917H4.917V72.282z"
         id="path5420" /></g><g
       id="g5428"><polygon
         points="548.183,1.424 551.504,1.424 551.504,10.271 553.137,10.271 553.137,1.424 556.459,1.424 556.459,0 548.183,0       "
         id="polygon5424" /><polygon
         points="564.854,0 561.807,8.09 558.774,0 556.7,0 556.7,10.271 558.262,10.271 558.262,2.599 561.142,10.271     562.487,10.271 565.366,2.602 565.366,10.271 566.929,10.271 566.929,0   "
         id="polygon5426" /></g><path
       d="M350.736,9.514v58.172h186.856V9.514H350.736z M358.657,50.349c-1.553-10.357,32.851-24.162,77.67-31.437   c-1.011,0.261-2.969,0.762-2.969,0.762s-4.404,1.076-5.622,1.374c-22.864,5.587-38.882,15.652-37.545,24.577   c1.37,9.137,20.469,14.083,44.766,12.392c1.35-0.095,6.139-0.325,7.181-0.372C397.149,63.824,360.209,60.709,358.657,50.349z    M470.697,52.587c-9.931,2.257-22.345,4.173-22.345,4.173V30.801l6.4,21.124c0,0,15.242-2.474,26.844-7.304   c10.084-4.199,16.339-9.466,15.917-15.077c-0.684-9.115-20.068-13.978-43.999-12.439c-1.596,0.103-6.895,0.375-7.937,0.421   c44.981-6.181,81.917-3.064,83.471,7.293C530.369,33.629,505.677,44.928,470.697,52.587z"
       id="path5430" /></g><path
     style="fill:#ffffff;stroke-width:0.46814948"
     d="M 350.97166,38.552684 V 9.761491 h 93.16175 93.16174 v 28.791193 28.791193 h -93.16174 -93.16175 z m 70.06857,21.528336 c 7.99231,-0.642643 20.32239,-1.982192 20.57554,-2.235339 0.056,-0.05601 -6.14863,-0.101167 -13.78809,-0.100353 -11.31591,0.0014 -14.67925,-0.150725 -18.14935,-0.81987 -13.9326,-2.686645 -20.89129,-7.978379 -18.96154,-14.419301 2.43223,-8.118077 17.12757,-16.347422 38.43584,-21.523954 3.47601,-0.844446 6.5241,-1.717172 6.77353,-1.939392 0.52125,-0.464368 0.59537,-0.47624 -10.85452,1.738341 -31.27603,6.049255 -55.84108,15.069698 -63.88985,23.460762 -5.68006,5.921615 -2.30161,11.065757 9.17643,13.97235 2.34025,0.592621 6.25633,1.309307 8.70241,1.592635 2.44608,0.283329 5.07942,0.58882 5.85187,0.678869 4.24955,0.495405 28.28125,0.226172 36.12773,-0.404748 z m 36.43544,-4.697601 c 35.8371,-6.200199 66.28573,-17.802933 71.00731,-27.057995 3.30167,-6.471788 -4.3216,-11.125413 -21.68437,-13.237239 -8.3231,-1.012335 -28.41988,-1.012275 -40.4281,1.2e-4 -9.01352,0.759916 -19.88759,1.998762 -20.18888,2.300051 -0.0906,0.0906 5.01575,0.06887 11.34744,-0.0483 12.7357,-0.235674 18.74607,0.247022 25.83316,2.074671 21.1951,5.465885 17.57843,18.674782 -7.39466,27.006992 -6.35167,2.11922 -16.51445,4.61569 -19.14459,4.702839 l -2.05714,0.06816 -2.97817,-9.831139 c -1.638,-5.407127 -3.06566,-10.041807 -3.17259,-10.299289 -0.10692,-0.257482 -0.21104,5.487214 -0.23137,12.765993 l -0.037,13.23414 1.05334,-0.232043 c 0.57934,-0.127623 4.21335,-0.778756 8.07558,-1.446963 z"
     id="path5441"
     inkscape:connector-curvature="0" /><path
     style="fill:#ffffff;stroke-width:0.46814948"
     d="M 0.32770463,38.786759 V 0.39850146 H 273.25885 546.18999 V 38.786759 77.175016 H 273.25885 0.32770463 Z M 541.8627,38.669721 541.74257,4.8459215 273.14181,4.7284787 4.5410499,4.6110361 V 38.552278 72.493521 H 273.26193 541.98283 Z"
     id="path5443"
     inkscape:connector-curvature="0" /><path
     style="fill:#ffffff;stroke-width:0.46814948"
     d="m 201.09136,67.780094 c -1.97098,-0.244234 -5.65765,-0.969997 -8.19262,-1.612803 -12.63571,-3.204123 -21.18745,-10.625519 -23.79946,-20.653719 -0.90944,-3.49158 -0.90381,-9.983683 0.0117,-13.498613 2.33845,-8.97793 10.54512,-16.29196 22.51475,-20.065818 6.94718,-2.1903474 11.49848,-2.8431936 19.60329,-2.8119282 9.15828,0.035329 16.18322,1.1842212 24.23413,3.9633602 4.43937,1.532451 5.94007,1.858798 7.44272,1.618515 1.08339,-0.173242 1.81417,-0.118108 1.72196,0.129913 -0.47695,1.282885 -8.67765,12.209241 -9.17207,12.220589 -0.32185,0.0074 -0.58519,-0.476514 -0.58519,-1.075337 0,-4.52134 -15.68677,-8.840334 -28.22749,-7.771796 -11.80368,1.005737 -19.82728,5.309707 -23.39007,12.54676 -1.39937,2.842518 -1.51513,3.429008 -1.48824,7.539548 0.0401,6.12162 1.20209,9.046672 5.1726,13.020387 5.45613,5.460538 12.73236,7.829955 23.8235,7.757837 7.60125,-0.04942 13.044,-1.075415 18.39316,-3.467214 l 3.3758,-1.509442 v -3.448442 -3.448442 h -9.5931 c -9.08609,0 -9.624,0.04949 -10.17783,0.936299 -0.3216,0.514964 -0.74472,0.936299 -0.94026,0.936299 -0.19555,0 -0.35554,-3.054675 -0.35554,-6.788167 0,-3.733492 0.14141,-6.788168 0.31425,-6.788168 0.17284,0 0.72137,0.368668 1.21896,0.819262 0.82026,0.742788 2.47867,0.831777 17.76663,0.953345 l 16.86193,0.134083 -0.87639,0.967145 c -0.77897,0.859636 -0.89253,1.947475 -1.02152,9.786002 -0.13875,8.43085 -0.10195,8.862039 0.83633,9.800323 0.53981,0.539804 0.86479,1.170261 0.72218,1.401012 -0.83295,1.347741 -16.81831,6.440402 -24.35271,7.75836 -5.15212,0.901235 -16.97713,1.253606 -21.84142,0.65085 z"
     id="path5445"
     inkscape:connector-curvature="0" /><path
     style="fill:#ffffff;stroke-width:0.46814948"
     d="m 160.14748,68.397213 c -0.48178,-0.764011 -2.75307,-0.835048 -33.67993,-1.053336 -26.739141,-0.18873 -32.91866,-0.34549 -31.900334,-0.809225 l 1.262982,-0.57515 V 38.551133 11.142765 l -1.287411,-0.573599 c -1.037255,-0.462144 5.06482,-0.6190832 31.403893,-0.807675 30.43629,-0.2179286 32.73261,-0.2905864 33.29022,-1.0533363 1.382,-1.8904308 1.66608,-0.9126203 1.66608,5.7348313 0,3.604751 -0.13385,6.554092 -0.29743,6.554092 -0.16359,0 -0.78553,-0.526668 -1.3821,-1.170373 l -1.08466,-1.170374 h -24.36613 -24.36613 v 7.256317 7.256317 h 16.61534 c 16.10833,0 16.63319,-0.02857 17.20007,-0.936299 0.3216,-0.514965 0.74472,-0.936299 0.94027,-0.936299 0.19554,0 0.35553,2.949342 0.35553,6.554093 0,3.604751 -0.15999,6.554092 -0.35553,6.554092 -0.19555,0 -0.61867,-0.421334 -0.94027,-0.936299 -0.56688,-0.907728 -1.09174,-0.936299 -17.20007,-0.936299 h -16.61534 v 7.958541 7.958542 h 24.81192 c 24.18773,0 24.83548,-0.02355 25.74823,-0.936299 0.51496,-0.514965 1.04163,-0.936299 1.17037,-0.936299 0.12874,0 0.23407,2.844008 0.23407,6.320018 0,3.476009 -0.15907,6.320018 -0.3535,6.320018 -0.19443,0 -0.58599,-0.368668 -0.87014,-0.819262 z"
     id="path5447"
     inkscape:connector-curvature="0" /><path
     style="fill:#ffffff;stroke-width:0.46814948"
     d="M 39.652261,68.001393 C 30.082862,66.882398 26.813415,66.158115 20.57376,63.774944 17.331396,62.536553 15.87501,62.201053 14.78287,62.440928 l -1.459097,0.320472 1.233455,-2.039142 c 0.678401,-1.121532 2.429319,-4.093153 3.89093,-6.603604 2.677477,-4.598815 3.882572,-5.629791 3.882572,-3.321597 0,1.890246 3.077702,4.544619 6.6464,5.732206 11.414105,3.798368 29.928279,3.608782 37.927886,-0.388386 6.494029,-3.244876 5.887452,-9.392334 -1.134083,-11.493556 C 62.754585,43.744668 54.122342,43.025053 46.138919,43.010726 34.923315,42.990599 25.867856,41.518189 21.589348,39.018985 19.062067,37.542726 16.50771,34.661768 15.730384,32.410894 15.385312,31.411681 15.10798,29.205899 15.114091,27.509157 c 0.03632,-10.084612 10.508934,-16.6743 29.037237,-18.2711162 10.4943,-0.9044255 20.787989,0.4270034 31.439593,4.0665292 3.250128,1.11053 5.405469,1.600578 6.274912,1.426689 0.802043,-0.160408 1.324329,-0.06475 1.324329,0.242565 0,0.771748 -6.596236,11.172899 -7.085667,11.172899 -0.235343,0 -0.628102,-0.526572 -0.872795,-1.170159 -1.121049,-2.948594 -10.126105,-5.966281 -20.285938,-6.79803 -8.961988,-0.733686 -18.938224,0.676988 -23.139284,3.271973 -2.791272,1.724164 -4.142533,5.223882 -2.907777,7.531044 1.357948,2.53735 5.28055,3.17817 22.691371,3.707001 14.903047,0.45266 18.661646,0.902569 23.835377,2.853127 5.875571,2.215159 9.508326,6.849106 9.980474,12.731103 0.755822,9.415942 -7.273072,16.123757 -22.580263,18.864889 -4.031193,0.721882 -19.466482,1.297191 -23.173399,0.863722 z"
     id="path5449"
     inkscape:connector-curvature="0" /><path
     style="fill:#ffffff;stroke-width:0.46814948"
     d="m 253.3625,66.875727 c 0.15913,-0.257482 0.57572,-0.468149 0.92574,-0.468149 0.35003,0 1.05724,-0.684669 1.57159,-1.521486 3.08555,-5.020061 28.16646,-52.099279 28.16646,-52.871091 0,-0.543002 -0.39354,-1.03963 -0.9363,-1.181565 -2.80164,-0.732645 0.16201,-1.071945 9.36299,-1.071945 9.20098,0 12.16462,0.3393 9.36299,1.071945 -0.51497,0.134666 -0.9363,0.556117 -0.9363,0.936558 0,0.380441 6.78232,12.646879 15.07184,27.258751 11.77973,20.764072 15.38428,26.757575 16.50227,27.439336 1.42484,0.86889 1.39296,0.872247 -8.16664,0.859808 -6.74816,-0.0088 -9.35386,-0.154133 -8.7778,-0.489661 0.45059,-0.262444 0.81926,-0.836583 0.81926,-1.275861 0,-0.439279 -1.63267,-3.641487 -3.62816,-7.116018 l -3.62816,-6.31733 -16.70063,-0.122913 -16.70063,-0.122912 -3.54683,6.283591 c -1.95076,3.455973 -3.54684,6.648069 -3.54684,7.093541 0,0.445477 0.36867,1.089814 0.81927,1.431863 0.69088,0.524454 -0.52391,0.624245 -7.7521,0.6368 -5.59869,0.0097 -8.47101,-0.147471 -8.28202,-0.453262 z m 48.73927,-26.333408 c -0.89794,-1.609264 -3.50311,-6.283786 -5.78928,-10.387826 -2.28617,-4.104041 -4.35314,-7.522313 -4.59328,-7.59616 -0.40099,-0.123316 -11.00999,18.816128 -11.35541,20.271964 -0.1247,0.525596 1.92004,0.637956 11.60961,0.637956 h 11.76098 z"
     id="path5451"
     inkscape:connector-curvature="0" /><path
     style="fill:#ffffff;stroke-width:0.05851869"
     d="M 556.72335,5.1252029 V 0.00481798 h 1.00965 1.00964 l 1.51389,4.03778922 c 0.83264,2.2207841 1.53039,4.0377454 1.55055,4.0376909 0.0202,-5.38e-5 0.71995,-1.8170589 1.55509,-4.0377889 l 1.51843,-4.03769122 h 1.0125 1.0125 V 5.1252029 10.245588 h -0.76032 -0.76032 l -0.015,-3.8464228 -0.015,-3.8464221 -1.44017,3.8317924 -1.44016,3.8317925 h -0.66091 -0.6609 l -1.43931,-3.8329734 -1.43931,-3.8329738 -0.015,3.8476035 -0.015,3.8476037 h -0.76033 -0.76032 z"
     id="path5453"
     inkscape:connector-curvature="0" /><path
     style="fill:#ffffff;stroke-width:0.05851869"
     d="M 551.51519,5.8274271 V 1.4092664 h -1.63852 -1.63853 V 0.70704219 0.00481798 h 4.09631 4.09631 V 0.70704219 1.4092664 h -1.66778 -1.66779 v 4.4181607 4.4181609 h -0.79 -0.79 z"
     id="path5455"
     inkscape:connector-curvature="0" /></svg>