<?xml version="1.0" encoding="UTF-8" standalone="no"?>
<!-- Generator: Adobe Illustrator 16.0.3, SVG Export Plug-In . SVG Version: 6.00 Build 0)  -->

<svg
   xmlns:dc="http://purl.org/dc/elements/1.1/"
   xmlns:cc="http://creativecommons.org/ns#"
   xmlns:rdf="http://www.w3.org/1999/02/22-rdf-syntax-ns#"
   xmlns:svg="http://www.w3.org/2000/svg"
   xmlns="http://www.w3.org/2000/svg"
   xmlns:sodipodi="http://sodipodi.sourceforge.net/DTD/sodipodi-0.dtd"
   xmlns:inkscape="http://www.inkscape.org/namespaces/inkscape"
   version="1.1"
   id="Ebene_3"
   x="0px"
   y="0px"
   width="566.926px"
   height="167.468px"
   viewBox="0 0 566.926 167.468"
   enable-background="new 0 0 566.926 167.468"
   xml:space="preserve"
   sodipodi:docname="system.svg"
   inkscape:version="0.92.2 (5c3e80d, 2017-08-06)"><metadata
     id="metadata1264"><rdf:RDF><cc:Work
         rdf:about=""><dc:format>image/svg+xml</dc:format><dc:type
           rdf:resource="http://purl.org/dc/dcmitype/StillImage" /></cc:Work></rdf:RDF></metadata><defs
     id="defs1262" /><sodipodi:namedview
     pagecolor="#ffffff"
     bordercolor="#666666"
     borderopacity="1"
     objecttolerance="10"
     gridtolerance="10"
     guidetolerance="10"
     inkscape:pageopacity="0"
     inkscape:pageshadow="2"
     inkscape:window-width="1366"
     inkscape:window-height="746"
     id="namedview1260"
     showgrid="false"
     inkscape:zoom="2.1360812"
     inkscape:cx="283.46301"
     inkscape:cy="83.734001"
     inkscape:window-x="1912"
     inkscape:window-y="1072"
     inkscape:window-maximized="1"
     inkscape:current-layer="Ebene_3" /><g
     id="g1257"><g
       id="g1233"><path
         fill="#1D1D1B"
         d="M33.98,123.463l-0.068-41.587h5.384v49.797h-5.384L5.249,89.75l0.135,41.924H0V81.876h5.652L33.98,123.463    z"
         id="path1221" /><path
         fill="#1D1D1B"
         d="M45.31,81.876h26.419v4.912H50.827v17.294h20.767v4.912H50.827v17.767h20.902v4.912H45.31V81.876z"
         id="path1223" /><path
         fill="#1D1D1B"
         d="M74.242,106.909c0-15.341,11.911-25.907,25.976-25.907c14.602,0,25.975,11.171,25.975,25.772    c0,14.604-11.305,25.773-25.975,25.773c-14.738,0-25.976-11.373-25.976-25.572V106.909z M79.827,106.774    c0,11.709,8.815,20.861,20.458,20.861c11.776,0,20.39-9.486,20.39-20.861c0-11.372-8.613-20.86-20.457-20.86    c-11.709,0-20.391,9.285-20.391,20.792V106.774z"
         id="path1225" /><path
         fill="#1D1D1B"
         d="M172.16,94.796c-1.548-2.153-3.433-3.971-5.586-5.383c-3.23-2.221-7.133-3.5-11.574-3.5    c-10.902,0-20.39,8.344-20.39,20.792c0,12.652,9.556,20.996,20.457,20.996c5.249,0,9.892-1.815,13.324-4.508    c3.5-2.761,5.922-6.527,6.73-10.433h-27.104v-4.576h33.564c-0.067,2.896-0.74,6.527-2.221,9.624    c-4.307,9.354-14.267,14.805-24.293,14.805c-14.535,0-26.042-11.17-26.042-25.908c0-14.938,11.709-25.706,26.109-25.706    c10.094,0,19.448,5.652,23.351,13.795h-6.325V94.796L172.16,94.796z"
         id="path1227" /><path
         fill="#1D1D1B"
         d="M184.25,81.876h27.59v4.912h-22.071v17.294h21.937v4.912h-21.937v17.767h22.071v4.912h-27.59V81.876z"
         id="path1229" /><path
         fill="#1D1D1B"
         d="M214.061,106.909c0-15.341,11.911-25.907,25.975-25.907c14.603,0,25.975,11.171,25.975,25.772    c0,14.604-11.305,25.773-25.975,25.773c-14.737,0-25.975-11.373-25.975-25.572V106.909z M219.646,106.774    c0,11.709,8.815,20.861,20.457,20.861c11.777,0,20.39-9.486,20.39-20.861c0-11.372-8.613-20.86-20.457-20.86    c-11.709,0-20.39,9.285-20.39,20.792V106.774L219.646,106.774z"
         id="path1231" /></g><g
       id="g1243"><path
         fill="#1D1D1B"
         d="M327.465,106.909c0-15.341,11.91-25.907,25.977-25.907c14.604,0,25.977,11.171,25.977,25.772    c0,14.604-11.305,25.773-25.977,25.773c-14.736,0-25.977-11.373-25.977-25.572V106.909z M333.049,106.774    c0,11.709,8.816,20.861,20.459,20.861c11.777,0,20.392-9.486,20.392-20.861c0-11.372-8.612-20.86-20.458-20.86    c-11.708,0-20.393,9.285-20.393,20.792V106.774L333.049,106.774z"
         id="path1235" /><path
         fill="#1D1D1B"
         d="M435,118.282c-3.229,7.672-11.91,14.269-22.879,14.269c-14.735,0-25.976-11.373-25.976-25.772    c0-14.2,10.97-25.774,25.905-25.774c12.314,0,20.055,8.211,22.947,14.535h-5.99c-1.684-2.959-7.334-9.623-16.957-9.623    c-11.641,0-20.389,9.22-20.389,20.794c0,11.777,8.813,20.929,20.389,20.929c10.434,0,15.746-7.47,16.957-9.354L435,118.282    L435,118.282z"
         id="path1237" /><path
         fill="#1D1D1B"
         d="M489.643,81.876h27.594v4.912h-22.072v17.294H517.1v4.912h-21.936v17.767h22.072v4.912h-27.594V81.876    L489.643,81.876z"
         id="path1239" /><path
         fill="#1D1D1B"
         d="M545.229,86.789H529.18v-4.912h37.746v4.912h-16.111v44.885h-5.586V86.789z"
         id="path1241" /></g><path
       fill="#1D1D1B"
       d="M475.575,131.673h6.932l-25.871-24.968l23.783-24.831h-6.055l-26.105,26.999v-6.396V81.876h-5.518v49.797   h5.518v-16.228l5.08-5.307L475.575,131.673z"
       id="path1245" /><path
       fill="none"
       d="M302.793,135.479c-10.838-21.554-21.646-43.05-32.46-64.562c0.06-0.042,0.108-0.083,0.163-0.11   c2.697-1.38,5.395-2.76,8.091-4.138c3.812-1.946,7.625-3.883,11.433-5.839c4.003-2.056,8.21-3.293,12.751-3.146   c3.091,0.1,5.925,0.999,8.411,2.895c2.193,1.674,3.747,3.848,4.938,6.306c1.129,2.332,1.934,4.759,1.979,7.377   c0.063,3.636-1.036,6.924-2.984,9.978c-1.307,2.041-2.797,3.92-4.545,5.584c-1.203,1.146-2.49,2.203-3.738,3.299   c-4.569-3.241-9.041-6.41-13.531-9.594c0.853-3.113,1.693-6.198,2.539-9.291c4.361,0,8.662,0,12.939,0c0-3.277,0-6.527,0-9.823   c-6.682,0.064-13.289,0.127-19.896,0.193c-2.407,6.801-4.803,13.565-7.2,20.342c7.735,6.397,15.444,12.773,23.159,19.157   c3.066-1.17,5.975-2.609,8.713-4.388c4.363-2.835,8-6.396,10.671-10.881c2.481-4.17,3.728-8.711,3.796-13.559   c0.042-3.005-0.414-5.943-1.298-8.823c-1.173-3.816-2.987-7.27-5.755-10.165c-5.189-5.433-11.553-8.353-19.081-8.621   c-4.45-0.158-8.66,0.847-12.632,2.842c-1.789,0.9-3.541,1.872-5.341,2.744c-4.01,1.939-8.04,3.837-12.062,5.748   c-3.547,1.686-7.095,3.366-10.642,5.047c-1.199,0.569-2.399,1.14-3.6,1.71c12.046,24.562,24.078,49.093,36.104,73.625   C296.762,138.075,299.749,136.79,302.793,135.479z"
       id="path1247" /><path
       fill="#F10000"
       d="M302.793,135.479c-3.047,1.311-6.031,2.596-9.086,3.908c-12.024-24.529-24.059-49.063-36.104-73.624   c1.201-0.57,2.4-1.141,3.6-1.71c3.547-1.682,7.095-3.362,10.642-5.047c4.022-1.911,8.052-3.809,12.062-5.748   c1.799-0.872,3.551-1.844,5.34-2.744c3.973-1.996,8.183-3,12.631-2.842c7.529,0.268,13.894,3.188,19.082,8.621   c2.769,2.895,4.582,6.348,5.754,10.165c0.886,2.879,1.342,5.818,1.3,8.823c-0.067,4.849-1.313,9.39-3.796,13.559   c-2.674,4.483-6.309,8.045-10.674,10.881c-2.735,1.775-5.645,3.217-8.711,4.387c-7.715-6.383-15.424-12.759-23.158-19.157   c2.396-6.776,4.793-13.541,7.199-20.341c6.607-0.065,13.219-0.129,19.897-0.193c0,3.296,0,6.546,0,9.823c-4.278,0-8.579,0-12.94,0   c-0.846,3.093-1.688,6.178-2.539,9.292c4.49,3.183,8.961,6.352,13.531,9.592c1.248-1.094,2.535-2.152,3.739-3.299   c1.748-1.662,3.238-3.541,4.543-5.584c1.95-3.053,3.05-6.34,2.986-9.977c-0.048-2.618-0.851-5.045-1.979-7.377   c-1.188-2.458-2.742-4.632-4.937-6.306c-2.486-1.896-5.32-2.794-8.411-2.895c-4.541-0.147-8.748,1.089-12.751,3.146   c-3.806,1.956-7.621,3.893-11.433,5.839c-2.697,1.378-5.395,2.758-8.091,4.138c-0.055,0.028-0.104,0.069-0.163,0.11   C281.149,92.429,291.958,113.925,302.793,135.479z"
       id="path1249" /><path
       fill="#F10000"
       d="M310.439,41.06c-2.162-0.445-4.265-0.879-6.423-1.324c1.257-8.395,2.514-16.788,3.773-25.202   c3.936,0.574,7.832,1.145,11.791,1.724C316.526,24.546,313.488,32.787,310.439,41.06z"
       id="path1251" /><path
       fill="#07B8F9"
       d="M345.54,34.213c2.088,3.381,4.146,6.72,6.24,10.112c-6.818,4.222-13.635,8.44-20.472,12.671   c-1.435-2.14-2.841-4.241-4.278-6.391C333.195,45.146,339.347,39.697,345.54,34.213z"
       id="path1253" /><path
       fill="#069211"
       d="M329.069,21.016c3.018,2.085,5.979,4.134,8.954,6.19c-5.377,6.412-10.737,12.805-16.136,19.239   c-1.889-1.165-3.76-2.319-5.684-3.507C320.475,35.663,324.752,28.371,329.069,21.016z"
       id="path1255" /></g><path
     style="fill:#ffffff;stroke-width:0.46814701"
     d="M 0.3277029,106.8371 V 82.001947 l 2.660702,0.140399 2.6607021,0.140399 14.075553,20.653755 14.075554,20.65375 0.121856,-20.77079 0.121857,-20.770788 h 2.569989 2.569988 v 24.811788 24.81179 H 36.689443 34.194982 L 19.719114,110.4886 5.2432465,89.304951 5.1214393,110.4886 4.9996317,131.67225 H 2.6636674 0.3277029 Z"
     id="path1266"
     inkscape:connector-curvature="0" /><path
     style="fill:#ffffff;stroke-width:0.46814701"
     d="M 45.737963,106.86046 V 82.048672 h 12.874042 12.874043 v 2.340735 2.340735 H 60.942411 50.398773 l 0.127367,8.777756 0.127366,8.777752 10.416271,0.126 10.416271,0.12599 v 2.09771 2.0977 H 60.95274 50.419433 v 9.12887 9.12886 H 60.95274 71.486048 v 2.34074 2.34073 H 58.612005 45.737963 Z"
     id="path1268"
     inkscape:connector-curvature="0" /><path
     style="fill:#ffffff;stroke-width:0.46814701"
     d="m 93.286618,131.45063 c -6.174093,-1.76794 -12.012014,-6.13758 -15.027515,-11.24798 -4.796822,-8.12921 -4.92703,-18.52596 -0.331262,-26.450303 5.287293,-9.116719 16.827899,-14.192557 27.248319,-11.984473 9.98178,2.115134 17.47315,9.013841 19.89812,18.323916 0.90385,3.47013 0.91433,9.96396 0.0215,13.31919 -2.1274,7.99451 -8.17385,14.58972 -15.92389,17.36909 -3.61617,1.29686 -12.402774,1.66776 -15.885262,0.67056 z m 11.908232,-4.2582 c 10.24023,-2.32909 16.66483,-12.19594 15.34501,-23.56677 -0.7711,-6.643424 -5.49579,-13.092318 -11.72829,-16.008354 -3.1698,-1.483073 -3.69718,-1.583875 -8.30041,-1.58654 -5.78834,-0.0033 -8.456016,0.760151 -12.317563,3.525344 -10.0283,7.181108 -11.403616,22.67445 -2.826721,31.84384 2.781865,2.97404 5.593457,4.64974 9.526522,5.67778 3.859797,1.00888 6.252872,1.03553 10.301452,0.1147 z"
     id="path1270"
     inkscape:connector-curvature="0" /><path
     style="fill:#ffffff;stroke-width:0.46814701"
     d="m 151.72564,132.06339 c -10.04142,-1.06414 -18.12902,-7.79006 -21.29852,-17.71257 -1.34636,-4.21497 -1.34728,-11.21548 -0.002,-15.482623 5.72399,-18.156576 29.9104,-23.601322 43.54842,-9.803444 1.43635,1.453186 2.99212,3.313045 3.45727,4.133022 l 0.84572,1.490866 h -2.78556 c -2.75928,0 -2.81157,-0.0254 -5.54329,-2.691845 -4.67022,-4.558634 -10.03525,-6.531511 -16.51814,-6.074193 -6.61482,0.466625 -11.78557,3.396795 -15.34825,8.697579 -2.57129,3.825729 -3.54456,7.211528 -3.51855,12.240278 0.0338,6.53045 2.06225,11.33963 6.54723,15.52245 2.73927,2.55473 5.16193,3.8771 8.87481,4.84418 10.62863,2.76841 22.11556,-3.48006 25.17733,-13.69553 l 0.3157,-1.05333 H 161.87 148.26219 v -2.10666 -2.10667 h 16.62475 16.62475 l -0.29016,1.98963 c -0.88671,6.08022 -3.33971,10.84986 -7.66823,14.91013 -5.67417,5.32255 -13.46518,7.78494 -21.82763,6.89873 z"
     id="path1272"
     inkscape:connector-curvature="0" /><path
     style="fill:#ffffff;stroke-width:0.46814701"
     d="M 184.30948,106.86046 V 82.048672 h 13.57626 13.57626 v 2.340735 2.340735 h -11.01178 -11.01179 l 0.12737,8.777756 0.12737,8.777752 10.88442,0.12567 10.88441,0.12566 v 2.09804 2.09803 h -11.00145 -11.00146 v 9.12887 9.12886 h 11.00146 11.00145 v 2.34074 2.34073 h -13.57626 -13.57626 z"
     id="path1274"
     inkscape:connector-curvature="0" /><path
     style="fill:#ffffff;stroke-width:0.46814701"
     d="m 233.12528,131.4199 c -4.22441,-1.13779 -8.12784,-3.4366 -11.40357,-6.71579 -10.82366,-10.83509 -9.67102,-28.712651 2.45713,-38.110184 4.26411,-3.304056 10.52805,-5.465291 15.84013,-5.465291 7.55318,0 15.90965,4.020379 20.2757,9.754833 11.24267,14.766332 4.15183,35.940562 -13.58269,40.559822 -3.326,0.86631 -10.32817,0.85426 -13.5867,-0.0234 z m 10.68998,-3.97066 c 9.82646,-1.86355 16.80218,-10.40579 16.80218,-20.57539 0,-11.959168 -8.9092,-21.080002 -20.59087,-21.080002 -8.06891,0 -15.00334,4.352026 -18.35844,11.521705 -7.43523,15.888727 5.37239,33.314947 22.14713,30.133687 z"
     id="path1276"
     inkscape:connector-curvature="0" /><path
     style="fill:#ffffff;stroke-width:0.46814701"
     d="m 346.05427,131.29425 c -8.47832,-2.51984 -15.14532,-9.30091 -17.59114,-17.89211 -0.98063,-3.4446 -0.7888,-10.46473 0.39038,-14.285542 2.38754,-7.736223 8.49377,-13.937714 16.28202,-16.53604 14.15446,-4.722222 29.88506,3.696591 33.20226,17.769412 1.33612,5.66834 0.73762,12.33402 -1.56974,17.48265 -2.3707,5.28997 -8.06321,10.51778 -13.85306,12.72219 -4.37781,1.66679 -12.53664,2.02461 -16.86072,0.73944 z m 11.56359,-3.88896 c 5.4924,-1.15522 10.00997,-4.24993 13.03411,-8.92885 2.49,-3.85252 3.4175,-7.69193 3.17846,-13.15737 -0.17318,-3.95964 -0.37926,-4.81178 -1.91533,-7.919792 -2.13527,-4.320439 -5.67824,-7.798486 -10.05688,-9.872607 -2.96941,-1.406583 -3.48066,-1.498154 -8.3136,-1.48906 -4.22146,0.0079 -5.61369,0.197191 -7.72443,1.049996 -5.53434,2.236055 -10.31062,7.450785 -12.03727,13.142263 -1.19695,3.94543 -1.04565,10.29726 0.33077,13.88687 3.81504,9.94935 13.45849,15.40146 23.50417,13.28855 z"
     id="path1278"
     inkscape:connector-curvature="0" /><path
     style="fill:#ffffff;stroke-width:0.46814701"
     d="m 405.27486,131.39535 c -8.88539,-2.35845 -15.69377,-9.21266 -18.09071,-18.21249 -0.83947,-3.15198 -0.79855,-9.71172 0.0817,-13.09107 2.19189,-8.415245 9.43167,-15.734685 17.78736,-17.983075 7.81948,-2.104102 16.3559,-0.343447 22.71822,4.685678 2.1982,1.737576 6.52859,7.007962 6.52859,7.945749 0,0.229155 -1.21133,0.415207 -2.69185,0.413447 -2.57522,-0.0031 -2.74255,-0.07776 -3.86221,-1.724191 -1.71951,-2.528485 -6.18041,-5.609932 -9.69103,-6.694254 -13.46484,-4.158865 -26.38651,5.562679 -26.42642,19.881766 -0.006,2.10251 0.23749,4.75542 0.54079,5.89536 0.92081,3.46096 3.29519,7.38125 5.9278,9.78731 8.4355,7.70957 20.60254,7.31151 28.64906,-0.9373 2.63726,-2.70356 2.81105,-2.79814 5.14169,-2.79814 1.32669,0 2.41217,0.16942 2.41217,0.37649 0,0.81563 -2.80118,4.64182 -4.7403,6.47487 -4.76848,4.50764 -10.55797,6.742 -17.34515,6.69409 -2.40067,-0.0169 -5.52352,-0.33835 -6.93967,-0.71424 z"
     id="path1280"
     inkscape:connector-curvature="0" /><path
     style="fill:#ffffff;stroke-width:0.46814701"
     d="M 442.72662,106.86046 V 82.048672 h 2.57481 2.57481 v 13.34219 c 0,7.338208 0.18247,13.342188 0.40548,13.342188 0.22301,0 6.17433,-5.95132 13.22515,-13.225152 l 12.81968,-13.225153 2.75385,-0.140985 2.75385,-0.140984 -4.15829,4.443103 c -2.28706,2.443707 -7.58255,8.012432 -11.76776,12.374945 l -7.60946,7.931846 12.83117,12.34375 12.83118,12.34376 -3.08576,0.14043 -3.08576,0.14043 -6.58335,-6.46223 c -3.62084,-3.55422 -8.63612,-8.45736 -11.14506,-10.89585 l -4.56171,-4.43362 -2.8116,2.78227 -2.81161,2.78226 v 8.09019 8.09019 h -2.57481 -2.57481 z"
     id="path1282"
     inkscape:connector-curvature="0" /><path
     style="fill:#ffffff;stroke-width:0.46814701"
     d="M 490.00947,106.86046 V 82.048672 h 13.57627 13.57626 v 2.340735 2.340735 h -11.00146 -11.00145 v 8.894793 8.894795 h 10.76738 10.76738 v 2.10666 2.10666 h -10.76738 -10.76738 v 9.12887 9.12886 h 11.00145 11.00146 v 2.34074 2.34073 h -13.57626 -13.57627 z"
     id="path1284"
     inkscape:connector-curvature="0" /><path
     style="fill:#ffffff;stroke-width:0.46814701"
     d="M 545.25082,109.2012 V 86.730142 h -7.9585 -7.9585 v -2.340735 -2.340735 h 18.72588 18.72588 v 2.340735 2.340735 h -8.19257 -8.19257 v 22.471058 22.47105 h -2.57481 -2.57481 z"
     id="path1286"
     inkscape:connector-curvature="0" /></svg>