<?xml version="1.0" encoding="UTF-8" standalone="no"?>
<svg
   xmlns:dc="http://purl.org/dc/elements/1.1/"
   xmlns:cc="http://creativecommons.org/ns#"
   xmlns:rdf="http://www.w3.org/1999/02/22-rdf-syntax-ns#"
   xmlns:svg="http://www.w3.org/2000/svg"
   xmlns="http://www.w3.org/2000/svg"
   xmlns:sodipodi="http://sodipodi.sourceforge.net/DTD/sodipodi-0.dtd"
   xmlns:inkscape="http://www.inkscape.org/namespaces/inkscape"
   version="1.0"
   width="300.000000pt"
   height="80.000000pt"
   viewBox="0 0 300.000000 80.000000"
   preserveAspectRatio="xMidYMid meet"
   id="svg5507"
   sodipodi:docname="system.svg"
   inkscape:version="0.92.2 (5c3e80d, 2017-08-06)">
  <defs
     id="defs5511" />
  <sodipodi:namedview
     pagecolor="#ffffff"
     bordercolor="#666666"
     borderopacity="1"
     objecttolerance="10"
     gridtolerance="10"
     guidetolerance="10"
     inkscape:pageopacity="0"
     inkscape:pageshadow="2"
     inkscape:window-width="1366"
     inkscape:window-height="746"
     id="namedview5509"
     showgrid="false"
     inkscape:zoom="3.0275"
     inkscape:cx="200"
     inkscape:cy="53.333333"
     inkscape:window-x="1912"
     inkscape:window-y="1072"
     inkscape:window-maximized="1"
     inkscape:current-layer="svg5507" />
  <metadata
     id="metadata5489">
Created by potrace 1.10, written by Peter Selinger 2001-2011
<rdf:RDF>
  <cc:Work
     rdf:about="">
    <dc:format>image/svg+xml</dc:format>
    <dc:type
       rdf:resource="http://purl.org/dc/dcmitype/StillImage" />
  </cc:Work>
</rdf:RDF>
</metadata>
  <g
     transform="translate(0.000000,80.000000) scale(0.100000,-0.100000)"
     fill="#000000"
     stroke="none"
     id="g5505">
    <path
       d="M1643 606 c-79 -93 -143 -173 -143 -177 0 -5 26 -9 58 -9 55 0 60 2 102 45 42 43 80 59 80 33 0 -7 -16 -28 -35 -48 l-36 -37 -2 -191 -2 -192 63 0 62 0 0 195 0 195 33 0 c27 0 44 11 97 65 l64 65 -96 0 -97 0 -3 112 -3 112 -142 -168z"
       id="path5491" />
    <path
       d="M52 562 c29 -41 452 -532 459 -532 3 0 71 75 150 168 78 92 182 213 231 269 48 56 88 104 88 107 0 3 -42 6 -92 6 l-93 1 -162 -168 c-152 -159 -163 -167 -179 -151 -16 16 -13 22 64 105 44 48 106 113 136 143 31 30 56 58 56 62 0 4 -151 8 -336 8 -323 0 -335 -1 -322 -18z"
       id="path5493" />
    <path
       d="M912 403 c-66 -32 -112 -109 -112 -188 0 -16 11 -53 24 -81 56 -121 207 -151 305 -61 53 49 76 151 50 226 l-12 33 -53 -53 c-30 -29 -54 -59 -54 -66 0 -22 -39 -53 -65 -53 -14 0 -25 3 -25 8 0 4 38 45 85 92 47 47 85 90 85 97 0 7 -20 24 -43 38 -52 30 -133 34 -185 8z m102 -121 c3 -5 -12 -26 -33 -46 -41 -40 -58 -36 -41 8 12 32 62 57 74 38z"
       id="path5495" />
    <path
       d="M1335 403 c-85 -44 -124 -130 -103 -226 25 -117 161 -192 258 -142 109 54 151 160 108 268 l-11 28 -53 -52 c-30 -30 -54 -61 -54 -70 0 -21 -32 -49 -56 -49 -48 0 -82 58 -56 96 16 24 51 35 73 23 19 -10 27 -5 70 37 26 26 46 51 43 56 -3 4 -23 17 -44 28 -48 24 -132 26 -175 3z"
       id="path5497" />
    <path
       d="M1880 225 l0 -195 60 0 60 0 0 125 0 125 48 0 c46 0 48 2 104 68 l56 67 -65 3 -66 3 -64 -71 c-67 -73 -80 -80 -90 -54 -4 10 12 34 48 70 l53 54 -72 0 -72 0 0 -195z"
       id="path5499" />
    <path
       d="M2238 391 c-106 -67 -119 -231 -26 -318 107 -101 279 -48 318 97 13 48 6 117 -13 144 -11 16 -18 11 -65 -43 -29 -32 -52 -64 -52 -69 0 -16 -36 -42 -58 -42 -12 0 -22 3 -22 6 0 3 38 47 85 97 82 88 84 91 67 110 -48 55 -162 64 -234 18z m122 -108 c-1 -9 -68 -83 -75 -83 -15 0 -2 44 20 65 23 24 55 34 55 18z"
       id="path5501" />
    <path
       d="M2522 369 c23 -28 60 -73 82 -100 l38 -48 -74 -88 c-41 -48 -77 -92 -80 -98 -4 -6 19 -9 63 -7 l68 4 60 64 c57 61 91 80 91 51 0 -7 -22 -37 -50 -67 -27 -30 -50 -54 -50 -55 0 0 65 0 145 0 80 0 145 2 145 5 0 3 -34 46 -75 95 -41 50 -75 93 -75 98 0 4 35 49 77 100 l77 92 -65 3 -64 3 -68 -70 c-37 -39 -72 -71 -77 -71 -23 0 -20 25 7 53 15 18 39 44 52 60 l24 27 -147 0 -148 0 44 -51z"
       id="path5503" />
  </g>
  <path
     style="fill:#ffffff;stroke-width:0.33030555"
     d="M 64.735115,98.79989 C 55.676142,88.921842 16.547115,43.441041 8.6859008,33.652264 L 6.4352919,30.849808 7.5446484,30.387183 C 9.5065249,29.56904 36.33946,29.246414 65.466557,29.690758 c 25.859095,0.394489 28.901734,0.499547 28.901734,0.997933 0,0.154475 -3.068942,3.447314 -6.819872,7.317419 -14.386764,14.843863 -25.544868,26.981859 -27.251385,29.644574 -1.192724,1.861034 -1.187039,2.795568 0.02438,4.006983 2.507208,2.507211 3.297781,1.818375 31.229365,-27.210455 l 14.523531,-15.09406 6.12056,0.0098 c 6.62703,0.01059 17.80175,0.496061 18.09166,0.785974 0.24085,0.240851 -3.53885,4.860949 -12.43979,15.205708 -4.07282,4.733467 -14.02271,16.335452 -22.110878,25.782191 -8.088165,9.446738 -17.018454,19.751128 -19.845083,22.898642 -2.826633,3.147514 -5.659561,6.308363 -6.295399,7.024103 -0.635838,0.71575 -1.256833,1.29905 -1.379987,1.29624 -0.123151,-0.003 -1.689275,-1.60297 -3.480274,-3.555897 z"
     id="path5513"
     inkscape:connector-curvature="0"
     transform="scale(0.75000001)" />
  <path
     style="fill:#ffffff;stroke-width:0.33030555"
     d="m 127.8943,103.20345 c -9.59844,-2.21873 -16.07381,-8.481357 -19.6657,-19.01958 -2.33948,-6.86382 -1.34083,-14.034672 2.96701,-21.304707 2.50363,-4.225197 7.68599,-8.736854 11.9906,-10.438786 6.85271,-2.709379 16.89726,-1.889763 23.28211,1.899774 2.21999,1.317607 5.37313,4.051253 5.37313,4.658281 0,0.775151 -4.14719,5.473481 -11.73669,13.296411 -4.317,4.449782 -8.58125,8.966068 -9.4761,10.03619 -1.93673,2.316058 -1.76673,2.769765 1.1506,3.070859 1.58629,0.163719 2.13356,0.05401 3.93435,-0.788678 2.76912,-1.295828 5.11247,-3.642609 5.60991,-5.618133 0.24253,-0.963182 1.05478,-2.339358 2.27389,-3.852593 2.05075,-2.545532 11.76286,-12.327302 11.99631,-12.082354 0.45553,0.477957 2.18389,6.169415 2.5356,8.349634 0.52981,3.28427 0.23771,8.704292 -0.67064,12.443797 -0.37509,1.544178 -1.44056,4.36829 -2.36771,6.275805 -1.43313,2.948522 -2.08748,3.869007 -4.36688,6.143012 -3.03773,3.030547 -6.16173,4.940308 -10.27818,6.283258 -3.27187,1.06742 -9.37391,1.38236 -12.55161,0.64781 z m -0.29382,-25.160267 c 3.12095,-2.078946 7.7257,-7.309772 7.7257,-8.776108 0,-0.866499 -1.21149,-1.370155 -2.71677,-1.12945 -3.14158,0.502358 -6.3201,3.163795 -7.47959,6.262814 -0.69154,1.848308 -0.91716,3.844696 -0.48352,4.278339 0.45945,0.459451 1.71619,0.189061 2.95418,-0.635595 z"
     id="path5515"
     inkscape:connector-curvature="0"
     transform="scale(0.75000001)" />
  <path
     style="fill:#ffffff;stroke-width:0.33030555"
     d="m 185.69777,103.50757 c -8.88423,-1.6715 -17.13807,-8.621916 -20.24775,-17.050276 -3.07818,-8.34298 -1.95177,-18.082231 2.88848,-24.974493 2.79252,-3.976414 7.81075,-7.871663 11.99613,-9.311645 4.30535,-1.481257 10.49061,-1.607713 16.04903,-0.328118 2.90922,0.669727 7.66612,2.910778 9.59302,4.519425 1.08993,0.909915 1.1028,0.950439 0.60562,1.906508 -1.15194,2.215129 -9.28083,10.317243 -11.33336,11.296028 -1.01099,0.482107 -1.20687,0.466926 -3.09729,-0.240046 -5.38256,-2.012942 -10.97907,1.687343 -10.97907,7.25911 0,4.475524 3.44307,8.278529 7.98166,8.816058 1.35799,0.160832 1.9513,0.04157 3.45627,-0.694745 2.22733,-1.089727 4.38939,-3.449268 4.6738,-5.100697 0.27996,-1.625589 1.80963,-3.89415 5.15299,-7.642114 3.5373,-3.965355 8.89596,-9.022339 9.19976,-8.681839 0.33935,0.380338 1.963,4.793849 2.49836,6.791202 1.84412,6.880169 0.89877,14.286849 -2.58112,20.222594 -1.59536,2.721266 -6.20147,7.476469 -8.92089,9.209652 -3.28953,2.096546 -6.28395,3.431576 -8.91181,3.973246 -2.9941,0.61716 -4.86641,0.6242 -8.02383,0.0302 z"
     id="path5517"
     inkscape:connector-curvature="0"
     transform="scale(0.75000001)" />
  <path
     style="fill:#ffffff;stroke-width:0.33030555"
     d="m 222.30784,87.432699 c 0.12045,-8.204885 0.219,-19.557886 0.219,-25.228888 V 51.892894 l 3.84206,-4.06035 c 2.11314,-2.233189 4.26838,-4.732578 4.78943,-5.55419 1.48032,-2.334226 1.16248,-3.676647 -0.87052,-3.676647 -1.92324,0 -4.32569,1.596749 -8.98796,5.973714 -5.82864,5.47196 -6.27976,5.695366 -11.83545,5.861225 -3.91126,0.116767 -8.51887,-0.275593 -9.01057,-0.76729 -0.10685,-0.106847 0.0223,-0.548307 0.28702,-0.981017 2.34024,-3.825552 36.67713,-44.6492683 37.01733,-44.0105502 0.11657,0.2188484 0.30779,5.3029434 0.42494,11.2979892 0.11714,5.995045 0.30431,12.423616 0.41592,14.285714 l 0.20292,3.385632 h 12.58601 12.58602 l -6.60302,6.631524 c -6.58609,6.614537 -9.5638,9.120086 -11.68946,9.83594 -0.61753,0.207964 -2.51266,0.378118 -4.21139,0.378118 h -3.08862 v 25.928984 25.92898 h -8.14633 -8.14634 z"
     id="path5519"
     inkscape:connector-curvature="0"
     transform="scale(0.75000001)" />
  <path
     style="fill:#ffffff;stroke-width:0.33030555"
     d="M 250.93311,76.586843 V 50.823011 h 9.30232 9.30231 l -5.31375,5.400379 c -5.52803,5.618147 -8.00599,8.874386 -8.00599,10.52051 0,1.303537 1.39807,2.69755 2.40022,2.393244 1.83612,-0.557549 5.83288,-4.422122 13.6196,-13.169145 l 4.62428,-5.194571 6.60611,0.224109 c 3.63336,0.123261 7.47118,0.320214 8.52849,0.437674 l 1.92238,0.213564 -4.68348,5.615194 c -5.67549,6.804536 -8.97006,10.231405 -10.69658,11.126107 -1.09335,0.566585 -2.1385,0.699347 -6.68869,0.849648 l -5.39286,0.178136 v 16.466406 16.466404 h -7.76218 -7.76218 z"
     id="path5521"
     inkscape:connector-curvature="0"
     transform="scale(0.75000001)" />
  <path
     style="fill:#ffffff;stroke-width:0.33030555"
     d="m 306.29008,103.00379 c -4.20125,-1.06611 -8.10655,-3.317476 -11.44623,-6.598615 -3.34336,-3.28476 -5.10658,-6.095746 -6.63001,-10.569777 -0.9566,-2.809352 -1.0829,-3.622083 -1.20628,-7.76218 -0.11518,-3.86506 -0.0254,-5.09658 0.54675,-7.500995 1.98507,-8.341945 7.47442,-14.91747 14.90647,-17.856022 7.79845,-3.083426 18.05117,-2.316365 24.03104,1.797891 2.02757,1.395006 4.04493,3.591083 4.04493,4.403276 0,1.486811 -1.69363,3.602348 -10.57576,13.21035 -6.04549,6.539544 -10.06269,11.119826 -10.54781,12.026279 -0.29878,0.558279 -0.18975,0.690917 0.85006,1.034084 3.28218,1.083218 8.26053,-1.527937 9.87552,-5.179726 1.20965,-2.735227 4.84588,-7.325367 10.3625,-13.080937 3.22363,-3.363258 3.87125,-3.570423 5.14491,-1.645788 1.4756,2.229773 2.23103,5.947611 2.26356,11.14006 0.035,5.587604 -0.45086,7.801589 -2.75449,12.55161 -3.2865,6.776677 -8.68757,11.40063 -16.01403,13.7099 -3.38815,1.06793 -9.32271,1.21597 -12.85113,0.32059 z m 2.19315,-26.37149 c 4.05174,-4.193802 6.19885,-6.929443 6.19885,-7.897969 0,-1.485012 -2.52116,-1.182085 -5.15946,0.619927 -3.25513,2.223316 -5.74062,6.194372 -5.74062,9.171758 0,2.59076 0.60355,2.347642 4.70123,-1.893716 z"
     id="path5523"
     inkscape:connector-curvature="0"
     transform="scale(0.75000001)" />
  <path
     style="fill:#ffffff;stroke-width:0.33030555"
     d="m 357.335,102.10295 c 3.15218,-3.341422 8.31702,-9.184718 9.6536,-10.921709 2.18602,-2.840892 2.73632,-4.122108 2.23916,-5.213255 -0.35107,-0.770501 -0.53846,-0.853203 -1.55831,-0.687703 -1.99991,0.324542 -5.14146,2.958969 -12.04088,10.097186 l -6.67887,6.910041 -4.49962,0.25445 c -5.85501,0.33109 -11.39776,0.2857 -12.08514,-0.099 -0.71457,-0.39989 -0.36944,-0.85181 10.88857,-14.257683 4.90504,-5.840845 8.95832,-10.737184 9.00729,-10.880752 0.13697,-0.40154 -12.18474,-15.701192 -19.19902,-23.839079 l -2.13525,-2.477292 9.54912,-0.08756 c 5.25202,-0.04816 13.86121,-0.04816 19.13154,0 l 9.58242,0.08756 -5.63016,6.440958 c -3.09659,3.542527 -5.93266,7.012714 -6.30237,7.711528 -1.2391,2.342122 -0.77431,4.179471 1.05729,4.179471 1.32943,0 4.07917,-2.459796 12.53887,-11.216699 l 7.08235,-7.331162 6.44611,0.226021 c 3.54537,0.124311 7.31418,0.321527 8.37514,0.438257 l 1.92902,0.212237 -6.9977,8.422791 c -6.92024,8.329557 -12.72916,15.710574 -13.0763,16.615203 -0.22867,0.595888 3.05586,4.998248 10.77977,14.448493 7.67731,9.393238 9.04202,11.177568 8.76263,11.456968 -0.26096,0.26095 -17.75868,0.68676 -29.74566,0.72385 l -8.24209,0.0255 z"
     id="path5525"
     inkscape:connector-curvature="0"
     transform="scale(0.75000001)" />
</svg>
