<?xml version="1.0" encoding="UTF-8" standalone="no"?>
<!-- Generator: Adobe Illustrator 16.0.3, SVG Export Plug-In . SVG Version: 6.00 Build 0)  -->

<svg
   xmlns:dc="http://purl.org/dc/elements/1.1/"
   xmlns:cc="http://creativecommons.org/ns#"
   xmlns:rdf="http://www.w3.org/1999/02/22-rdf-syntax-ns#"
   xmlns:svg="http://www.w3.org/2000/svg"
   xmlns="http://www.w3.org/2000/svg"
   xmlns:sodipodi="http://sodipodi.sourceforge.net/DTD/sodipodi-0.dtd"
   xmlns:inkscape="http://www.inkscape.org/namespaces/inkscape"
   version="1.1"
   id="Ebene_1"
   x="0px"
   y="0px"
   width="566.93px"
   height="72.714px"
   viewBox="0 0 566.93 72.714"
   enable-background="new 0 0 566.93 72.714"
   xml:space="preserve"
   sodipodi:docname="system.svg"
   inkscape:version="0.92.2 (5c3e80d, 2017-08-06)"><metadata
     id="metadata802"><rdf:RDF><cc:Work
         rdf:about=""><dc:format>image/svg+xml</dc:format><dc:type
           rdf:resource="http://purl.org/dc/dcmitype/StillImage" /></cc:Work></rdf:RDF></metadata><defs
     id="defs800" /><sodipodi:namedview
     pagecolor="#ffffff"
     bordercolor="#666666"
     borderopacity="1"
     objecttolerance="10"
     gridtolerance="10"
     guidetolerance="10"
     inkscape:pageopacity="0"
     inkscape:pageshadow="2"
     inkscape:window-width="1366"
     inkscape:window-height="746"
     id="namedview798"
     showgrid="false"
     inkscape:zoom="2.1360662"
     inkscape:cx="283.465"
     inkscape:cy="36.356998"
     inkscape:window-x="1912"
     inkscape:window-y="1072"
     inkscape:window-maximized="1"
     inkscape:current-layer="Ebene_1" /><g
     id="g795"><path
       d="M122.879,3.133c2.804-3.588,8.608-4.201,12.048-1.191c1.407,1.187,2.393,2.82,2.897,4.579   c6.369,21.915,12.767,43.82,19.127,65.737c-3.758,0.004-7.52-0.006-11.277,0.004c-1.773-6.042-3.504-12.096-5.254-18.146   c-7.269-0.016-14.534-0.003-21.802-0.006c-1.779,6.045-3.536,12.097-5.284,18.153c-3.738-0.013-7.477-0.003-11.216-0.007   c6.051-20.905,12.109-41.812,18.189-62.71C121.029,7.362,121.301,4.92,122.879,3.133 M129.514,16.562   c-2.665,9.08-5.276,18.176-7.926,27.259c5.283,0.024,10.563,0.009,15.844,0.009C134.788,34.74,132.158,25.651,129.514,16.562z"
       id="path765" /><path
       d="M202.062,3.604c1.959-2.842,5.746-4.22,9.08-3.343c3.051,0.703,5.387,3.333,6.192,6.294   c6.362,21.899,12.748,43.791,19.11,65.69c-3.765,0.027-7.526,0-11.29,0.016c-1.75-6.048-3.481-12.104-5.245-18.15   c-7.256,0.003-14.511-0.013-21.767,0.006c-1.734,6.053-3.523,12.091-5.257,18.142c-3.735,0.004-7.469-0.003-11.203,0.004   c6.048-21.021,12.167-42.024,18.263-63.029C200.583,7.335,200.831,5.243,202.062,3.604 M201.146,43.831   c5.261,0.007,10.519,0.003,15.779,0.003c-2.617-9.108-5.276-18.204-7.885-27.313C206.412,25.626,203.761,34.722,201.146,43.831z"
       id="path767" /><path
       d="M148.535,0.152c13.6,0,27.195,0,40.791,0c0,3.668,0,7.333,0,11c-5.007,0.004-10.011-0.006-15.016,0.004   c0,20.366,0.003,40.736-0.003,61.102c-3.584,0-7.172,0-10.757,0c0-20.365-0.004-40.735,0.002-61.102   c-5.006-0.01-10.01,0-15.019-0.004C148.535,7.485,148.531,3.82,148.535,0.152z"
       id="path769" /><path
       d="M248.398,0.599c1.034-0.356,2.136-0.479,3.227-0.452c4.287,0.016,8.575,0.003,12.861,0.006   c7.22,0.132,14.112,4.612,17.236,11.11c2.163,4.22,2.387,9.127,1.841,13.756c-0.376,4.847-2.408,9.692-6.134,12.904   c-1.969,1.755-4.42,2.816-6.525,4.378c-1.157,0.881-1.214,2.593-0.617,3.815c5.69,8.784,11.606,17.432,17.416,26.142   c-4.249,0.007-8.498-0.01-12.747,0.007c-5.562-8.354-11.065-16.75-16.604-25.116c-1.628-2.381-2.071-5.534-1.097-8.252   c0.762-2.083,2.582-3.609,4.611-4.396c3.873-1.478,7.691-3.8,9.836-7.453c1.632-2.747,1.548-6.137,0.813-9.143   c-0.86-3.902-4.663-6.973-8.681-6.838c-2.778,0.02-5.556-0.014-8.33,0.013c-1.256-0.028-2.438,1.063-2.422,2.335   c-0.013,19.615,0.006,39.232-0.006,58.848c-3.613-0.007-7.223,0-10.836-0.004c-0.007-21.117,0.006-42.236-0.007-63.354   C242.257,5.205,244.888,1.723,248.398,0.599z"
       id="path771" /><path
       d="M293.384,0.152c3.802,0,7.601,0,11.402,0c-0.003,24.037,0.007,48.071-0.006,72.109c-3.797-0.01-7.596,0-11.396-0.004   C293.384,48.22,293.384,24.186,293.384,0.152z"
       id="path773" /><path
       d="M32.154,0.005c1.826-0.006,3.652,0,5.479-0.004c0.008,4.294,0,8.589,0.003,12.882c0.019,3.584-0.082,7.167-0.231,10.748   c-0.244,5.17-0.568,10.352-1.425,15.462c-0.588,3.522-1.807,6.922-3.319,10.147c-2.467,5.2-6.343,9.601-10.7,13.302   c-3.898,3.43-8.551,5.928-13.444,7.617c-2.768,0.953-5.617,1.688-8.518,2.098c0.003-3.602,0.003-7.203,0-10.805   c3.492-0.524,6.849-1.765,9.967-3.402c3.7-1.955,7.03-4.587,9.833-7.688c2.895-3.202,5.202-6.908,6.953-10.847   c2.062-4.526,3.166-9.415,3.916-14.311C31.608,18.98,32,12.687,32.146,6.396C32.166,4.266,32.148,2.135,32.154,0.005z"
       id="path775" /><path
       d="M39.837,0.011c3.361-0.022,6.724-0.003,10.086-0.009c0.001,24.085,0.001,48.169,0,72.253   c-3.354,0.007-6.709-0.017-10.063,0.014c-0.042-7.68-0.006-15.361-0.018-23.041C39.839,32.822,39.849,16.419,39.837,0.011z"
       id="path777" /><path
       d="M52.167,0.003c1.816-0.001,3.632-0.005,5.447,0.001C57.555,7.348,57.805,14.703,58.68,22   c0.717,5.666,1.727,11.376,3.983,16.653c2.14,5.109,5.224,9.856,9.243,13.685c3.838,3.658,8.49,6.473,13.543,8.093   c1.41,0.45,2.852,0.805,4.318,1.018c-0.002,3.601-0.003,7.2,0,10.8c-2.88-0.392-5.704-1.134-8.453-2.067   c-3.273-1.139-6.438-2.614-9.346-4.505c-2.123-1.364-4.053-2.998-5.907-4.703c-3.057-2.818-5.792-6.021-7.847-9.648   c-1.607-2.823-2.78-5.877-3.698-8.988c-0.842-3.129-1.201-6.362-1.528-9.578c-0.632-6.95-0.868-13.936-0.823-20.911   C52.167,7.896,52.166,3.948,52.167,0.003z"
       id="path779" /><path
       d="M32.154,0.005c-0.006,2.131,0.012,4.262-0.009,6.393c-0.145,6.29-0.537,12.584-1.477,18.808   c-0.75,4.896-1.854,9.784-3.916,14.311c-1.751,3.938-4.059,7.646-6.953,10.847c-2.803,3.103-6.134,5.733-9.833,7.688   c-3.118,1.639-6.475,2.878-9.967,3.401c0.003,3.603,0.003,7.204,0,10.806c2.901-0.409,5.75-1.145,8.518-2.097   c4.894-1.69,9.546-4.188,13.444-7.618c4.357-3.701,8.233-8.102,10.7-13.302c1.512-3.227,2.731-6.625,3.319-10.147   c0.857-5.111,1.181-10.292,1.425-15.462c0.149-3.581,0.25-7.164,0.231-10.748c-0.003-4.293,0.005-8.588-0.003-12.882   C35.806,0.005,33.98-0.001,32.154,0.005"
       id="path781" /><path
       d="M39.837,0.011c0.012,16.407,0.001,32.812,0.006,49.217c0.012,7.68-0.025,15.361,0.018,23.041   c3.354-0.029,6.709-0.007,10.063-0.014c0.001-24.084,0.001-48.168,0-72.253C46.561,0.008,43.198-0.012,39.837,0.011"
       id="path783" /><path
       d="M52.167,0.003c-0.001,3.945,0,7.895,0,11.842c-0.045,6.977,0.191,13.961,0.823,20.911c0.327,3.216,0.686,6.449,1.528,9.578   c0.918,3.111,2.091,6.165,3.698,8.988c2.054,3.627,4.79,6.83,7.847,9.648c1.854,1.705,3.785,3.339,5.907,4.703   c2.907,1.891,6.073,3.366,9.346,4.505c2.749,0.935,5.573,1.677,8.453,2.067c-0.003-3.6-0.002-7.199,0-10.8   c-1.466-0.213-2.908-0.566-4.318-1.018c-5.053-1.62-9.705-4.435-13.543-8.093c-4.019-3.827-7.103-8.574-9.243-13.685   c-2.257-5.277-3.267-10.987-3.983-16.653c-0.875-7.297-1.125-14.652-1.066-21.996C55.799-0.002,53.984,0.002,52.167,0.003"
       id="path785" /><path
       d="M437.874,34.488c5.281-3.112,8.575-8.381,8.575-14.23c0-13.813-14.59-20.104-28.146-20.104   c-13.558,0-28.146,6.291-28.146,20.104c0,5.851,3.293,11.118,8.574,14.23c-7.51,3.478-11.713,9.403-11.713,16.784   c0,13.913,15.737,21.192,31.283,21.192s31.283-7.279,31.283-21.192C449.587,43.891,445.384,37.965,437.874,34.488z M418.304,25.732   c-3.458,0-6.271-2.23-6.271-4.974s2.813-4.975,6.271-4.975c3.455,0,6.269,2.231,6.269,4.975S421.761,25.732,418.304,25.732z    M418.304,43.457c3.847,0,6.978,2.567,6.978,5.727c0,3.065-3.131,5.559-6.978,5.559c-3.85,0-6.979-2.492-6.979-5.559   C411.325,46.024,414.455,43.457,418.304,43.457z"
       id="path787" /><path
       d="M498.233,11.921c-5.774-7.698-14.256-11.769-24.529-11.769c-10.272,0-18.755,4.069-24.529,11.769   c-4.854,6.476-7.529,15.181-7.529,24.513c0,18.058,9.913,36.281,32.06,36.281c22.147,0,32.062-18.224,32.062-36.281   C505.765,27.101,503.09,18.396,498.233,11.921z M473.704,51.23c-7.721,0-8.566-10.037-8.566-14.881   c0-4.798,0.847-14.714,8.566-14.714c7.721,0,8.566,9.916,8.566,14.714C482.271,41.193,481.425,51.23,473.704,51.23z"
       id="path789" /><path
       d="M559.397,11.921c-5.773-7.698-14.256-11.769-24.528-11.769s-18.755,4.069-24.529,11.769   c-4.855,6.476-7.53,15.181-7.53,24.513c0,18.058,9.914,36.281,32.061,36.281c22.147,0,32.061-18.224,32.061-36.281   C566.929,27.101,564.254,18.396,559.397,11.921z M534.869,51.23c-7.722,0-8.567-10.037-8.567-14.881   c0-4.798,0.847-14.714,8.567-14.714c7.72,0,8.566,9.916,8.566,14.714C543.436,41.193,542.589,51.23,534.869,51.23z"
       id="path791" /><polygon
       points="336.516,1.165 336.516,23.181 366.663,23.181 344.172,72.386 369.636,72.386 399.876,1.165  "
       id="polygon793" /></g><path
     style="fill:#ffffff;stroke-width:0.46815029"
     d="M 40.120479,36.076108 V 0.02853649 h 4.915578 4.915578 V 36.076108 72.12368 h -4.915578 -4.915578 z"
     id="path804"
     inkscape:connector-curvature="0" /><path
     style="fill:#ffffff;stroke-width:0.46815029"
     d="m 0.3277052,66.808653 v -5.29162 l 2.457789,-0.566302 c 3.5311059,-0.813608 9.4985548,-3.846 12.7407648,-6.47429 4.082299,-3.309307 7.823963,-8.015444 10.269921,-12.917163 4.047352,-8.110921 5.775787,-17.01228 6.223492,-32.0506983 L 32.3019,0.02853649 h 2.504839 2.504839 l -0.0016,12.52302051 c -0.0035,27.663156 -2.245178,36.413169 -11.886587,46.397971 -3.731465,3.86437 -7.584739,6.76598 -11.753403,8.850597 -2.778474,1.389428 -8.8771272,3.460347 -11.8207944,4.013991 l -1.5214964,0.286157 z"
     id="path806"
     inkscape:connector-curvature="0" /><path
     style="fill:#ffffff;stroke-width:0.46815029"
     d="M 85.117693,71.16694 C 77.111953,69.070301 71.167634,65.663866 65.152219,59.725572 54.78926,49.495477 52.310148,39.991751 52.297016,10.44488 l -0.0046,-10.41634351 h 2.574826 2.574827 V 4.4079808 c 0,5.7226832 0.747931,15.2075982 1.685035,21.3688212 2.25128,14.801604 9.019627,25.608916 20.107822,32.107034 2.143083,1.25593 8.306094,3.472388 9.655209,3.472388 0.777446,0 0.854303,0.484348 0.854303,5.383728 0,4.00863 -0.149467,5.377146 -0.585188,5.357952 -0.321853,-0.01418 -2.140541,-0.433114 -4.041528,-0.930964 z"
     id="path808"
     inkscape:connector-curvature="0" /><path
     style="fill:#ffffff;stroke-width:0.46815029"
     d="m 102.51645,71.518703 c 0.12768,-0.332742 4.49286,-15.34281 9.7004,-33.355709 5.31772,-18.393992 9.89729,-33.3982129 10.44696,-34.2277755 3.34134,-5.0427443 11.33119,-4.63834521 14.09779,0.7135474 0.35018,0.6774069 4.89944,15.8730491 10.10947,33.7680941 5.21003,17.895044 9.57583,32.806684 9.70178,33.136973 0.18,0.472032 -0.9488,0.572202 -5.27536,0.468151 l -5.50436,-0.132379 -2.59349,-9.011893 -2.59349,-9.011893 H 129.5303 118.45444 l -2.01043,6.905217 c -1.10574,3.797869 -2.30697,7.905888 -2.6694,9.12893 l -0.65896,2.223714 h -5.41568 c -4.23469,0 -5.36505,-0.131925 -5.18352,-0.604977 z m 34.82503,-28.537378 c -1.06146,-4.243846 -7.61796,-26.559482 -7.8043,-26.562593 -0.23141,-0.0039 -8.01042,26.586749 -7.97625,27.264818 0.01,0.193112 3.62362,0.351113 8.03085,0.351113 h 8.01316 z"
     id="path810"
     inkscape:connector-curvature="0" /><path
     style="fill:#ffffff;stroke-width:0.46815029"
     d="M 163.71215,41.459837 V 10.795993 h -7.4904 -7.49041 V 5.6463399 0.49668677 h 20.13047 20.13046 V 5.6463399 10.795993 h -7.49041 -7.4904 V 41.459837 72.12368 h -5.14965 -5.14966 z"
     id="path812"
     inkscape:connector-curvature="0" /><path
     style="fill:#ffffff;stroke-width:0.46815029"
     d="m 182.08736,71.538492 c 0.11964,-0.321853 4.48016,-15.331922 9.69005,-33.355707 5.54659,-19.188597 9.88798,-33.3907702 10.47494,-34.2670624 2.16291,-3.22908179 7.12264,-4.55473433 10.47435,-2.7996205 3.27584,1.7153885 3.41129,2.0857271 13.68036,37.4054449 l 9.70163,33.368058 -4.91915,0.13376 c -2.70553,0.07357 -5.16297,0.04021 -5.46097,-0.07416 -0.298,-0.114355 -1.68088,-4.229284 -3.07306,-9.14429 l -2.53125,-8.936371 -11.08702,-0.0014 c -10.1567,-0.0014 -11.10705,0.06738 -11.32577,0.817901 -0.13131,0.450595 -0.89701,3.136607 -1.70154,5.968916 -0.80453,2.832309 -1.87888,6.57166 -2.38745,8.309668 l -0.92466,3.160056 h -5.41399 c -4.1351,0 -5.36261,-0.138231 -5.19647,-0.585188 z m 34.99393,-27.771447 c 0,-0.665211 -7.64256,-26.691068 -7.93188,-27.011115 -0.28636,-0.316761 -7.98523,25.503004 -7.98523,26.780107 0,0.33318 2.64067,0.498626 7.95855,0.498626 4.37721,0 7.95856,-0.120428 7.95856,-0.267618 z"
     id="path814"
     inkscape:connector-curvature="0" /><path
     style="fill:#ffffff;stroke-width:0.46815029"
     d="m 242.37168,39.938348 c 0.01,-30.1192587 0.065,-32.3057977 0.86281,-34.0619483 1.07895,-2.3750057 3.79147,-4.7781318 5.82363,-5.15936766 0.8619,-0.16169292 5.65909,-0.22475084 10.66043,-0.14012866 l 9.09334,0.15385853 3.14753,1.49104929 c 8.10687,3.8403922 12.05589,11.0650728 11.46917,20.9827108 -0.4749,8.02751 -3.04668,12.609336 -9.44137,16.820571 -4.00481,2.637372 -4.74829,3.692959 -3.99555,5.67283 0.2289,0.602043 4.21969,6.794128 8.86843,13.76019 l 8.45225,12.665567 h -6.09414 -6.09414 l -8.63944,-13.112819 c -4.7517,-7.212052 -8.88521,-13.933094 -9.18558,-14.935651 -0.64453,-2.151232 -0.31039,-4.372039 0.97483,-6.47907 0.67124,-1.100464 2.00203,-2.03567 4.79718,-3.371203 2.12753,-1.016543 4.65844,-2.50607 5.62426,-3.310062 6.65804,-5.542477 5.75597,-16.314858 -1.62395,-19.39293 -2.35441,-0.981991 -11.94793,-1.026544 -13.26785,-0.06162 -0.88084,0.64394 -0.91264,1.585366 -1.03587,30.663844 l -0.12713,29.999508 h -5.13956 -5.13956 z"
     id="path816"
     inkscape:connector-curvature="0" /><path
     style="fill:#ffffff;stroke-width:0.46815029"
     d="M 293.38978,36.310183 V 0.49668677 h 5.61781 5.6178 V 36.310183 72.12368 h -5.6178 -5.61781 z"
     id="path818"
     inkscape:connector-curvature="0" /><path
     style="fill:#ffffff;stroke-width:0.46815029"
     d="m 469.18021,72.257314 c -3.14632,-0.435118 -7.11849,-1.692659 -10.11826,-3.203319 -3.38263,-1.703463 -8.63665,-6.263715 -10.27982,-8.92242 l -0.99358,-1.607656 -1.43651,2.168725 c -2.79577,4.220843 -9.66501,8.398115 -16.9646,10.316384 -4.99778,1.313377 -17.81997,1.202337 -22.88232,-0.198158 -13.36405,-3.697152 -20.56577,-12.158214 -18.95033,-22.264128 0.82784,-5.178834 3.8526,-9.453686 8.87634,-12.544829 l 2.36655,-1.456148 -2.34352,-2.05005 c -2.58207,-2.258734 -3.98045,-4.274644 -5.20748,-7.507144 l -0.80984,-2.133446 -7.1411,16.79276 c -3.9276,9.236019 -8.64058,20.321443 -10.47328,24.634278 l -3.33219,7.841517 h -12.30198 c -6.76609,0 -12.30198,-0.17197 -12.30198,-0.38216 0,-0.21019 4.86528,-11.006906 10.81173,-23.992702 5.94646,-12.985799 10.91969,-23.873876 11.05162,-24.19573 0.18897,-0.46098 -2.95045,-0.585188 -14.79101,-0.585188 H 336.92776 V 12.200444 1.4329873 h 31.13199 c 17.55532,0 31.132,0.1792277 31.132,0.4109779 0,0.2260379 -0.31601,1.1672759 -0.70223,2.09164 -0.38622,0.9243639 -0.70222,1.7887763 -0.70222,1.9209154 0,0.1321397 1.31667,-0.4811868 2.92593,-1.3629475 5.27056,-2.8878789 9.38595,-3.76152832 17.67268,-3.75170685 5.51803,0.00654 7.98529,0.20997148 10.2993,0.84920195 4.53385,1.2524451 9.47511,3.8540251 12.09982,6.3705679 2.22222,2.1306489 4.75359,6.2346209 4.75359,7.7067429 0,1.478317 0.90036,1.123087 2.02728,-0.799847 5.41507,-9.2401312 14.72087,-14.37184523 26.06174,-14.37184523 14.31585,0 24.93992,7.84472173 29.6975,21.92838823 l 1.00272,2.968302 0.85794,-2.734227 c 2.66397,-8.490088 8.48122,-15.6256265 15.56759,-19.0954815 8.58028,-4.20135266 20.50041,-4.07806359 28.86157,0.2985134 4.31034,2.2562056 9.9557,8.0982421 12.35526,12.7856901 6.21044,12.131877 6.24,27.692487 0.0753,39.663485 -6.96689,13.528836 -22.71358,19.454097 -38.18092,14.366951 -8.15054,-2.68068 -14.95253,-9.830617 -18.27512,-19.209966 l -1.2639,-3.567853 -1.46228,3.887403 c -2.74016,7.284545 -6.65919,12.386718 -12.32935,16.05152 -5.67055,3.66505 -14.13485,5.416237 -21.35378,4.417902 z M 421.83347,54.156625 c 5.42879,-2.268296 4.43492,-9.148364 -1.52819,-10.578893 -2.90842,-0.697719 -5.56549,-0.03828 -7.45362,1.849854 -1.76101,1.76101 -2.11115,3.541372 -1.10587,5.623152 1.62207,3.3591 6.14718,4.752329 10.08768,3.105887 z m 55.76758,-3.755034 c 5.11481,-3.351357 6.64032,-17.711165 2.63698,-24.822195 -3.37885,-6.001741 -11.10535,-5.284249 -13.81124,1.282527 -1.21393,2.946029 -1.75526,8.913837 -1.21694,13.415854 0.65635,5.488946 2.30248,8.761244 5.14329,10.224181 2.39619,1.233969 5.27223,1.194139 7.24791,-0.100367 z m 60.46936,0.219904 c 3.65645,-1.660252 5.38849,-6.248386 5.41388,-14.341322 0.0299,-9.534876 -2.9813,-14.716723 -8.552,-14.716723 -2.9839,0 -4.98904,1.196728 -6.53214,3.898591 -3.36479,5.891521 -2.91424,18.869544 0.80867,23.293974 2.32555,2.763763 5.43953,3.419295 8.86159,1.86548 z m -96.11659,-16.759786 0.29145,-2.916625 -1.98149,1.512503 c -1.08982,0.831877 -2.00723,1.723023 -2.03869,1.980324 -0.0434,0.354608 3.12526,2.582299 3.38577,2.380356 0.0283,-0.02196 0.18267,-1.352415 0.34296,-2.956558 z m -18.93241,-9.679365 c 1.76329,-1.689335 2.10719,-3.133905 1.24012,-5.209109 -0.52179,-1.248808 -1.23494,-1.900928 -2.86959,-2.624013 -3.01639,-1.33429 -5.8868,-0.89349 -8.01043,1.230139 -2.36304,2.363045 -1.94209,5.276697 1.05669,7.313917 2.12996,1.446994 6.72838,1.066116 8.58321,-0.710934 z"
     id="path820"
     inkscape:connector-curvature="0" /></svg>