<?xml version="1.0" encoding="UTF-8" standalone="no"?>
<!-- Generator: Adobe Illustrator 16.0.3, SVG Export Plug-In . SVG Version: 6.00 Build 0)  -->

<svg
   xmlns:dc="http://purl.org/dc/elements/1.1/"
   xmlns:cc="http://creativecommons.org/ns#"
   xmlns:rdf="http://www.w3.org/1999/02/22-rdf-syntax-ns#"
   xmlns:svg="http://www.w3.org/2000/svg"
   xmlns="http://www.w3.org/2000/svg"
   xmlns:sodipodi="http://sodipodi.sourceforge.net/DTD/sodipodi-0.dtd"
   xmlns:inkscape="http://www.inkscape.org/namespaces/inkscape"
   version="1.1"
   id="Ebene_1"
   x="0px"
   y="0px"
   width="566.924px"
   height="121.752px"
   viewBox="0 0 566.924 121.752"
   enable-background="new 0 0 566.924 121.752"
   xml:space="preserve"
   sodipodi:docname="system.svg"
   inkscape:version="0.92.2 (5c3e80d, 2017-08-06)"><metadata
     id="metadata692"><rdf:RDF><cc:Work
         rdf:about=""><dc:format>image/svg+xml</dc:format><dc:type
           rdf:resource="http://purl.org/dc/dcmitype/StillImage" /></cc:Work></rdf:RDF></metadata><defs
     id="defs690" /><sodipodi:namedview
     pagecolor="#ffffff"
     bordercolor="#666666"
     borderopacity="1"
     objecttolerance="10"
     gridtolerance="10"
     guidetolerance="10"
     inkscape:pageopacity="0"
     inkscape:pageshadow="2"
     inkscape:window-width="1366"
     inkscape:window-height="746"
     id="namedview688"
     showgrid="false"
     inkscape:zoom="2.1360887"
     inkscape:cx="283.46201"
     inkscape:cy="60.875999"
     inkscape:window-x="1912"
     inkscape:window-y="1072"
     inkscape:window-maximized="1"
     inkscape:current-layer="Ebene_1" /><g
     id="g685"><g
       id="_x23_ffffffff"><path
         d="M207.014,5.277c4.724-6.043,14.501-7.076,20.297-2.006c2.37,1.996,4.031,4.75,4.88,7.715    c10.73,36.92,21.508,73.822,32.223,110.746c-6.332,0.006-12.667-0.012-18.999,0.006c-2.987-10.18-5.903-20.377-8.852-30.566    c-12.246-0.025-24.485-0.006-36.73-0.012c-2.998,10.184-5.958,20.379-8.901,30.582c-6.298-0.021-12.596-0.004-18.895-0.01    c10.194-35.221,20.4-70.439,30.643-105.648C203.898,12.404,204.358,8.287,207.014,5.277 M218.193,27.902    c-4.49,15.295-8.889,30.619-13.354,45.922c8.9,0.043,17.796,0.016,26.692,0.016C227.078,58.527,222.647,43.215,218.193,27.902z"
         id="path652" /><path
         d="M340.411,6.072c3.301-4.787,9.681-7.109,15.296-5.631c5.142,1.184,9.075,5.615,10.434,10.604    c10.719,36.893,21.476,73.773,32.194,110.666c-6.342,0.049-12.679,0-19.02,0.025c-2.949-10.188-5.865-20.387-8.835-30.576    c-12.225,0.006-24.447-0.021-36.671,0.01c-2.922,10.195-5.935,20.367-8.856,30.563c-6.293,0.006-12.581-0.006-18.874,0.006    c10.188-35.414,20.497-70.797,30.768-106.186C337.923,12.357,338.339,8.834,340.411,6.072 M338.868,73.84    c8.863,0.012,17.722,0.006,26.584,0.006c-4.409-15.346-8.89-30.67-13.284-46.014C347.742,43.17,343.274,58.494,338.868,73.84z"
         id="path654" /><path
         d="M250.237,0.256c22.91,0,45.814,0,68.719,0c0,6.182,0,12.355,0,18.533c-8.436,0.006-16.865-0.01-25.296,0.006    c0,34.313,0.006,68.627-0.005,102.938c-6.039,0-12.083,0-18.122,0c0-34.311-0.005-68.625,0.005-102.938    c-8.436-0.016-16.866,0-25.301-0.006C250.237,12.611,250.232,6.438,250.237,0.256z"
         id="path656" /><path
         d="M418.475,1.01c1.74-0.602,3.598-0.807,5.436-0.764c7.223,0.025,14.446,0.006,21.667,0.01    c12.164,0.225,23.773,7.771,29.037,18.719c3.646,7.109,4.021,15.377,3.102,23.176c-0.634,8.164-4.058,16.328-10.334,21.74    c-3.314,2.953-7.443,4.744-10.992,7.375c-1.948,1.482-2.047,4.365-1.039,6.428c9.586,14.799,19.551,29.367,29.339,44.039    c-7.158,0.012-14.316-0.016-21.475,0.012c-9.37-14.074-18.643-28.219-27.976-42.313c-2.743-4.012-3.489-9.324-1.845-13.902    c1.281-3.512,4.35-6.08,7.768-7.406c6.525-2.49,12.958-6.4,16.572-12.559c2.749-4.627,2.606-10.336,1.37-15.4    c-1.45-6.574-7.855-11.746-14.624-11.52c-4.682,0.031-9.36-0.021-14.034,0.021c-2.116-0.049-4.107,1.791-4.08,3.934    c-0.022,33.047,0.011,66.096-0.01,99.141c-6.087-0.012-12.168,0-18.255-0.006c-0.012-35.576,0.011-71.154-0.012-106.73    C408.128,8.77,412.562,2.902,418.475,1.01z"
         id="path658" /><path
         d="M494.262,0.256c6.402,0,12.803,0,19.21,0c-0.006,40.496,0.012,80.986-0.012,121.482c-6.396-0.018-12.796,0-19.198-0.006    C494.262,81.236,494.262,40.746,494.262,0.256z"
         id="path660" /></g><g
       id="g675"><path
         d="M54.173,0.008c3.076-0.01,6.153,0,9.229-0.008c0.013,7.234,0,14.469,0.005,21.701c0.032,6.039-0.139,12.076-0.389,18.107    c-0.412,8.711-0.957,17.439-2.4,26.051c-0.991,5.936-3.044,11.662-5.592,17.098c-4.156,8.76-10.686,16.172-18.027,22.406    c-6.567,5.779-14.405,9.986-22.649,12.834c-4.664,1.605-9.463,2.844-14.35,3.533c0.005-6.066,0.005-12.137,0-18.203    c5.883-0.883,11.538-2.971,16.791-5.73c6.233-3.295,11.844-7.729,16.566-12.953c4.877-5.395,8.764-11.641,11.714-18.273    c3.474-7.625,5.333-15.861,6.597-24.109c1.584-10.482,2.244-21.088,2.489-31.684C54.192,7.188,54.162,3.596,54.173,0.008z"
         id="path663" /><path
         d="M67.116,0.02c5.662-0.037,11.328-0.006,16.992-0.016c0.002,40.574,0.002,81.15,0,121.727    c-5.65,0.012-11.303-0.027-16.953,0.021c-0.072-12.938-0.01-25.879-0.03-38.816C67.118,55.295,67.136,27.658,67.116,0.02z"
         id="path665" /><path
         d="M87.888,0.004c3.06-0.002,6.118-0.008,9.176,0.002c-0.099,12.371,0.322,24.766,1.797,37.057    c1.207,9.547,2.909,19.164,6.711,28.059c3.605,8.605,8.801,16.604,15.572,23.051c6.466,6.166,14.302,10.906,22.815,13.635    c2.375,0.76,4.805,1.355,7.274,1.715c-0.003,6.064-0.006,12.129,0,18.191c-4.852-0.658-9.61-1.908-14.24-3.482    c-5.514-1.918-10.847-4.402-15.745-7.588c-3.576-2.301-6.828-5.053-9.952-7.924c-5.149-4.748-9.758-10.146-13.219-16.256    c-2.708-4.758-4.683-9.9-6.23-15.145c-1.418-5.271-2.023-10.717-2.573-16.135c-1.064-11.709-1.462-23.477-1.386-35.23    C87.888,13.305,87.886,6.652,87.888,0.004z"
         id="path667" /><path
         d="M54.173,0.008c-0.01,3.588,0.02,7.18-0.016,10.77c-0.245,10.596-0.904,21.201-2.489,31.684    c-1.264,8.248-3.124,16.484-6.597,24.109c-2.95,6.635-6.837,12.879-11.714,18.273c-4.722,5.227-10.333,9.658-16.566,12.953    c-5.253,2.762-10.908,4.848-16.791,5.73c0.005,6.066,0.005,12.137,0,18.203c4.887-0.689,9.686-1.928,14.35-3.533    c8.244-2.848,16.082-7.055,22.649-12.834c7.341-6.234,13.871-13.646,18.027-22.406c2.547-5.436,4.601-11.162,5.592-17.098    c1.443-8.611,1.989-17.34,2.4-26.051c0.25-6.031,0.421-12.068,0.389-18.107C63.402,14.469,63.415,7.234,63.402,0    C60.325,0.008,57.249-0.002,54.173,0.008"
         id="path669" /><path
         d="M67.116,0.02c0.02,27.641,0.002,55.275,0.01,82.916c0.02,12.938-0.042,25.879,0.03,38.816    c5.65-0.051,11.302-0.012,16.953-0.021c0.002-40.574,0.002-81.15,0-121.727C78.444,0.014,72.778-0.018,67.116,0.02"
         id="path671" /><path
         d="M87.888,0.004c-0.002,6.648,0,13.301,0,19.949c-0.076,11.754,0.322,23.521,1.386,35.23    c0.55,5.418,1.155,10.863,2.573,16.135c1.547,5.244,3.522,10.387,6.23,15.145c3.46,6.109,8.07,11.508,13.219,16.256    c3.124,2.871,6.376,5.623,9.952,7.922c4.898,3.188,10.231,5.672,15.745,7.59c4.63,1.574,9.388,2.824,14.24,3.482    c-0.006-6.063-0.003-12.127,0-18.191c-2.47-0.359-4.899-0.955-7.274-1.715c-8.513-2.729-16.35-7.469-22.815-13.635    c-6.771-6.447-11.967-14.445-15.572-23.051c-3.802-8.895-5.504-18.512-6.711-28.061c-1.475-12.289-1.896-24.684-1.797-37.055    C94.007-0.004,90.948,0.002,87.888,0.004"
         id="path673" /></g><path
       d="M562.213,99.303h3.963v22.449l-18.669-15.213c-1.751-1.43-3.919-3.09-6.225-3.09c-3.641,0-6.637,3.229-6.637,6.822   c0,3.551,2.856,6.455,6.358,6.686v4.334c-6.177-0.691-10.324-4.703-10.324-11.02c0-5.898,4.379-10.971,10.418-10.971   c2.582,0,5.164,0.969,7.146,2.58l13.969,11.434L562.213,99.303L562.213,99.303z"
       id="path677" /><path
       d="M532.8,79.432l12.538,9.266l0.095-0.092c-0.509-1.016-0.83-2.166-0.83-3.412c0-5.715,5.302-10.049,10.88-10.049   c6.36,0,11.433,5.164,11.433,11.479c0,5.992-4.979,11.572-11.108,11.572c-3.506,0-6.454-1.752-9.176-3.779l-15.949-11.85   L532.8,79.432z M555.943,79.293c-4.334,0-7.469,3.688-7.469,7.375c0,3.781,3.458,7.377,7.236,7.377c4.013,0,7.332-3.41,7.332-7.377   C563.044,82.795,559.815,79.293,555.943,79.293z"
       id="path679" /><path
       d="M530.68,56.256c0,9.955,8.162,18.053,18.195,18.053c9.953,0,18.049-8.098,18.049-18.053   c0-10.242-7.96-18.268-18.121-18.268C538.641,37.988,530.68,46.014,530.68,56.256z M548.876,42.256   c7.854,0,14.003,6.248,14.003,14.223c0,7.479-6.281,13.563-14.003,13.563c-7.801,0-14.147-6.084-14.147-13.563   C534.728,48.369,540.81,42.256,548.876,42.256z"
       id="path681" /><path
       d="M530.68,18.299c0,9.953,8.162,18.051,18.195,18.051c9.953,0,18.049-8.098,18.049-18.051c0-10.244-7.96-18.27-18.121-18.27   C538.641,0.029,530.68,8.055,530.68,18.299z M548.876,4.297c7.854,0,14.003,6.246,14.003,14.223   c0,7.479-6.281,13.563-14.003,13.563c-7.801,0-14.147-6.084-14.147-13.563C534.728,10.412,540.81,4.297,548.876,4.297z"
       id="path683" /></g><path
     style="fill:#ffffff;stroke-width:0.46814534"
     d="m 0.32770174,112.60931 v -8.92699 l 1.28739966,-0.2712 c 0.7080699,-0.14916 3.2887211,-0.8825 5.7347805,-1.62965 C 25.872135,96.123837 41.390222,79.830699 48.018745,59.081402 51.850805,47.085884 54.149581,28.332213 54.159786,8.9820881 l 0.0046,-8.77772519 h 4.499144 4.499139 L 62.925621,23.728666 C 62.573383,58.679452 61.224245,69.00466 55.315426,81.970699 49.962657,93.716578 38.554451,105.71025 25.888599,112.9077 c -6.006775,3.41339 -16.6467297,7.16038 -23.5712795,8.3009 l -1.98961776,0.32771 z"
     id="path694"
     inkscape:connector-curvature="0" /><path
     style="fill:#ffffff;stroke-width:0.46814534"
     d="M 67.272486,60.829185 V 0.20436291 h 8.426616 8.426616 V 60.829185 121.45401 h -8.426616 -8.426616 z"
     id="path696"
     inkscape:connector-curvature="0" /><path
     style="fill:#ffffff;stroke-width:0.46814534"
     d="M 145.59761,120.50891 C 130.59075,117.11894 118.84902,110.4534 107.97103,99.149058 96.258441,86.97741 91.208257,74.632928 89.29602,53.500557 c -0.789061,-8.72 -1.405006,-26.258959 -1.415465,-40.305161 l -0.0097,-12.99103309 h 4.387783 4.387783 L 96.969319,10.620597 c 1.186625,38.281911 6.110001,56.4902 19.715251,72.913637 7.69268,9.286131 19.26153,16.527926 30.99188,19.400076 l 3.39405,0.83103 v 8.84433 c 0,10.16506 0.61677,9.27486 -5.47289,7.89924 z"
     id="path698"
     inkscape:connector-curvature="0" /><path
     style="fill:#ffffff;stroke-width:0.46814534"
     d="m 172.60519,121.01695 c 0,-0.24039 7.28593,-25.572902 16.19096,-56.294481 12.75759,-44.012606 16.49335,-56.3331699 17.61699,-58.1009584 3.25769,-5.1252506 10.1002,-7.56570882 16.00509,-5.70839531 3.0567,0.96145181 6.31395,3.60892261 7.96852,6.47676271 0.83577,1.4486266 31.06825,103.877082 33.28982,112.786802 l 0.32352,1.29748 -9.25378,-0.12711 -9.25378,-0.12712 -3.59624,-12.40585 c -1.97793,-6.82322 -3.95359,-13.619586 -4.39035,-15.103045 l -0.79411,-2.697191 -18.5713,0.122392 -18.5713,0.122396 -3.8897,13.342138 c -2.13933,7.33818 -4.10638,14.13214 -4.37123,15.09769 l -0.48153,1.75555 h -9.11079 c -5.32978,0 -9.11079,-0.18139 -9.11079,-0.43706 z M 231.5915,73.696178 c 0,-0.346282 -9.67467,-34.04901 -12.95447,-45.128244 -0.21111,-0.713151 -0.33947,-0.760817 -0.6303,-0.234072 -0.51881,0.939672 -13.09951,44.288148 -13.09951,45.136123 0,0.606618 1.80197,0.701342 13.34214,0.701342 8.71373,0 13.34214,-0.164829 13.34214,-0.475149 z"
     id="path700"
     inkscape:connector-curvature="0" /><path
     style="fill:#ffffff;stroke-width:0.46814534"
     d="M 275.59716,69.958019 V 18.462031 H 262.95724 250.31732 V 9.5672698 0.67250825 h 34.17461 34.17461 V 9.5672698 18.462031 h -12.63993 -12.63992 v 51.495988 51.495991 h -8.89476 -8.89477 z"
     id="path702"
     inkscape:connector-curvature="0" /><path
     style="fill:#ffffff;stroke-width:0.46814534"
     d="m 306.66667,120.64477 c 0.13275,-0.4561 2.06031,-7.14923 4.28346,-14.87363 15.82032,-54.968149 28.05271,-96.6419335 28.78085,-98.051711 0.47248,-0.9147869 1.6669,-2.4309089 2.65426,-3.3691593 6.79803,-6.4598565 17.20848,-5.01509583 21.90237,3.0396083 0.93125,1.5980118 33.49549,112.082842 33.49549,113.644382 0,0.26334 -3.68482,0.38866 -9.19221,0.31261 l -9.19221,-0.12694 -4.32451,-14.98065 -4.32451,-14.980648 -18.53613,-0.122396 -18.53614,-0.122392 -0.95159,3.165336 c -0.52337,1.740939 -2.50271,8.53731 -4.39854,15.10305 l -3.44695,11.9377 -9.2275,0.12705 c -8.64243,0.119 -9.2122,0.0745 -8.98614,-0.70221 z m 58.8144,-46.98154 c 0,-0.742268 -12.65914,-44.544868 -13.10483,-45.344781 -0.25719,-0.46159 -0.67969,0.357291 -1.32846,2.574799 -4.8087,16.436287 -12.25099,42.446063 -12.25099,42.815514 0,0.293836 4.8668,0.462565 13.34214,0.462565 9.28207,0 13.34214,-0.154614 13.34214,-0.508097 z"
     id="path704"
     inkscape:connector-curvature="0" /><path
     style="fill:#ffffff;stroke-width:0.46814534"
     d="m 408.40355,111.27185 c -0.16116,-5.60019 -0.24671,-30.195379 -0.1901,-54.655973 l 0.10292,-44.473808 1.23963,-2.6440669 c 1.43411,-3.0588795 4.1778,-5.984744 7.05052,-7.5186703 1.95911,-1.0460885 2.39042,-1.07625073 17.35364,-1.2135667 17.57939,-0.16132422 18.39729,-0.0500857 25.58308,3.479404 7.86005,3.8606736 13.80277,10.8392229 16.82411,19.7565899 1.14019,3.365237 1.21335,4.114714 1.17291,12.015723 -0.0489,9.562349 -0.7247,13.084414 -3.60951,18.812874 -2.74509,5.451019 -5.31984,8.147593 -11.94184,12.506845 -3.27396,2.155248 -6.26169,4.291002 -6.63941,4.746114 -0.38664,0.465875 -0.68674,1.779504 -0.68674,3.00605 0,2.079174 0.66213,3.168576 14.5125,23.877322 7.98188,11.934313 14.58273,21.876183 14.66856,22.093033 0.0858,0.21686 -4.50295,0.39429 -10.19728,0.39429 h -10.35333 l -13.8673,-20.94951 c -7.62702,-11.522224 -14.39697,-21.960859 -15.04433,-23.196959 -1.73053,-3.304339 -1.97538,-8.616824 -0.54988,-11.930488 1.45754,-3.388136 3.70287,-5.21321 10.37815,-8.435656 7.25427,-3.501952 11.69082,-7.339831 14.06678,-12.168607 1.47281,-2.993249 1.53471,-3.342019 1.51088,-8.513013 -0.0312,-6.762784 -1.06385,-9.80219 -4.49683,-13.235178 -3.92243,-3.922428 -5.26597,-4.303981 -15.78235,-4.482041 -9.83647,-0.166548 -10.85246,-0.0557 -12.24398,1.335817 -0.90895,0.908949 -0.92439,1.764673 -0.92439,51.250007 v 50.325628 h -8.82169 -8.82169 z"
     id="path706"
     inkscape:connector-curvature="0" /><path
     style="fill:#ffffff;stroke-width:0.46814534"
     d="M 494.68918,61.063258 V 0.67250825 h 9.36291 9.36291 V 61.063258 121.45401 h -9.36291 -9.36291 z"
     id="path708"
     inkscape:connector-curvature="0" /><path
     style="fill:#ffffff;stroke-width:0.46814534"
     d="m 544.32394,73.420848 c -8.90449,-2.392854 -14.81525,-11.537252 -13.1319,-20.316061 2.2561,-11.765765 14.56191,-18.146462 25.24939,-13.092085 5.19319,2.455992 8.73207,7.097954 9.88713,12.968992 1.84975,9.402121 -4.38703,18.631343 -13.9635,20.663261 -3.17998,0.674721 -4.87178,0.62757 -8.04112,-0.224107 z m 10.52192,-4.584355 c 3.21796,-1.470377 4.95107,-3.046241 6.57559,-5.978966 1.22748,-2.215943 1.38288,-2.943656 1.38288,-6.475723 0,-3.19647 -0.20994,-4.405362 -1.06728,-6.145476 -3.45843,-7.019541 -11.89927,-10.094741 -18.85423,-6.86905 -8.68928,4.030062 -11.09103,14.91358 -4.82828,21.879267 4.50116,5.006368 10.762,6.344922 16.79132,3.589948 z"
     id="path710"
     inkscape:connector-curvature="0" /><path
     style="fill:#ffffff;stroke-width:0.46814534"
     d="m 545.27009,35.740169 c -3.49251,-0.68462 -6.81059,-2.623117 -9.54459,-5.576158 -8.22216,-8.88092 -5.47824,-22.9977936 5.46556,-28.1190123 8.57327,-4.0119184 18.81997,-0.7457206 23.12749,7.3720292 5.68985,10.7228241 0.33232,23.0720011 -11.32659,26.1079641 -3.04935,0.794046 -4.55483,0.835997 -7.72187,0.215177 z m 9.61626,-4.862139 c 8.20122,-3.646031 10.66467,-13.905057 5.13522,-21.3856396 -3.62584,-4.90527 -11.35218,-6.7377783 -17.14458,-4.0662983 -8.67667,4.0017139 -11.08434,14.9359449 -4.82245,21.9006799 2.54186,2.827153 4.80547,4.099639 8.2322,4.627716 3.29181,0.507284 5.72125,0.203177 8.59961,-1.076458 z"
     id="path712"
     inkscape:connector-curvature="0" /><path
     style="fill:#ffffff;stroke-width:0.46814534"
     d="m 552.45659,97.409158 c -1.05662,-0.345196 -2.95261,-1.331665 -4.21331,-2.192154 -4.35083,-2.969656 -17.03873,-12.641964 -17.02835,-12.981147 0.006,-0.187072 0.37681,-0.816134 0.82463,-1.397915 l 0.81422,-1.057785 6.03235,4.451838 c 3.31779,2.448511 6.1923,4.451838 6.3878,4.451838 0.1955,0 0.12471,-0.751862 -0.15732,-1.670805 -1.10684,-3.606395 1.28125,-8.239634 5.29534,-10.273725 8.3213,-4.216723 17.96435,3.152492 15.94323,12.183811 -1.43804,6.425842 -7.97944,10.419818 -13.89859,8.486044 z m 7.24124,-4.386548 c 2.23762,-1.657061 3.34057,-3.785152 3.34057,-6.445431 0,-8.721341 -12.1641,-10.161409 -14.49596,-1.716129 -0.88202,3.194435 1.19886,7.352558 4.40763,8.807543 1.85089,0.839266 5.17141,0.521383 6.74776,-0.645983 z"
     id="path714"
     inkscape:connector-curvature="0" /><path
     style="fill:#ffffff;stroke-width:0.46814534"
     d="m 537.29041,120.01023 c -5.19714,-2.35616 -7.47031,-7.33651 -5.86656,-12.85321 1.85094,-6.36702 8.6878,-9.419024 14.45936,-6.45472 0.80978,0.41591 4.77879,3.46453 8.82002,6.77472 4.04123,3.31018 7.46454,6.01852 7.60736,6.01852 0.14282,0 0.25967,-3.15998 0.25967,-7.02218 v -7.022184 h 1.63851 1.63851 v 10.824664 c 0,8.59144 -0.12073,10.73035 -0.58518,10.36752 -0.32185,-0.25143 -4.78258,-3.873 -9.91273,-8.04794 -10.47551,-8.52502 -12.22124,-9.61466 -14.84092,-9.26328 -6.86211,0.9204 -8.20104,10.59597 -1.81964,13.1493 1.75523,0.70231 1.87862,0.87492 1.87862,2.62805 0,2.17269 -0.29348,2.25335 -3.27702,0.90074 z"
     id="path716"
     inkscape:connector-curvature="0" /></svg>