<?xml version="1.0" encoding="UTF-8" standalone="no"?>
<!-- Created with Inkscape (http://www.inkscape.org/) -->

<svg
   xmlns:dc="http://purl.org/dc/elements/1.1/"
   xmlns:cc="http://creativecommons.org/ns#"
   xmlns:rdf="http://www.w3.org/1999/02/22-rdf-syntax-ns#"
   xmlns:svg="http://www.w3.org/2000/svg"
   xmlns="http://www.w3.org/2000/svg"
   xmlns:sodipodi="http://sodipodi.sourceforge.net/DTD/sodipodi-0.dtd"
   xmlns:inkscape="http://www.inkscape.org/namespaces/inkscape"
   version="1.0"
   width="750.54327"
   height="115.8307"
   id="svg101576"
   sodipodi:docname="system.svg"
   inkscape:version="0.92.2 (5c3e80d, 2017-08-06)">
  <metadata
     id="metadata6230">
    <rdf:RDF>
      <cc:Work
         rdf:about="">
        <dc:format>image/svg+xml</dc:format>
        <dc:type
           rdf:resource="http://purl.org/dc/dcmitype/StillImage" />
      </cc:Work>
    </rdf:RDF>
  </metadata>
  <sodipodi:namedview
     pagecolor="#ffffff"
     bordercolor="#666666"
     borderopacity="1"
     objecttolerance="10"
     gridtolerance="10"
     guidetolerance="10"
     inkscape:pageopacity="0"
     inkscape:pageshadow="2"
     inkscape:window-width="1366"
     inkscape:window-height="746"
     id="namedview6228"
     showgrid="false"
     inkscape:zoom="0.80674895"
     inkscape:cx="1074.3298"
     inkscape:cy="-111.38124"
     inkscape:window-x="1912"
     inkscape:window-y="1072"
     inkscape:window-maximized="1"
     inkscape:current-layer="svg101576" />
  <defs
     id="defs101578" />
  <g
     transform="translate(-35.53469,-263.1837)"
     id="layer1">
    <g
       transform="translate(7.088693,7.080902)"
       id="g101650">
      <path
         d="M 487.38946,354.59939 C 487.38946,355.67865 486.50444,356.64997 485.41436,356.64997 L 447.61769,356.64997 C 446.51682,356.64997 445.6318,355.67865 445.6318,354.59939 L 445.6318,327.29336 C 445.6318,326.2141 446.51682,325.35065 447.61769,325.35065 L 485.41436,325.35065 C 486.50444,325.35065 487.38946,326.2141 487.38946,327.29336 L 487.38946,354.59939 z M 485.74894,317.1481 L 447.27232,317.1481 C 441.70319,317.1481 437.15939,321.6811 437.15939,327.29336 L 437.15939,354.70725 C 437.15939,360.21165 441.70319,364.8526 447.27232,364.8526 L 485.74894,364.8526 C 491.32886,364.8526 495.86187,360.21165 495.86187,354.70725 L 495.86187,327.29336 C 495.86187,321.6811 491.32886,317.1481 485.74894,317.1481"
         style="fill:#929497;fill-rule:nonzero;stroke:none"
         id="path100608" />
      <path
         d="M 44.363266,276.13513 C 44.363266,276.13513 44.363266,310.88819 44.363266,311.42782 C 43.899172,311.42782 36.009577,311.42782 35.534688,311.42782 C 35.534688,310.88819 35.534688,264.26295 35.534688,263.72332 C 36.031156,263.72332 42.852263,263.72332 43.078909,263.72332 L 78.835728,298.47639 C 78.835728,298.47639 78.835728,264.26295 78.835728,263.72332 C 79.321402,263.72332 85.90506,263.72332 85.90506,263.72332 C 85.90506,263.72332 87.157035,263.72332 87.545578,263.72332 C 87.545578,264.26295 87.545578,310.88819 87.545578,311.42782 C 87.070698,311.42782 80.886377,311.42782 80.648928,311.42782 L 44.363266,276.13513"
         style="fill:#221f1f;fill-rule:nonzero;stroke:none"
         id="path100618" />
      <path
         d="M 132.87569,276.13513 C 132.87569,276.13513 132.87569,310.88819 132.87569,311.42782 C 132.4008,311.42782 124.53278,311.42782 124.04711,311.42782 C 124.04711,310.88819 124.04711,264.26295 124.04711,263.72332 C 124.54358,263.72332 131.35389,263.72332 131.58053,263.72332 L 167.33735,298.47639 C 167.33735,298.47639 167.33735,264.26295 167.33735,263.72332 C 167.82304,263.72332 174.41748,263.72332 174.41748,263.72332 C 174.41748,263.72332 175.68025,263.72332 176.05801,263.72332 C 176.05801,264.26295 176.05801,310.88819 176.05801,311.42782 C 175.57232,311.42782 169.3988,311.42782 169.16135,311.42782 L 132.87569,276.13513"
         style="fill:#221e1f;fill-rule:nonzero;stroke:none;stroke-width:0.05;stroke-linecap:butt;stroke-linejoin:miter;stroke-miterlimit:4;stroke-dasharray:none"
         id="path100622" />
      <path
         d="M 316.32229,276.13513 C 316.32229,276.13513 316.32229,310.88819 316.32229,311.42782 C 315.83661,311.42782 307.97939,311.42782 307.49371,311.42782 C 307.49371,310.88819 307.49371,264.26295 307.49371,263.72332 C 307.99019,263.72332 314.81128,263.72332 315.02714,263.72332 L 350.78396,298.47639 C 350.78396,298.47639 350.78396,264.26295 350.78396,263.72332 C 351.26964,263.72332 357.86409,263.72332 357.86409,263.72332 C 357.86409,263.72332 359.12686,263.72332 359.50461,263.72332 C 359.50461,264.26295 359.50461,310.88819 359.50461,311.42782 C 359.01892,311.42782 352.8454,311.42782 352.61875,311.42782 L 316.32229,276.13513"
         style="fill:#221e1f;fill-rule:nonzero;stroke:none;stroke-width:0.05;stroke-linecap:butt;stroke-linejoin:miter;stroke-miterlimit:4;stroke-dasharray:none"
         id="path100626" />
      <path
         d="M 108.57011,263.72332 C 108.57011,263.72332 109.82209,263.72332 110.19984,263.72332 C 110.19984,264.26295 110.19984,310.88819 110.19984,311.42782 C 109.73574,311.42782 101.84615,311.42782 101.37126,311.42782 C 101.37126,310.88819 101.37126,264.26295 101.37126,263.72332 C 101.85694,263.72332 108.57011,263.72332 108.57011,263.72332"
         style="fill:#221e1f;fill-rule:nonzero;stroke:none;stroke-width:0.05;stroke-linecap:butt;stroke-linejoin:miter;stroke-miterlimit:4;stroke-dasharray:none"
         id="path100630" />
      <path
         d="M 236.18514,263.72332 C 236.18514,263.72332 237.41553,263.72332 237.80407,263.72332 C 237.80407,264.15501 237.80407,271.49418 237.80407,271.92587 C 237.28602,271.92587 216.52052,271.92587 216.52052,271.92587 C 216.52052,271.92587 216.52052,310.88819 216.52052,311.42782 C 216.04563,311.42782 207.82145,311.42782 207.34656,311.42782 C 207.34656,310.88819 207.34656,271.92587 207.34656,271.92587 C 207.34656,271.92587 186.58106,271.92587 186.063,271.92587 C 186.063,271.49418 186.063,264.15501 186.063,263.72332 C 186.59185,263.72332 236.18514,263.72332 236.18514,263.72332"
         style="fill:#221e1f;fill-rule:nonzero;stroke:none;stroke-width:0.05;stroke-linecap:butt;stroke-linejoin:miter;stroke-miterlimit:4;stroke-dasharray:none"
         id="path100634" />
      <path
         d="M 292.73985,263.72332 C 292.73985,263.72332 294.0134,263.72332 294.39115,263.72332 C 294.39115,264.15501 294.39115,271.49418 294.39115,271.92587 C 293.88389,271.92587 256.55131,271.92587 256.55131,271.92587 L 256.55131,282.61084 C 256.55131,282.61084 285.32513,282.61084 285.82161,282.61084 C 285.82161,283.15047 285.82161,290.27376 285.82161,290.81347 C 285.32513,290.81347 256.55131,290.81347 256.55131,290.81347 L 256.55131,303.22527 C 256.55131,303.22527 293.88389,303.22527 294.39115,303.22527 C 294.39115,303.65696 294.39115,310.88819 294.39115,311.42782 C 293.88389,311.42782 248.31635,311.42782 247.80908,311.42782 C 247.80908,310.88819 247.80908,264.26295 247.80908,263.72332 C 248.31635,263.72332 292.73985,263.72332 292.73985,263.72332"
         style="fill:#221e1f;fill-rule:nonzero;stroke:none;stroke-width:0.05;stroke-linecap:butt;stroke-linejoin:miter;stroke-miterlimit:4;stroke-dasharray:none"
         id="path100638" />
      <path
         d="M 408.59063,303.22527 L 381.47891,303.22527 L 381.47891,271.92587 L 408.59063,271.92587 C 417.07383,271.92587 420.08505,280.3443 420.08505,287.57553 C 420.08505,294.6989 417.07383,303.22527 408.59063,303.22527 z M 423.07468,270.73867 C 419.62096,266.09772 414.51592,263.72332 408.3424,263.72332 C 408.3424,263.72332 373.48139,263.72332 372.96333,263.72332 C 372.96333,264.26295 372.96333,310.88819 372.96333,311.42782 C 373.48139,311.42782 408.3424,311.42782 408.3424,311.42782 C 414.51592,311.42782 419.62096,308.94547 423.07468,304.41247 C 426.31254,300.20321 428.02861,294.37507 428.02861,287.57553 C 428.02861,280.77607 426.31254,274.94793 423.07468,270.73867"
         style="fill:#221e1f;fill-rule:nonzero;stroke:none;stroke-width:0.05;stroke-linecap:butt;stroke-linejoin:miter;stroke-miterlimit:4;stroke-dasharray:none"
         id="path100642" />
      <path
         d="M 487.38946,301.28256 C 487.38946,302.25387 486.50444,303.22527 485.41436,303.22527 L 447.61769,303.22527 C 446.51682,303.22527 445.6318,302.25387 445.6318,301.28256 L 445.6318,273.86858 C 445.6318,272.78933 446.51682,271.92587 447.61769,271.92587 L 485.41436,271.92587 C 486.50444,271.92587 487.38946,272.78933 487.38946,273.86858 L 487.38946,301.28256 z M 485.74894,263.72332 L 447.27232,263.72332 C 441.70319,263.72332 437.15939,268.25633 437.15939,273.86858 L 437.15939,301.28256 C 437.15939,306.89482 441.70319,311.42782 447.27232,311.42782 L 485.74894,311.42782 C 491.32886,311.42782 495.86187,306.89482 495.86187,301.28256 L 495.86187,273.86858 C 495.86187,268.25633 491.32886,263.72332 485.74894,263.72332"
         style="fill:#221e1f;fill-rule:nonzero;stroke:none;stroke-width:0.05;stroke-linecap:butt;stroke-linejoin:miter;stroke-miterlimit:4;stroke-dasharray:none"
         id="path100646" />
      <path
         d="M 646.02323,344.66994 C 655.17559,348.33948 674.50562,351.25359 689.59407,351.25359 C 706.10718,351.25359 712.93911,345.64125 712.93911,338.51796 C 712.93911,332.04225 706.59284,328.37262 688.36369,321.6811 C 663.98256,312.72296 646.09878,305.59967 646.09878,289.51824 C 646.09878,273.00521 667.61981,263.1837 700.41936,263.1837 C 718.03333,263.1837 724.07736,264.26295 735.25878,266.31361 L 735.34513,282.07121 C 724.35792,280.02056 714.62276,276.45887 699.50193,276.45887 C 683.29106,276.45887 676.38357,281.63944 676.38357,286.92796 C 676.38357,294.59096 687.02537,298.2605 705.68629,304.9521 C 731.66471,314.23399 746.11638,321.35727 746.11638,337.00693 C 746.11638,353.19631 728.01676,364.8526 687.19808,364.8526 C 670.43669,364.8526 658.87755,363.77334 646.02323,361.61474 L 646.02323,344.66994"
         style="fill:#221e1f;fill-rule:nonzero;stroke:none;stroke-width:0.05;stroke-linecap:butt;stroke-linejoin:miter;stroke-miterlimit:4;stroke-dasharray:none"
         id="path100656" />
      <path
         d="M 559.14054,277.10644 L 539.71335,277.10644 L 539.71335,350.71396 L 559.14054,350.71396 C 588.96126,350.71396 607.77326,337.87039 607.77326,314.0181 C 607.77326,290.1659 588.96126,277.10644 559.14054,277.10644 z M 611.28094,357.51342 C 601.67528,361.83062 583.50007,364.63671 567.61295,364.63671 L 506.89219,364.63671 L 506.89219,263.3995 L 567.61295,263.3995 C 583.50007,263.3995 601.67528,266.20567 611.30253,270.52278 C 634.69071,281.09981 642.31048,298.0447 642.31048,314.0181 C 642.31048,329.99159 634.75547,346.93639 611.28094,357.51342"
         style="fill:#221e1f;fill-rule:nonzero;stroke:none;stroke-width:0.05;stroke-linecap:butt;stroke-linejoin:miter;stroke-miterlimit:4;stroke-dasharray:none"
         id="path100660" />
      <path
         d="M 752.21438,349.52668 L 748.31815,349.52668 L 748.31815,348.12359 L 757.80513,348.12359 L 757.80513,349.52668 L 753.88732,349.52668 L 753.88732,360.85922 L 752.21438,360.85922 L 752.21438,349.52668"
         style="fill:#221e1f;fill-rule:nonzero;stroke:none;stroke-width:0.05;stroke-linecap:butt;stroke-linejoin:miter;stroke-miterlimit:4;stroke-dasharray:none"
         id="path100678" />
      <path
         d="M 769.96866,355.24697 C 769.87152,353.52005 769.76366,351.36154 769.76366,349.74256 L 769.72048,349.74256 C 769.26712,351.25359 768.74908,352.87248 768.10151,354.59939 L 765.84576,360.85922 L 764.59379,360.85922 L 762.50005,354.70725 C 761.89557,352.87248 761.39911,351.25359 761.04299,349.74256 L 760.99981,349.74256 C 760.96743,351.36154 760.87028,353.52005 760.76234,355.35482 L 760.41701,360.85922 L 758.84121,360.85922 L 759.73705,348.12359 L 761.84168,348.12359 L 764.02178,354.27557 C 764.55062,355.89454 764.9716,357.29754 765.31693,358.59277 L 765.34931,358.59277 C 765.69473,357.29754 766.148,355.89454 766.72001,354.27557 L 768.99735,348.12359 L 771.10189,348.12359 L 771.90058,360.85922 L 770.2709,360.85922 L 769.96866,355.24697"
         style="fill:#221e1f;fill-rule:nonzero;stroke:none;stroke-width:0.05;stroke-linecap:butt;stroke-linejoin:miter;stroke-miterlimit:4;stroke-dasharray:none"
         id="path100682" />
    </g>
  </g>
  <path
     style="fill:#ffffff;stroke-width:0.61977148"
     d="M 7.2513264,31.513086 V 7.9617698 H 10.872993 14.49466 L 32.410053,25.307751 50.325445,42.653732 50.49004,25.307751 50.654635,7.9617698 h 4.018862 4.018863 V 31.513086 55.064403 l -3.2538,-0.0271 -3.253801,-0.0271 L 34.211386,37.437372 16.238013,19.864548 16.073566,37.464476 15.909118,55.064403 H 11.580222 7.2513264 Z"
     id="path6232"
     inkscape:connector-curvature="0" />
  <path
     style="fill:#ffffff;stroke-width:0.61977148"
     d="M 72.947104,31.513086 V 7.9617698 h 4.338401 4.3384 V 31.513086 55.064403 h -4.3384 -4.338401 z"
     id="path6234"
     inkscape:connector-curvature="0" />
  <path
     style="fill:#ffffff;stroke-width:0.61977148"
     d="M 95.878649,31.513086 V 7.9617698 l 3.563687,0.00504 3.563684,0.00505 17.97337,17.4197972 17.97338,17.419797 0.16459,-17.424842 0.1646,-17.4248421 h 4.01886 4.01886 V 31.544015 55.126261 l -3.37429,-0.185872 -3.3743,-0.185872 -17.95405,-17.508544 c -9.87473,-9.6297 -18.1177,-17.508545 -18.31771,-17.508545 -0.20001,0 -0.36365,7.948569 -0.36365,17.663488 v 17.663487 h -4.028516 -4.028515 z"
     id="path6236"
     inkscape:connector-curvature="0" />
  <path
     style="fill:#ffffff;stroke-width:0.61977148"
     d="M 178.92803,35.231715 V 15.399028 H 168.39191 157.8558 V 11.680399 7.9617698 h 25.72052 25.72051 v 3.7186292 3.718629 h -10.846 -10.846 v 19.832687 19.832688 h -4.3384 -4.3384 z"
     id="path6238"
     inkscape:connector-curvature="0" />
  <path
     style="fill:#ffffff;stroke-width:0.61977148"
     d="M 219.83295,31.513086 V 7.9617698 h 22.93154 22.93155 v 3.7186292 3.718629 h -18.90303 -18.90303 v 5.577943 5.577943 h 14.56463 14.56463 v 4.028515 4.028515 h -14.56463 -14.56463 v 6.5076 6.507601 h 18.90303 18.90303 v 3.718629 3.718629 h -22.93155 -22.93154 z"
     id="path6240"
     inkscape:connector-curvature="0" />
  <path
     style="fill:#ffffff;stroke-width:0.61977148"
     d="M 279.33101,31.513086 V 7.9617698 l 3.56369,0.0027 3.56368,0.0027 17.97338,17.4398172 17.97337,17.439817 0.16459,-17.442514 0.1646,-17.4425122 h 4.01886 4.01886 V 31.544015 55.126261 l -3.37429,-0.185872 -3.3743,-0.185872 -17.95405,-17.508544 c -9.87473,-9.6297 -18.1177,-17.508545 -18.31771,-17.508545 -0.20001,0 -0.36365,7.948569 -0.36365,17.663488 v 17.663487 h -4.02851 -4.02852 z"
     id="path6242"
     inkscape:connector-curvature="0" />
  <path
     style="fill:#ffffff;stroke-width:0.61977148"
     d="M 345.02679,31.481686 V 7.8989699 l 20.29751,0.1863428 c 19.45098,0.1785712 20.40091,0.2423118 22.77661,1.5283127 7.98329,4.3214896 12.25181,14.7151326 10.79806,26.2928126 -0.76709,6.109126 -3.17467,11.159873 -6.92844,14.534837 -4.86686,4.375728 -6.37344,4.623128 -28.1532,4.623128 H 345.02679 Z M 382.96855,46.9801 c 5.67103,-1.575002 8.7261,-6.983854 8.73619,-15.467014 0.005,-4.10046 -0.29749,-5.953168 -1.36423,-8.359194 -3.23562,-7.29793 -4.89904,-7.841514 -23.31183,-7.61801 l -14.25475,0.173031 -0.16628,15.172695 c -0.0915,8.344982 -0.0305,15.526584 0.13549,15.959116 0.38114,0.99324 26.71373,1.114665 30.22541,0.139376 z"
     id="path6244"
     inkscape:connector-curvature="0" />
  <path
     style="fill:#ffffff;stroke-width:0.61977148"
     d="m 414.13131,53.669583 c -1.62496,-0.917167 -2.95953,-2.351125 -3.87357,-4.162055 -1.33336,-2.641698 -1.39449,-3.430455 -1.39449,-17.994442 0,-14.573981 0.0602,-15.349474 1.39449,-17.96071 0.76696,-1.500987 2.1819,-3.30319 3.1443,-4.0048944 1.69134,-1.2331873 2.51317,-1.2758261 24.59047,-1.2758261 22.10223,0 22.89598,0.041312 24.55218,1.2778378 0.94133,0.7028107 2.28655,2.0480237 2.98936,2.9893627 1.21905,1.632789 1.27784,2.505671 1.27784,18.97423 0,16.46856 -0.0588,17.341442 -1.27784,18.974231 -0.70281,0.941338 -2.0476,2.286552 -2.98843,2.989362 -1.64292,1.227293 -2.58525,1.284055 -23.82291,1.434998 -21.94966,0.156004 -22.13055,0.146867 -24.5914,-1.242094 z m 43.73463,-6.684015 c 1.13359,-0.606679 1.1988,-1.442753 1.1988,-15.370333 0,-10.629337 -0.207,-14.935755 -0.74372,-15.472482 -1.06383,-1.063823 -39.59319,-1.063823 -40.65701,0 -0.5367,0.536702 -0.74373,4.841147 -0.74373,15.463491 0,13.364987 0.0998,14.777907 1.0846,15.351487 1.48348,0.864047 38.25061,0.889723 39.86106,0.02783 z"
     id="path6246"
     inkscape:connector-curvature="0" />
  <path
     style="fill:#ffffff;stroke-width:0.61977148"
     d="M 478.89743,57.836477 V 7.2071427 l 36.41158,0.3106369 c 39.16241,0.3341052 43.73022,0.6456624 57.17391,3.8996764 16.62384,4.023758 30.60917,14.563272 36.96936,27.860555 5.53632,11.574816 5.28039,26.817203 -0.64794,38.589291 -4.58049,9.095649 -11.83217,15.879029 -22.99633,21.511296 -7.49664,3.782022 -12.66135,5.294142 -24.79086,7.258272 -7.38102,1.19521 -11.16403,1.32667 -45.08837,1.56681 l -37.03135,0.26213 z m 63.52658,36.246477 c 7.49997,-1.075738 12.21333,-2.463146 18.06217,-5.316704 9.30209,-4.538345 15.45869,-11.782897 17.86524,-21.022285 1.23524,-4.742398 1.23524,-15.038783 0,-19.78118 C 575.12013,35.557009 565.02547,26.766839 549.38149,22.7365 544.99473,21.606345 541.96988,21.383647 527.70443,21.140573 L 511.12555,20.858081 V 57.79393 94.729778 l 13.48003,-0.01227 c 7.41401,-0.0068 15.43231,-0.292297 17.81843,-0.634547 z"
     id="path6248"
     inkscape:connector-curvature="0" />
  <path
     style="fill:#ffffff;stroke-width:0.61977148"
     d="m 636.93916,107.72721 c -6.08579,-0.55941 -14.52752,-1.63066 -17.50854,-2.22182 l -1.70438,-0.33798 v -8.080077 -8.080066 l 1.39449,0.424308 c 12.46608,3.793125 24.32455,5.471337 39.20055,5.547668 9.7362,0.04995 12.40504,-0.133964 15.4097,-1.061948 7.68389,-2.373155 11.33327,-6.554325 10.77666,-12.347057 -0.57256,-5.958743 -5.29943,-8.929432 -27.99079,-17.59131 -16.10619,-6.148151 -23.57152,-9.714576 -29.10803,-13.905822 -4.94074,-3.740238 -7.5216,-7.366055 -8.80276,-12.3669 -3.55091,-13.860555 8.54231,-24.474751 32.89773,-28.8742939 4.8881,-0.8829825 9.53723,-1.1241938 22.00189,-1.1415273 14.9622,-0.020807 21.77401,0.4857563 29.90397,2.2238195 l 2.94392,0.6293647 v 7.385901 c 0,4.787438 -0.23103,7.385902 -0.65668,7.385902 -0.36116,0 -3.77765,-0.705949 -7.5922,-1.568775 -11.41619,-2.582273 -17.65245,-3.38428 -26.33598,-3.386905 -9.68379,-0.0029 -15.41232,1.095056 -19.61336,3.759278 -5.57545,3.535846 -5.91246,8.735268 -0.86195,13.298107 3.24644,2.932955 8.59076,5.39886 23.59895,10.888704 27.48091,10.052242 36.297,15.273737 40.59701,24.044371 2.32386,4.739907 2.38803,11.835342 0.14916,16.491797 -3.08827,6.423076 -10.90018,12.128671 -20.75073,15.155751 -9.6825,2.97544 -17.53726,3.88326 -35.32697,4.08292 -9.20361,0.10329 -19.38335,-0.0557 -22.62166,-0.35341 z"
     id="path6250"
     inkscape:connector-curvature="0" />
  <path
     style="fill:#ffffff;stroke-width:0.15494287"
     d="m 730.53937,103.5963 c 0.0521,-0.57522 0.23929,-3.24218 0.41594,-5.926563 0.17665,-2.684386 0.35352,-5.03758 0.39304,-5.229322 0.0653,-0.316655 0.16059,-0.348622 1.03965,-0.348622 h 0.9678 l 1.28484,3.679893 c 0.70666,2.023942 1.46292,4.307414 1.68058,5.074384 0.21766,0.76696 0.44724,1.45028 0.51018,1.51848 0.0629,0.0682 0.3412,-0.59419 0.61835,-1.47196 0.27716,-0.87777 1.09916,-3.217043 1.82668,-5.198375 l 1.32276,-3.602422 h 0.97317 0.97316 l 0.091,0.968393 c 0.0964,1.026236 0.70837,10.772264 0.70837,11.281984 0,0.25158 -0.11084,0.3 -0.6868,0.3 -0.52233,0 -0.7047,-0.0649 -0.76154,-0.27115 -0.0411,-0.14914 -0.1581,-2.18857 -0.25998,-4.532083 -0.10189,-2.343511 -0.23411,-4.714137 -0.29383,-5.268058 l -0.10858,-1.007128 -0.33878,1.0846 c -0.18633,0.59653 -1.05361,3.091098 -1.92729,5.543489 l -1.5885,4.45888 -0.61279,-0.043 -0.61279,-0.043 -1.42902,-4.24467 c -0.78597,-2.334573 -1.54755,-4.740062 -1.69242,-5.345531 -0.14486,-0.605469 -0.31614,-1.159032 -0.38063,-1.230141 -0.0645,-0.07111 -0.16299,0.730721 -0.2189,1.781843 -0.32778,6.161299 -0.41072,7.568979 -0.4892,8.302529 l -0.087,0.81345 h -0.70611 -0.70612 z"
     id="path6252"
     inkscape:connector-curvature="0" />
  <path
     style="fill:#ffffff;stroke-width:0.15494287"
     d="m 723.8221,98.986751 v -5.655415 h -1.93679 -1.93678 v -0.619771 -0.619772 h 4.64828 4.64829 v 0.619772 0.619771 h -1.93679 -1.93678 v 5.655415 5.655419 h -0.77472 -0.77471 z"
     id="path6254"
     inkscape:connector-curvature="0" />
</svg>
