<?xml version="1.0" encoding="UTF-8" standalone="no"?>
<!-- Generator: Adobe Illustrator 16.0.3, SVG Export Plug-In . SVG Version: 6.00 Build 0)  -->

<svg
   xmlns:dc="http://purl.org/dc/elements/1.1/"
   xmlns:cc="http://creativecommons.org/ns#"
   xmlns:rdf="http://www.w3.org/1999/02/22-rdf-syntax-ns#"
   xmlns:svg="http://www.w3.org/2000/svg"
   xmlns="http://www.w3.org/2000/svg"
   xmlns:sodipodi="http://sodipodi.sourceforge.net/DTD/sodipodi-0.dtd"
   xmlns:inkscape="http://www.inkscape.org/namespaces/inkscape"
   version="1.1"
   id="svg2"
   x="0px"
   y="0px"
   width="567.429px"
   height="113.032px"
   viewBox="0 0 567.429 113.032"
   enable-background="new 0 0 567.429 113.032"
   xml:space="preserve"
   sodipodi:docname="system.svg"
   inkscape:version="0.92.2 (5c3e80d, 2017-08-06)"><metadata
     id="metadata3731"><rdf:RDF><cc:Work
         rdf:about=""><dc:format>image/svg+xml</dc:format><dc:type
           rdf:resource="http://purl.org/dc/dcmitype/StillImage" /></cc:Work></rdf:RDF></metadata><defs
     id="defs3729" /><sodipodi:namedview
     pagecolor="#ffffff"
     bordercolor="#666666"
     borderopacity="1"
     objecttolerance="10"
     gridtolerance="10"
     guidetolerance="10"
     inkscape:pageopacity="0"
     inkscape:pageshadow="2"
     inkscape:window-width="1366"
     inkscape:window-height="746"
     id="namedview3727"
     showgrid="false"
     inkscape:zoom="2.1341877"
     inkscape:cx="305.38697"
     inkscape:cy="130.25186"
     inkscape:window-x="1912"
     inkscape:window-y="1072"
     inkscape:window-maximized="1"
     inkscape:current-layer="svg2" /><g
     id="g3724"><path
       id="path2998"
       d="M165.884,28.918v28.77v28.769h5.039h5.039V60.776V35.095h6.186c4.461,0,6.475,0.12,7.233,0.437   c1.496,0.625,3.036,2.529,3.667,4.521c0.331,1.047,0.604,3.313,0.701,5.831c0.2,5.154-0.398,8.356-1.971,10.433   c-1.641,2.168-2.645,2.51-7.284,2.51h-3.982v3.119v3.127l6.257-0.121l6.258-0.122l2.214-1.046c4.045-1.908,6.982-5.811,8.167-10.84   c0.662-2.808,0.652-9.086-0.021-12.099c-0.646-2.896-1.991-5.813-3.504-7.579c-0.633-0.738-1.857-1.797-2.712-2.347   c-2.933-1.882-4.062-2.001-18.356-2.001H165.884z M210.419,28.918v28.77v28.769h5.038h5.039V57.688v-28.77h-5.039H210.419z    M336.791,28.918c-4.514,0.001-9.158,0.16-10.321,0.346c-2.622,0.418-5.682,1.805-7.415,3.372c-1.748,1.579-3.238,3.949-4.044,6.44   c-0.501,1.548-0.659,2.959-0.68,5.933c-0.028,4.103,0.317,5.851,1.728,8.614c0.916,1.798,3.361,4.393,5.039,5.363   c1.948,1.129,4.44,1.727,8.725,2.072c3.26,0.264,4.02,0.426,5.08,1.129c0.834,0.551,1.566,1.453,2.184,2.711   c0.87,1.771,0.919,2.141,0.915,5.953c-0.004,3.801-0.058,4.176-0.896,5.771c-0.567,1.083-1.385,2.032-2.244,2.601l-1.352,0.895   l-8.563,0.102l-8.553,0.092v3.077v3.068h9.73c5.92,0,10.412-0.146,11.459-0.366c3.984-0.839,7.299-3.421,8.908-6.938   c1.357-2.963,1.834-6.008,1.656-10.576c-0.186-4.817-0.9-7.441-2.824-10.32c-2.389-3.576-5.063-4.802-11.854-5.424   c-2.513-0.23-5.086-0.635-5.72-0.904c-1.397-0.592-2.704-2.082-3.28-3.738c-0.57-1.633-0.561-6.361,0.02-8.359   c0.572-1.973,2.306-3.79,4.135-4.338c0.884-0.266,3.852-0.396,8.848-0.396H345v-3.09v-3.088H336.791L336.791,28.918z    M452.597,28.918v4.227v4.226h5.039h5.039v-4.226v-4.227h-5.039H452.597z M355.695,35.42l0.104,20.723   c0.09,20.399,0.104,20.754,0.803,22.604c0.389,1.033,1.225,2.58,1.857,3.443c1.293,1.76,2.973,2.994,5.1,3.738   c1.023,0.359,2.76,0.498,6.064,0.51l4.633,0.02V83.37v-3.088h-3.027c-2.881,0-3.072-0.039-3.891-0.895   c-0.508-0.529-1.006-1.563-1.207-2.52c-0.221-1.032-0.313-6.405-0.256-14.791l0.092-13.164l5.445-0.092l5.445-0.092v-3.076v-3.08   h-5.527h-5.525v-3.576V35.42h-5.049H355.695L355.695,35.42z M425.291,35.42v20.469c0,19.797,0.023,20.54,0.672,22.512   c0.77,2.347,2.338,4.672,4.043,5.973c0.65,0.497,1.939,1.165,2.863,1.482c1.289,0.445,2.73,0.582,6.156,0.59l4.469,0.01v-3.088   V80.28h-2.885c-2.41,0-3.02-0.104-3.727-0.662c-0.467-0.365-0.996-1.205-1.18-1.868c-0.205-0.739-0.336-6.584-0.336-15.106V48.748   h5.537h5.537l-0.092-3.007l-0.092-3.008l-5.445-0.09l-5.443-0.093v-3.565V35.42h-5.039H425.291L425.291,35.42z M416.402,42.489   l-10.758,0.174c-11.568,0.178-12.766,0.32-16.162,2.042c-3.799,1.925-6.447,5.663-7.648,10.788   c-0.502,2.138-0.59,3.979-0.59,12.109c0,9.231,0.027,9.661,0.742,11.428c1.441,3.561,3.586,5.759,6.674,6.826   c1.361,0.471,2.781,0.58,7.457,0.588l5.771,0.011v-3.089v-3.088h-4.043c-3.828,0-4.088-0.047-4.998-0.813   c-0.602-0.505-1.092-1.35-1.32-2.255c-0.453-1.794-0.475-15.937-0.031-19.362c0.631-4.865,1.727-7.146,4.014-8.371   c0.787-0.42,2.145-0.57,5.973-0.67l4.957-0.132v18.896v18.885h5.203h5.201V74.315c0-6.674-0.105-16.567-0.225-21.982   L416.402,42.489z M263.73,42.5l-10.808,0.162c-11.746,0.181-13.433,0.396-16.64,2.113c-3.725,1.994-6.385,5.936-7.508,11.123   c-0.713,3.295-1.047,16.791-0.498,20.053c0.48,2.847,1.811,5.713,3.404,7.334c1.172,1.193,3.117,2.369,4.743,2.865   c0.447,0.137,3.481,0.258,6.745,0.273l5.932,0.031v-3.088V80.28h-4.154c-4.686,0-5.303-0.221-6.186-2.235   c-0.395-0.897-0.549-2.662-0.65-7.416c-0.146-6.756,0.324-14.086,1.056-16.519c0.657-2.185,1.881-3.863,3.321-4.57   c1.052-0.516,2.019-0.613,6.125-0.62l4.875-0.011l0.082,18.773l0.082,18.772h5.039h5.039V64.473V42.5L263.73,42.5z M274.58,42.571   c-2.928,0-5.319,0.037-5.313,0.082c0.004,0.045,3.346,9.857,7.426,21.811l7.416,21.738l-4.176,10.769   c-2.295,5.927-4.175,10.819-4.175,10.869s1.993,0.05,4.429,0l4.43-0.091l12.951-32.508c7.127-17.879,12.963-32.543,12.963-32.588   c0.002-0.045-2.102-0.082-4.684-0.082c-3.404,0-4.765,0.113-4.947,0.408c-0.137,0.223-2.627,6.543-5.525,14.049   c-2.898,7.504-5.398,13.688-5.566,13.744c-0.17,0.057-2.471-6.265-5.109-14.049l-4.795-14.152H274.58z M452.597,42.571v21.942   v21.942h5.039h5.039V64.513V42.571h-5.039H452.597z M513.548,42.733l-0.094,21.861h0.012l-0.092,21.861h5.211h5.201V67.571V48.676   l4.957,0.133c5.262,0.137,6.141,0.356,7.619,1.939c1.16,1.24,1.988,3.499,2.357,6.439c0.191,1.539,0.346,8.603,0.346,16.01v13.258   h5.039h5.037l-0.01-12.922c-0.002-13.704-0.242-16.956-1.564-20.672c-1.795-5.053-5.102-8.049-10.482-9.508   c-1.779-0.483-3.68-0.567-12.811-0.59L513.548,42.733L513.548,42.733z M488.07,42.825c-2.842,0-5.674,0.357-7.709,1.057   c-2.709,0.932-4.41,2.023-6.117,3.921c-1.852,2.06-3.193,4.849-3.98,8.259c-0.482,2.09-0.596,3.844-0.568,8.939   c0.027,5.359,0.133,6.729,0.711,8.848c0.979,3.596,2.26,6.016,4.205,7.985c1.916,1.938,4.748,3.423,7.936,4.146   c1.434,0.324,3.422,0.426,6.461,0.344c5.238-0.139,7.73-0.813,10.787-2.904c2.563-1.752,4.5-4.516,5.598-7.995   c1.57-4.968,1.846-13.157,0.641-19.2c-0.586-2.936-2.01-6.119-3.598-8.056c-1.492-1.821-3.936-3.418-6.551-4.287   C493.773,43.182,490.912,42.825,488.07,42.825L488.07,42.825z M488.193,48.879c1.475,0,2.953,0.285,4.113,0.873   c1.514,0.768,2.465,2.104,3.291,4.632c0.541,1.653,0.676,3.158,0.803,8.625c0.166,7.14-0.162,10.505-1.27,13.043   c-0.781,1.792-2.045,3.185-3.434,3.779c-0.592,0.253-2.156,0.446-3.605,0.446c-2.055,0-2.844-0.145-3.992-0.75   c-0.902-0.478-1.773-1.295-2.336-2.205c-1.469-2.371-1.953-5.48-1.973-12.484c-0.016-6.667,0.328-9.348,1.557-12.059   c0.416-0.92,1.256-2.043,1.879-2.52C484.41,49.356,486.296,48.879,488.193,48.879L488.193,48.879z" /><path
       id="path3775"
       d="M559.435,83.912h0.77v-2.835h1.756c0.48,0,0.795,0.078,0.938,0.232c0.139,0.148,0.229,0.493,0.268,1.032   l0.068,0.836c0.012,0.159,0.029,0.292,0.055,0.399c0.023,0.115,0.063,0.228,0.117,0.335h0.807v-0.21   c-0.064-0.057-0.107-0.125-0.135-0.204c-0.037-0.095-0.063-0.212-0.072-0.351l-0.07-0.972c-0.047-0.472-0.109-0.796-0.189-0.972   c-0.117-0.264-0.322-0.422-0.611-0.477c0.309-0.07,0.555-0.244,0.742-0.525c0.189-0.285,0.283-0.633,0.283-1.039   c0-0.334-0.068-0.625-0.207-0.871c-0.145-0.275-0.352-0.487-0.617-0.635c-0.217-0.12-0.477-0.198-0.777-0.234   c-0.201-0.023-0.508-0.036-0.914-0.036h-2.209V83.912L559.435,83.912z M560.207,80.375v-2.288h1.557   c0.303,0,0.523,0.008,0.662,0.022c0.205,0.033,0.369,0.092,0.488,0.174c0.146,0.097,0.256,0.219,0.328,0.369   c0.08,0.158,0.121,0.334,0.121,0.526c0,0.433-0.121,0.739-0.367,0.921c-0.246,0.184-0.648,0.274-1.207,0.274L560.207,80.375   L560.207,80.375z" /><path
       id="path3004"
       fill="none"
       stroke="#000000"
       stroke-miterlimit="10"
       d="M567.179,80.649c0,2.957-2.398,5.356-5.355,5.356   c-2.959,0-5.355-2.397-5.355-5.356s2.396-5.356,5.355-5.356C564.781,75.292,567.179,77.69,567.179,80.649z" /><g
       id="g3"
       transform="translate(-61.6856, -312.868)"><path
         id="path7"
         fill="#DE0029"
         d="M142.207,336.374l-0.099,89.525l-23.986-7.801v-105.23l30.618,8.096    c19.599,5.267,31.592,15.507,31.398,33.45c-0.195,20.873-9.849,29.258-28.667,23.797v-41.155    C151.469,332.08,142.207,331.789,142.207,336.374L142.207,336.374z" /><path
         id="path9"
         fill="#F3C202"
         d="M107.102,400.738l-11.311,3.804c-7.314,2.537-13.554-3.412-6.826-5.853l5.46-1.948    l-20.575-6.536c-6.338,2.148-12.288,6.73-11.896,13.168c0.39,6.533,15.309,8.095,26.815,9.947    c10.726,1.754,20.477,0.779,29.351-2.342v-6.73L107.102,400.738L107.102,400.738z M142.302,425.9l20.965-7.313l-21.16-6.729    v13.557L142.302,425.9L142.302,425.9z" /><path
         id="path11"
         fill="#326DB3"
         d="M198.08,406.299l0.389-0.099c9.167-3.217,13.067-7.707,12.092-11.898    c-1.56-7.021-12.773-10.826-30.033-12.093c-12.384-0.878-24.572,1.853-36.468,5.947l-1.95,0.685l21.355,6.633l12.48-4.197    c13.067-2.436,18.333,1.854,5.755,5.854l-6.242,2.146L198.08,406.299L198.08,406.299z M118.122,375.287l-9.459,3.217l9.459,2.925    V375.287L118.122,375.287z" /><path
         id="path13"
         fill="#00AA9E"
         d="M163.268,418.585l34.812-12.286l-22.624-7.022l-33.348,11.41v1.17L163.268,418.585    L163.268,418.585z M118.122,397.033l-11.019,3.705l11.019,3.512V397.033L118.122,397.033z M142.107,402.789v-13.946l21.355,6.631    L142.107,402.789L142.107,402.789z M94.425,396.742l23.696-8.486v-6.826l-9.459-2.926l-34.324,11.605    c-0.097,0-0.292,0.096-0.487,0.096L94.425,396.742L94.425,396.742z" /></g></g><path
     style="fill:#ffffff;stroke-width:0.46856236"
     d="M 166.19907,57.640549 V 29.058245 h 11.17676 c 6.14722,0 12.48115,0.136335 14.0754,0.302967 4.08394,0.426856 7.30358,2.427457 9.30987,5.784899 1.99616,3.340492 2.46067,4.999703 2.78405,9.944514 0.57573,8.803728 -2.06027,14.783962 -8.02446,18.204869 -2.29788,1.318003 -2.59171,1.364846 -8.58774,1.369093 l -6.20845,0.0044 v -2.755485 -2.755484 l 4.50953,-0.197231 c 4.48556,-0.196183 4.51778,-0.206241 6.06311,-1.892488 2.13685,-2.331704 2.67024,-4.73134 2.47384,-11.129394 -0.13275,-4.324713 -0.35844,-5.769045 -1.13267,-7.248567 -1.71367,-3.274728 -2.38211,-3.518028 -10.03956,-3.654221 l -6.79415,-0.12084 -0.12114,25.653789 -0.12115,25.653789 h -4.68162 -4.68162 z"
     id="path3733"
     inkscape:connector-curvature="0" /><path
     style="fill:#ffffff;stroke-width:0.46856236"
     d="M 210.71249,57.640549 V 29.058245 h 4.68563 4.68562 v 28.582304 28.582303 h -4.68562 -4.68563 z"
     id="path3735"
     inkscape:connector-curvature="0" /><path
     style="fill:#ffffff;stroke-width:0.46856236"
     d="m 234.70437,85.011128 c -5.62921,-2.805153 -7.2216,-8.594086 -6.24637,-22.70784 0.55924,-8.093357 1.48181,-11.034165 4.5226,-14.416252 3.27938,-3.647455 5.49395,-4.370633 14.74832,-4.816136 4.2522,-0.204699 9.57624,-0.383918 11.8312,-0.398264 l 4.09992,-0.02608 v 21.78815 21.788149 h -4.91991 -4.9199 V 67.441116 48.65938 l -5.59335,0.156383 c -5.46647,0.152834 -5.62615,0.187839 -7.03945,1.543145 -2.21871,2.127667 -2.85168,4.996047 -3.16054,14.322366 -0.30717,9.275303 0.0149,13.082093 1.23416,14.587819 0.72772,0.898702 1.40692,1.063247 5.12198,1.240866 l 4.28301,0.204774 v 2.754059 2.75406 h -5.76503 c -5.26128,0 -5.9775,-0.105879 -8.19664,-1.211724 z"
     id="path3737"
     inkscape:connector-curvature="0" /><path
     style="fill:#ffffff;stroke-width:0.46856236"
     d="m 276.3106,107.44354 c -3.5e-4,-0.20331 1.80933,-5.07017 4.02151,-10.815239 l 4.02213,-10.445573 -7.30886,-21.416665 c -4.01988,-11.779167 -7.30553,-21.58194 -7.30145,-21.78394 0.004,-0.202001 2.24453,-0.307428 4.97878,-0.234282 l 4.97136,0.132993 4.57333,13.119746 c 5.19252,14.896063 5.14066,14.759715 5.6143,14.759715 0.19276,0 2.71493,-6.062026 5.60483,-13.471168 2.8899,-7.409143 5.59644,-13.734734 6.01455,-14.056871 0.8227,-0.63387 8.55136,-0.845887 8.54025,-0.234281 -0.004,0.193282 -5.75988,14.794856 -12.79192,32.447943 l -12.78553,32.096522 -4.07633,0.13538 c -2.24198,0.0745 -4.07661,-0.031 -4.07695,-0.23428 z"
     id="path3739"
     inkscape:connector-curvature="0" /><path
     style="fill:#ffffff;stroke-width:0.46856236"
     d="m 316.60759,83.468722 v -2.754129 l 8.56667,-0.192917 c 9.6903,-0.218223 10.30032,-0.417545 12.04326,-3.935146 1.29258,-2.608693 1.31188,-8.953284 0.0358,-11.763878 -1.23113,-2.711541 -2.51751,-3.385975 -7.58446,-3.976451 -6.08323,-0.708905 -8.81769,-1.813968 -11.28433,-4.560274 -3.01153,-3.352995 -3.79529,-6.02144 -3.56235,-12.128675 0.15326,-4.018302 0.3988,-5.421231 1.2257,-7.003279 1.66761,-3.190531 3.61764,-5.056739 6.7551,-6.46475 2.84067,-1.274816 3.26335,-1.327143 12.42952,-1.538745 l 9.48885,-0.219052 v 2.805927 2.805926 l -8.05014,0.334842 c -8.66321,0.360343 -9.93339,0.687616 -11.41713,2.941719 -1.93163,2.934556 -1.71797,10.445228 0.36075,12.681238 1.42241,1.530032 2.4224,1.867706 7.26914,2.454614 6.75756,0.818294 8.63691,1.537306 11.05865,4.23087 3.05573,3.398707 3.82438,5.995129 3.82438,12.918393 0,5.559468 -0.032,5.732663 -1.63997,8.86458 -1.91775,3.735412 -4.67263,5.934286 -8.44966,6.744313 -1.30537,0.279952 -6.58008,0.509004 -11.72158,0.509004 h -9.34818 z"
     id="path3741"
     inkscape:connector-curvature="0" /><path
     style="fill:#ffffff;stroke-width:0.46856236"
     d="m 363.6981,85.725726 c -2.16196,-0.634597 -4.81805,-3.091911 -6.22458,-5.758734 l -1.27242,-2.412543 -0.15123,-20.968166 -0.15123,-20.968165 h 4.954 4.95399 v 3.514217 3.514218 h 5.38847 5.38847 v 3.045655 3.045656 h -5.40739 -5.40739 l 0.13606,14.800818 0.13606,14.800818 1.31468,1.130302 c 1.07063,0.920482 1.83171,1.130302 4.09992,1.130302 h 2.78525 v 2.811374 2.811374 l -4.56849,-0.04226 c -2.51266,-0.02324 -5.20104,-0.227932 -5.97417,-0.454866 z"
     id="path3743"
     inkscape:connector-curvature="0" /><path
     style="fill:#ffffff;stroke-width:0.46856236"
     d="m 388.59037,85.534484 c -2.3159,-0.8255 -4.69907,-3.135053 -6.03771,-5.851206 -0.99289,-2.014592 -1.0479,-2.681999 -1.02516,-12.437201 0.0202,-8.654142 0.1605,-10.72193 0.87444,-12.885465 1.67668,-5.081103 4.45456,-8.272636 8.94134,-10.27279 1.38342,-0.616713 12.40705,-1.360721 20.96817,-1.415186 l 4.09992,-0.02608 v 21.78815 21.788149 h -4.91991 -4.9199 V 67.322967 48.42308 l -5.03705,0.216036 c -3.01882,0.129475 -5.56163,0.483265 -6.34631,0.882983 -3.32118,1.691826 -4.22357,6.027782 -4.00311,19.234863 0.19658,11.776328 0.0561,11.521787 6.49629,11.772622 l 4.20455,0.163762 v 2.764753 2.764753 l -5.73988,-0.02057 c -3.644,-0.01306 -6.40292,-0.256902 -7.55568,-0.667802 z"
     id="path3745"
     inkscape:connector-curvature="0" /><path
     style="fill:#ffffff;stroke-width:0.46856236"
     d="m 432.92298,85.597383 c -2.51966,-0.913805 -4.64009,-2.942066 -6.01616,-5.75464 l -1.2996,-2.656289 -0.20777,-20.784168 -0.20777,-20.784168 h 4.98109 4.98109 v 3.442626 3.442627 l 5.22538,0.298975 c 2.87396,0.164436 5.26949,0.354791 5.32339,0.423013 0.0539,0.06822 0.23456,1.336443 0.40146,2.818271 l 0.30346,2.694234 h -5.65152 -5.65151 l 0.14181,14.80087 0.14181,14.80087 1.31468,1.13025 c 1.04131,0.895235 1.8451,1.13025 3.86564,1.13025 h 2.55096 v 2.811374 2.811374 l -4.3342,-0.03566 c -2.38381,-0.01959 -5.02182,-0.285027 -5.86224,-0.589822 z"
     id="path3747"
     inkscape:connector-curvature="0" /><path
     style="fill:#ffffff;stroke-width:0.46856236"
     d="m 452.95923,64.434703 v -21.78815 h 4.68563 4.68562 v 21.78815 21.788149 h -4.68562 -4.68563 z"
     id="path3749"
     inkscape:connector-curvature="0" /><path
     style="fill:#ffffff;stroke-width:0.46856236"
     d="m 452.95923,33.041025 v -3.98278 h 4.68563 4.68562 v 3.98278 3.98278 h -4.68562 -4.68563 z"
     id="path3751"
     inkscape:connector-curvature="0" /><path
     style="fill:#ffffff;stroke-width:0.46856236"
     d="m 482.35961,85.746721 c -2.6899,-0.683774 -6.04187,-2.54806 -7.704,-4.284794 -1.83286,-1.915123 -3.7234,-5.941454 -4.35599,-9.27704 -0.59353,-3.129681 -0.60684,-11.11171 -0.0245,-14.667459 1.04733,-6.394503 4.874,-11.535557 9.88428,-13.279318 3.86168,-1.344009 12.81804,-1.230179 16.45774,0.209169 4.78851,1.893657 7.91811,6.01806 9.22856,12.162067 0.67455,3.162614 0.68446,12.201239 0.0173,15.822002 -1.10202,5.981152 -4.91842,10.949023 -9.68169,12.602819 -2.63525,0.914954 -11.27365,1.360289 -13.82178,0.712554 z m 10.38202,-6.421588 c 0.66924,-0.485246 1.74394,-1.925571 2.38821,-3.200724 1.13334,-2.243107 1.17141,-2.623461 1.17141,-11.702895 0,-9.12283 -0.0331,-9.449379 -1.18906,-11.714059 -1.5851,-3.105559 -3.43724,-4.07627 -7.35716,-3.855895 -3.58368,0.201473 -5.07061,1.172205 -6.68152,4.361999 -1.07667,2.131952 -1.18409,2.925708 -1.33534,9.86717 -0.23801,10.922981 0.81896,14.746826 4.62408,16.728716 2.07512,1.080821 6.57986,0.820456 8.37938,-0.484312 z"
     id="path3753"
     inkscape:connector-curvature="0" /><path
     style="fill:#ffffff;stroke-width:0.46856236"
     d="m 513.56287,78.140152 c 0.16863,-4.445486 0.30725,-14.144727 0.30804,-21.553869 l 10e-4,-13.471168 h 10.69189 c 11.95131,0 13.85678,0.319041 17.72965,2.968556 1.77668,1.215464 2.65349,2.307762 4.03915,5.031846 2.22399,4.372181 2.65228,8.219405 2.6694,23.978979 l 0.0121,11.128356 h -4.91991 -4.9199 l -0.007,-14.174011 c -0.0113,-21.956967 -0.46393,-22.951896 -10.65248,-23.417475 l -4.80276,-0.219469 v 18.905478 18.905477 h -5.22794 -5.22794 z"
     id="path3755"
     inkscape:connector-curvature="0" /><path
     style="fill:#ffffff;stroke-width:0.08283091"
     d="m 560.53459,86.321043 c -0.29612,-0.06342 -0.89169,-0.289943 -1.32349,-0.503392 -0.64331,-0.318001 -0.9051,-0.509434 -1.44954,-1.059993 -0.74508,-0.753434 -1.11849,-1.33105 -1.41887,-2.194808 -0.43319,-1.245644 -0.43194,-2.580957 0.004,-3.833343 0.29662,-0.852937 0.67259,-1.433465 1.41347,-2.182516 1.18257,-1.195616 2.61878,-1.750685 4.33673,-1.676059 0.6971,0.03028 1.03101,0.09025 1.59543,0.286541 1.83176,0.637033 3.2844,2.20941 3.77463,4.085753 0.18708,0.716077 0.1874,2.098116 6.6e-4,2.816251 -0.41676,1.602555 -1.57465,3.033601 -3.03977,3.756851 -0.43267,0.213589 -1.0476,0.442785 -1.3665,0.509327 -0.7181,0.149839 -1.81448,0.147838 -2.52634,-0.0046 z m 2.39479,-0.910304 c 1.73508,-0.408984 3.09782,-1.719646 3.61729,-3.479046 0.1951,-0.660803 0.19504,-1.899028 -1.3e-4,-2.56422 -0.47043,-1.603403 -1.71062,-2.899026 -3.23367,-3.378221 -0.84714,-0.266532 -2.17266,-0.259794 -3.01249,0.01531 -1.10201,0.360995 -2.05586,1.134365 -2.68803,2.179446 -0.43421,0.717809 -0.57195,1.210252 -0.61891,2.212657 -0.048,1.02377 0.0514,1.560045 0.43856,2.366871 0.98706,2.057073 3.29207,3.167024 5.49738,2.647199 z"
     id="path3757"
     inkscape:connector-curvature="0" /><path
     style="fill:#ffffff;stroke-width:0.08283091"
     d="m 559.45779,80.645246 v -3.23651 l 1.67733,0.02681 c 1.56822,0.02507 1.70327,0.03959 2.07623,0.223217 0.56873,0.280011 0.83063,0.706151 0.87079,1.416828 0.0435,0.769195 -0.25967,1.354438 -0.80627,1.55664 -0.19356,0.0716 -0.19241,0.07444 0.10055,0.247293 0.35876,0.211671 0.44548,0.480477 0.55419,1.717783 0.042,0.477935 0.11509,0.941368 0.16244,1.029849 0.0474,0.08848 0.0861,0.181964 0.0861,0.207737 0,0.08435 -0.73433,0.04907 -0.78806,-0.03786 -0.0288,-0.0466 -0.10311,-0.540475 -0.16514,-1.097509 -0.062,-0.557035 -0.13859,-1.098149 -0.17013,-1.202477 -0.10583,-0.349997 -0.42496,-0.431545 -1.68881,-0.431545 h -1.16374 v 1.408125 1.408126 h -0.37274 -0.37274 z m 3.10616,-0.322797 c 0.68845,-0.15887 1.02269,-0.916599 0.71307,-1.616553 -0.24582,-0.555703 -0.44579,-0.622303 -1.86859,-0.622303 h -1.20516 v 1.159633 1.159633 l 1.01468,-0.002 c 0.55807,-0.0011 1.16377,-0.03638 1.346,-0.07843 z"
     id="path3759"
     inkscape:connector-curvature="0" /></svg>