<?xml version="1.0" encoding="UTF-8" standalone="no"?>
<!-- Generator: Adobe Illustrator 16.0.3, SVG Export Plug-In . SVG Version: 6.00 Build 0)  -->

<svg
   xmlns:dc="http://purl.org/dc/elements/1.1/"
   xmlns:cc="http://creativecommons.org/ns#"
   xmlns:rdf="http://www.w3.org/1999/02/22-rdf-syntax-ns#"
   xmlns:svg="http://www.w3.org/2000/svg"
   xmlns="http://www.w3.org/2000/svg"
   xmlns:sodipodi="http://sodipodi.sourceforge.net/DTD/sodipodi-0.dtd"
   xmlns:inkscape="http://www.inkscape.org/namespaces/inkscape"
   version="1.1"
   id="Ebene_2"
   x="0px"
   y="0px"
   width="566.929px"
   height="92.934px"
   viewBox="0 0 566.929 92.934"
   enable-background="new 0 0 566.929 92.934"
   xml:space="preserve"
   sodipodi:docname="system.svg"
   inkscape:version="0.92.2 (5c3e80d, 2017-08-06)"><metadata
     id="metadata906"><rdf:RDF><cc:Work
         rdf:about=""><dc:format>image/svg+xml</dc:format><dc:type
           rdf:resource="http://purl.org/dc/dcmitype/StillImage" /></cc:Work></rdf:RDF></metadata><defs
     id="defs904" /><sodipodi:namedview
     pagecolor="#ffffff"
     bordercolor="#666666"
     borderopacity="1"
     objecttolerance="10"
     gridtolerance="10"
     guidetolerance="10"
     inkscape:pageopacity="0"
     inkscape:pageshadow="2"
     inkscape:window-width="1366"
     inkscape:window-height="746"
     id="namedview902"
     showgrid="false"
     inkscape:zoom="2.1360699"
     inkscape:cx="283.46451"
     inkscape:cy="46.466999"
     inkscape:window-x="1912"
     inkscape:window-y="1072"
     inkscape:window-maximized="1"
     inkscape:current-layer="Ebene_2" /><g
     id="g899"><g
       id="g879"><path
         d="M162.729,4.833c3.574-4.573,10.968-5.352,15.352-1.52c1.792,1.51,3.048,3.595,3.689,5.837    c8.115,27.924,16.267,55.834,24.372,83.76c-4.791,0.003-9.582-0.006-14.371,0.003c-2.258-7.694-4.463-15.41-6.693-23.114    c-9.26-0.027-18.519-0.008-27.777-0.011c-2.269,7.701-4.505,15.411-6.733,23.13c-4.763-0.019-9.525-0.008-14.29-0.011    c7.71-26.636,15.428-53.272,23.175-79.901C160.374,10.221,160.718,7.107,162.729,4.833 M171.183,21.943    c-3.396,11.568-6.723,23.16-10.098,34.734c6.73,0.03,13.458,0.011,20.186,0.011C177.903,45.107,174.551,33.525,171.183,21.943z"
         id="path869" /><path
         d="M263.614,5.434c2.495-3.62,7.32-5.379,11.567-4.261c3.89,0.897,6.865,4.248,7.893,8.021    c8.106,27.905,16.241,55.796,24.346,83.694c-4.794,0.043-9.589,0-14.384,0.021c-2.228-7.704-4.435-15.421-6.681-23.122    c-9.245,0.003-18.489-0.02-27.733,0.006c-2.21,7.713-4.487,15.405-6.698,23.113c-4.759,0.003-9.517,0-14.274,0.003    c7.704-26.78,15.501-53.539,23.268-80.303C261.733,10.187,262.046,7.523,263.614,5.434 M262.448,56.688    c6.702,0.009,13.401,0.003,20.102,0.003c-3.332-11.604-6.719-23.193-10.045-34.8C269.158,33.491,265.777,45.083,262.448,56.688z"
         id="path871" /><path
         d="M195.418,1.034c17.325,0,34.65,0,51.97,0c0,4.675,0,9.344,0,14.018c-6.378,0.005-12.755-0.007-19.131,0.005    c0,25.952,0.004,51.902-0.003,77.854c-4.566,0-9.139,0-13.706,0c0-25.951-0.004-51.901,0.004-77.854    c-6.379-0.012-12.755,0-19.133-0.005C195.418,10.379,195.415,5.708,195.418,1.034z"
         id="path873" /><path
         d="M322.652,1.604c1.316-0.455,2.721-0.61,4.111-0.577c5.462,0.021,10.923,0.003,16.388,0.007    c9.198,0.168,17.979,5.88,21.961,14.159c2.756,5.377,3.041,11.631,2.345,17.53c-0.476,6.176-3.069,12.349-7.814,16.44    c-2.508,2.238-5.632,3.592-8.314,5.578c-1.474,1.126-1.544,3.302-0.785,4.861c7.25,11.194,14.789,22.207,22.188,33.307    c-5.412,0.011-10.825-0.014-16.238,0.011c-7.088-10.645-14.101-21.344-21.16-32c-2.075-3.031-2.637-7.051-1.396-10.516    c0.969-2.654,3.292-4.599,5.876-5.599c4.935-1.882,9.798-4.842,12.533-9.498c2.077-3.503,1.973-7.818,1.039-11.649    c-1.098-4.972-5.943-8.888-11.061-8.714c-3.542,0.024-7.079-0.021-10.614,0.016c-1.6-0.037-3.106,1.353-3.086,2.979    c-0.018,24.99,0.009,49.985-0.006,74.979c-4.603-0.008-9.203,0-13.807-0.008c-0.01-26.902,0.007-53.814-0.01-80.717    C314.825,7.475,318.18,3.037,322.652,1.604z"
         id="path875" /><path
         d="M379.969,1.034c4.842,0,9.682,0,14.528,0c-0.005,30.63,0.004,61.251-0.009,91.876c-4.838-0.011-9.678,0-14.52-0.003    C379.969,62.282,379.969,31.661,379.969,1.034z"
         id="path877" /></g><g
       id="g891"><path
         d="M40.963,0.865c2.326-0.007,4.651,0,6.981-0.004c0.008,5.47,0,10.942,0.003,16.41c0.022,4.567-0.106,9.131-0.295,13.694    c-0.312,6.586-0.725,13.188-1.814,19.696c-0.75,4.488-2.305,8.821-4.229,12.932c-3.142,6.622-8.081,12.226-13.632,16.938    c-4.964,4.372-10.892,7.555-17.126,9.703C7.324,91.455,3.694,92.386,0,92.91c0.003-4.588,0.003-9.179,0-13.765    c4.449-0.67,8.726-2.249,12.696-4.337c4.712-2.492,8.954-5.841,12.526-9.794c3.688-4.077,6.626-8.801,8.856-13.814    c2.627-5.763,4.033-11.994,4.989-18.229c1.198-7.927,1.697-15.951,1.882-23.958C40.979,6.299,40.956,3.583,40.963,0.865z"
         id="path881" /><path
         d="M50.75,0.875c4.283-0.028,8.565-0.003,12.85-0.01c0.001,30.68,0.001,61.364,0,92.042    c-4.274,0.011-8.547-0.019-12.82,0.021c-0.052-9.781-0.007-19.571-0.022-29.351C50.752,42.678,50.766,21.778,50.75,0.875z"
         id="path883" /><path
         d="M66.458,0.865c2.315-0.004,4.627-0.007,6.939,0c-0.076,9.355,0.244,18.73,1.358,28.021    c0.913,7.22,2.201,14.494,5.076,21.218c2.725,6.505,6.654,12.553,11.774,17.431c4.892,4.663,10.814,8.248,17.252,10.309    c1.796,0.571,3.632,1.021,5.501,1.299c-0.001,4.586-0.004,9.171,0,13.757c-3.669-0.499-7.267-1.446-10.769-2.636    c-4.169-1.449-8.202-3.329-11.907-5.742c-2.704-1.733-5.163-3.816-7.524-5.987c-3.894-3.593-7.377-7.67-9.996-12.294    c-2.046-3.598-3.54-7.486-4.711-11.448c-1.073-3.983-1.528-8.107-1.945-12.201c-0.805-8.856-1.106-17.753-1.05-26.64    C66.458,10.923,66.456,5.895,66.458,0.865z"
         id="path885" /><path
         d="M50.75,0.875c0.015,20.902,0.003,41.803,0.008,62.7c0.014,9.78-0.032,19.567,0.022,29.352    c4.273-0.039,8.547-0.01,12.82-0.021c0.001-30.678,0.001-61.361,0-92.045C59.317,0.872,55.034,0.848,50.75,0.875"
         id="path887" /><path
         d="M66.458,0.865c-0.002,5.028,0,10.058,0,15.085c-0.057,8.884,0.245,17.783,1.05,26.64    c0.417,4.094,0.872,8.218,1.945,12.201c1.169,3.962,2.665,7.851,4.711,11.448c2.618,4.624,6.102,8.701,9.996,12.294    c2.363,2.174,4.82,4.254,7.524,5.987c3.705,2.413,7.738,4.29,11.907,5.742c3.501,1.189,7.1,2.134,10.769,2.636    c-0.004-4.586-0.001-9.171,0-13.757c-1.867-0.274-3.706-0.728-5.501-1.299c-6.438-2.061-12.361-5.646-17.252-10.309    c-5.12-4.872-9.049-10.924-11.774-17.431c-2.875-6.724-4.163-13.998-5.076-21.218c-1.115-9.291-1.434-18.666-1.358-28.021    C71.084,0.858,68.771,0.861,66.458,0.865"
         id="path889" /></g><g
       id="g897"><path
         d="M432.911,59.248l1.673,1.314c5.853,4.538,12.9,8.242,20.426,8.242c3.225,0,8.361-1.313,8.361-5.377    c0-4.061-4.301-4.418-7.286-5.016l-6.571-1.193c-12.78-2.27-23.531-9.797-23.531-23.893C425.982,11.945,445.454,0,465.044,0    c10.272,0,19.708,2.508,28.548,7.884l-8.84,23.054c-5.613-3.821-11.943-6.808-18.991-6.808c-2.867,0-7.049,1.073-7.049,4.776    c0,3.346,4.063,3.823,6.569,4.419L472.688,35c13.855,3.104,23.89,10.511,23.89,25.801c0,21.5-19.59,32.133-39.06,32.133    c-11.35,0-24.488-3.107-34.642-8.243L432.911,59.248z"
         id="path893" /><path
         d="M498.126,1.433h68.803V26.7l-18.036,0.051V91.5h-32.729V26.75L498.126,26.7V1.433z"
         id="path895" /></g></g><path
     style="fill:#ffffff;stroke-width:0.46814948"
     d="M 50.887848,47.187617 V 1.2437596 h 6.320018 6.320018 V 46.888334 92.532908 l -3.862233,0.0042 c -2.124228,0.0023 -4.968237,0.136915 -6.320018,0.299283 l -2.457785,0.29507 z"
     id="path908"
     inkscape:connector-curvature="0" /><path
     style="fill:#ffffff;stroke-width:0.46814948"
     d="M 0.43188821,85.925015 0.56177937,79.317127 4.0729004,78.429179 C 12.159993,76.383984 21.171084,70.390397 27.017634,63.167838 36.364194,51.621531 40.231595,37.29109 40.918193,11.660085 L 41.197225,1.2437596 h 3.264707 3.264709 l -0.24319,18.3748674 c -0.266077,20.10425 -0.921398,27.95854 -2.939268,35.228248 -4.907601,17.680451 -19.717582,31.728709 -38.5416757,36.559361 -2.4147261,0.61967 -4.6851834,1.126672 -5.04546066,1.126672 -0.53649584,0 -0.63154133,-1.195926 -0.52515843,-6.607893 z"
     id="path910"
     inkscape:connector-curvature="0" /><path
     style="fill:#ffffff;stroke-width:0.46814948"
     d="M 111.04506,92.215296 C 104.22785,90.693586 95.837772,87.135476 90.446479,83.479744 86.393481,80.731487 79.42976,73.824821 76.633614,69.780056 68.819649,58.476756 66.80493,47.532801 66.80493,16.390634 V 1.2437596 h 3.204729 3.20473 l 0.280938,10.4163254 c 0.734583,27.236056 5.273599,42.298233 16.227538,53.849123 4.329002,4.564921 7.978016,7.364427 12.661425,9.713784 3.59906,1.805413 9.08125,3.733581 10.61536,3.733581 h 1.08838 v 6.788167 c 0,7.484966 0.14265,7.181643 -3.04297,6.470556 z"
     id="path912"
     inkscape:connector-curvature="0" /><path
     style="fill:#ffffff;stroke-width:0.46814948"
     d="m 136.79311,91.947721 c 0.11248,-0.321853 5.38199,-18.491905 11.71002,-40.377893 6.32803,-21.885988 11.92177,-41.070886 12.43053,-42.6331061 1.5632,-4.8000088 5.42473,-7.6929623 10.2686,-7.6929623 3.97209,0 7.48903,2.0464263 9.25235,5.383719 0.40813,0.7724466 6.26357,20.3645024 13.01208,43.5379014 l 12.27002,42.133453 -6.799,0.129925 c -3.73944,0.07146 -6.87597,0.05295 -6.97005,-0.04115 -0.0941,-0.09408 -1.43939,-4.576559 -2.98957,-9.961065 -1.55018,-5.3845 -3.04125,-10.477733 -3.31348,-11.318295 l -0.49497,-1.528279 -14.06462,0.123845 -14.06463,0.123844 -3.28884,11.352625 -3.28884,11.352625 h -6.93706 c -5.34663,0 -6.89017,-0.134163 -6.73254,-0.585187 z m 44.6074,-35.579361 c -0.11067,-0.321852 -2.39788,-8.219759 -5.0827,-17.550899 -2.68481,-9.331142 -4.98681,-16.967213 -5.11555,-16.969046 -0.17258,-0.0025 -8.35333,27.533461 -10.18612,34.285871 -0.20692,0.762344 0.50045,0.819261 10.18161,0.819261 8.1184,0 10.35977,-0.128554 10.20276,-0.585187 z"
     id="path914"
     inkscape:connector-curvature="0" /><path
     style="fill:#ffffff;stroke-width:0.46814948"
     d="M 214.74016,53.676501 V 14.820094 h -9.59706 -9.59706 V 8.031927 1.2437596 h 25.74822 25.74822 v 6.7881674 6.788167 h -9.59707 -9.59706 v 38.856407 38.856407 h -6.55409 -6.5541 z"
     id="path916"
     inkscape:connector-curvature="0" /><path
     style="fill:#ffffff;stroke-width:0.46814948"
     d="m 238.14764,92.262252 c 0,-0.255722 13.65217,-47.542784 21.92792,-75.951809 3.05981,-10.50371 3.92943,-12.1031133 7.60201,-13.9814979 2.68607,-1.37382681 6.76747,-1.45439167 9.26002,-0.1827884 2.24251,1.1440404 4.95118,4.1232423 5.61491,6.1756916 0.72855,2.2528987 24.41311,83.7469167 24.41311,84.0008137 0,0.115637 -3.10869,0.210246 -6.90821,0.210246 h -6.90822 l -3.27403,-11.352625 -3.27404,-11.352625 -14.08268,-0.123783 -14.08267,-0.123784 -3.28406,11.359371 -3.28405,11.359371 -6.86001,0.129551 c -3.773,0.07126 -6.86,-0.0035 -6.86,-0.166132 z m 44.4742,-35.741382 c 0,-0.654394 -9.77651,-34.311807 -10.04441,-34.579706 -0.12806,-0.128061 -0.33338,0.06065 -0.45626,0.419354 -0.80437,2.348025 -9.62976,33.493655 -9.62976,33.984323 0,0.480635 2.11772,0.608706 10.06522,0.608706 5.84793,0 10.06521,-0.181291 10.06521,-0.432677 z"
     id="path918"
     inkscape:connector-curvature="0" /><path
     style="fill:#ffffff;stroke-width:0.46814948"
     d="m 315.03137,50.984642 0.12686,-41.5482665 1.01046,-1.8725979 c 1.3228,-2.4514233 3.18031,-4.1700919 5.77771,-5.3458396 1.91826,-0.8683284 3.04872,-0.953916 12.64003,-0.9569771 7.76851,-0.00248 11.32066,0.1822178 13.53277,0.7036475 8.80283,2.0749761 16.20724,9.3760516 18.52218,18.2636896 0.91495,3.512729 0.91909,11.573091 0.008,15.892598 -0.84022,3.98427 -2.87003,8.205271 -5.24651,10.910133 -0.97385,1.108411 -3.8773,3.425751 -6.45213,5.149645 -7.09831,4.752457 -7.45634,3.310407 5.73894,23.114834 5.88782,8.836864 10.86233,16.33036 11.05445,16.652213 0.27381,0.458679 -1.33084,0.585187 -7.42252,0.585187 h -7.77185 l -10.90912,-16.50227 c -6.00001,-9.076247 -11.15247,-17.218373 -11.44991,-18.093612 -0.67653,-1.990796 -0.69831,-5.654351 -0.0439,-7.390057 0.87542,-2.32198 3.36323,-4.360649 8.16391,-6.690028 5.2472,-2.546045 8.86341,-5.717317 10.64718,-9.337146 0.87005,-1.765616 1.051,-2.887842 1.02509,-6.35744 -0.0363,-4.861413 -0.94629,-7.459828 -3.51053,-10.024068 -2.88965,-2.889649 -4.45441,-3.296377 -12.7262,-3.307911 -6.75687,-0.0094 -7.45164,0.068 -8.30965,0.926017 -0.92089,0.920887 -0.9363,1.560498 -0.9363,38.856407 v 37.920108 h -6.79799 -6.79799 z"
     id="path920"
     inkscape:connector-curvature="0" /><path
     style="fill:#ffffff;stroke-width:0.46814948"
     d="M 379.99693,46.888334 V 1.2437596 h 7.33304 7.33304 l -0.31036,27.7378564 c -0.17071,15.255821 -0.31056,35.795879 -0.3108,45.644574 l -4.4e-4,17.906718 h -7.02224 -7.02224 z"
     id="path922"
     inkscape:connector-curvature="0" /><path
     style="fill:#ffffff;stroke-width:0.46814948"
     d="m 447.64453,92.014577 c -7.1236,-1.024966 -15.49652,-3.408559 -21.84547,-6.218944 l -2.65135,-1.173623 4.65207,-11.78894 c 2.55864,-6.483912 4.81233,-12.075317 5.00821,-12.425338 0.27182,-0.485705 1.07758,-0.1109 3.40289,1.58287 6.30797,4.594774 14.77474,7.52819 20.01203,6.933415 5.04792,-0.573272 8.04325,-3.346389 7.16726,-6.635537 -0.60914,-2.287163 -2.6766,-3.225489 -10.22513,-4.640723 -10.52586,-1.973437 -15.29403,-3.934773 -19.98213,-8.219432 -4.73511,-4.327622 -6.83918,-9.347616 -6.83918,-16.317224 0,-12.410221 6.76144,-22.547781 18.96005,-28.4271571 5.69339,-2.7440463 10.49507,-3.91859063 17.32153,-4.23703583 6.49985,-0.30320896 12.03505,0.31713475 17.92113,2.00846573 4.40582,1.265985 12.89716,5.1462429 12.6562,5.7834561 -0.0812,0.2146948 -2.03636,5.3466661 -4.34482,11.4043811 l -4.19721,11.014029 -1.18651,-0.836292 c -0.65258,-0.45996 -2.34045,-1.417815 -3.75081,-2.128565 -10.64271,-5.363377 -21.07725,-4.810956 -21.07725,1.115864 0,2.549133 1.33674,3.492905 6.69044,4.723617 10.33946,2.376841 12.50886,3.023112 16.6072,4.947336 7.02215,3.296993 11.56157,8.31416 13.45053,14.866118 1.01584,3.523508 1.01687,11.260671 0.002,15.077892 -3.24034,12.187934 -13.82876,20.81908 -28.73591,23.424065 -4.25512,0.743571 -14.3909,0.832749 -19.01577,0.167302 z"
     id="path924"
     inkscape:connector-curvature="0" /><path
     style="fill:#ffffff;stroke-width:0.46814948"
     d="M 516.22843,58.826145 V 26.523831 h -8.89484 -8.89484 V 14.11787 1.7119091 h 34.17491 34.17491 V 14.11787 26.523831 h -9.12891 -9.12892 v 32.302314 32.302314 h -16.15116 -16.15115 z"
     id="path926"
     inkscape:connector-curvature="0" /></svg>