<?xml version="1.0" encoding="UTF-8" standalone="no"?>
<!-- Generator: Adobe Illustrator 16.0.3, SVG Export Plug-In . SVG Version: 6.00 Build 0)  -->

<svg
   xmlns:dc="http://purl.org/dc/elements/1.1/"
   xmlns:cc="http://creativecommons.org/ns#"
   xmlns:rdf="http://www.w3.org/1999/02/22-rdf-syntax-ns#"
   xmlns:svg="http://www.w3.org/2000/svg"
   xmlns="http://www.w3.org/2000/svg"
   xmlns:sodipodi="http://sodipodi.sourceforge.net/DTD/sodipodi-0.dtd"
   xmlns:inkscape="http://www.inkscape.org/namespaces/inkscape"
   version="1.1"
   id="Ebene_1"
   x="0px"
   y="0px"
   width="566.929px"
   height="96.834px"
   viewBox="0 0 566.929 96.834"
   enable-background="new 0 0 566.929 96.834"
   xml:space="preserve"
   sodipodi:docname="system.svg"
   inkscape:version="0.92.2 (5c3e80d, 2017-08-06)"><metadata
     id="metadata1152"><rdf:RDF><cc:Work
         rdf:about=""><dc:format>image/svg+xml</dc:format><dc:type
           rdf:resource="http://purl.org/dc/dcmitype/StillImage" /></cc:Work></rdf:RDF></metadata><defs
     id="defs1150" /><sodipodi:namedview
     pagecolor="#ffffff"
     bordercolor="#666666"
     borderopacity="1"
     objecttolerance="10"
     gridtolerance="10"
     guidetolerance="10"
     inkscape:pageopacity="0"
     inkscape:pageshadow="2"
     inkscape:window-width="1366"
     inkscape:window-height="746"
     id="namedview1148"
     showgrid="false"
     inkscape:zoom="2.1360699"
     inkscape:cx="283.46451"
     inkscape:cy="48.417"
     inkscape:window-x="1912"
     inkscape:window-y="1072"
     inkscape:window-maximized="1"
     inkscape:current-layer="Ebene_1" /><g
     transform="translate(-683.17328,-356.17754)"
     id="g1145"><g
       transform="matrix(0.93403196,0,0,0.93403196,69.311262,27.640521)"
       id="g1143"><g
         transform="translate(1.5605469e-5,0)"
         id="g1133"><path
           d="M1036.018,414.062h2.403c2.244,0,6.081,0.462,7.662,1.388c1.581,0.92,2.624,1.953,3.126,3.095     c0.504,1.142,0.759,3.661,0.759,7.551v15.273c0,4.609-4.87,6.957-7.216,7.467c-2.357,0.508-4.646,0.763-6.877,0.763     c-6.43,0-11.98-1.673-16.66-5.021c-4.674-3.35-8.061-8.586-10.163-15.727c-2.097-7.131-3.143-15.422-3.143-24.892     c0-7.811,0.958-15.43,2.875-22.852c1.922-7.424,5.188-13.208,9.801-17.36c4.613-4.148,10.395-6.223,17.337-6.223     c7.266,0,11.518,1.839,16.865,7.398c5.47,5.681,10.717,12.137,13.78,21.614h4.473v-34.796h-2.545     c-0.918,2.787-1.92,4.68-3.015,5.679c-1.1,1.003-2.29,1.502-3.565,1.502c-0.824,0-3.49-0.906-7.988-2.718     c-4.498-1.814-7.756-2.915-9.765-3.303c-3.699-0.772-6.574-1.162-11.185-1.162c-14.895,0-27.259,5.119-37.085,15.355     c-9.826,10.245-14.736,22.785-14.736,37.63c0,8.295,1.595,15.792,4.795,22.487c2.513,5.192,5.997,9.857,10.451,14.01     c4.456,4.147,9.602,7.496,15.422,10.048c5.828,2.543,13.151,3.818,21.969,3.818c6.903,0,13.556-0.713,19.98-2.139     c6.422-1.43,12.597-3.546,18.55-6.351v-20.524c0-3.597,0.203-5.859,0.613-6.779c0.73-1.752,1.767-3.003,3.114-3.76     c1.344-0.757,5.016-1.248,8.438-1.495v-3.36h-48.486v3.36L1036.018,414.062z"
           id="path1127" /><path
           d="M1147.468,440.646c-5.525,4.23-12.879,6.344-22.05,6.344h-5.228c-2.802,0-4.826-0.381-6.085-1.152     c-1.248-0.77-2.112-1.757-2.568-2.959c-0.458-1.202-0.688-4.498-0.688-9.88v-27.567c4.711,0,10.227,0.613,12.703,1.844     c2.474,1.225,4.646,3.624,6.512,7.191c1.874,3.565,3.099,7.503,3.682,13.092h3.975v-50.731h-3.975     c-0.78,7.622-2.574,12.739-5.391,16.644c-2.815,3.905-7.356,5.858-13.615,5.858h-3.896v-34.029     c-0.031-5.915,5.242-5.23,5.242-5.23h6.16c7.448,0,12.521,0.436,15.229,1.305c4.642,1.443,8.235,3.706,10.773,6.787     c2.541,3.084,4.508,8.161,5.911,15.241h3.335v-28.978h-82.888v3.969h2.614c3.185,0,5.696,0.673,7.528,2.019     c1.305,0.914,2.2,2.218,2.679,3.9c0.245,1.006,0.366,3.726,0.366,8.153v61.307c0,4.906-0.266,7.938-0.799,9.096     c-0.675,1.633-1.644,2.789-2.896,3.463c-1.74,1.012-4.032,1.516-6.875,1.516h-2.616v4.611h84.291l5.065-31.174h-4.625     c-2.415,8.678-6.386,15.133-11.913,19.361"
           id="path1129" /><path
           d="M1212.688,352.888c-14.125-0.583-26.03,4.02-35.697,13.819c-9.686,9.791-14.514,22.035-14.514,36.713     c0,13.078,3.718,24.378,11.16,33.907c9.414,12.053,22.738,18.088,39.975,18.088c17.18,0,30.49-6.319,39.908-18.964     c7.11-9.516,10.667-20.557,10.667-33.104c0-14.679-4.77-26.906-14.297-36.68c-9.537-9.775-21.927-14.366-37.185-13.778      M1235.236,431.349c-2.308,6.827-5.531,11.798-9.675,14.901c-3.25,2.434-7.3,3.647-12.153,3.647     c-7.206,0-12.803-2.821-16.814-8.454c-5.744-8.065-8.621-20.524-8.621-37.391c0-14.192,1.859-25.073,5.581-32.651     c4.567-9.229,11.227-13.844,19.984-13.844c4.757,0,8.96,1.338,12.609,4.011c3.649,2.671,6.65,7.253,9.004,13.737     c2.357,6.491,3.534,16.263,3.534,29.341c0,10.98-1.152,19.886-3.463,26.715"
           id="path1131" /></g><path
         d="M899.717,454.844c17.18,0,30.488-6.321,39.908-18.964c7.108-9.527,10.666-20.555,10.666-33.104    c0-14.679-4.77-26.905-14.299-36.68c-9.535-9.774-21.926-14.364-37.183-13.778c-14.125-0.582-26.03,4.021-35.697,13.82    c-9.684,9.79-14.514,22.035-14.514,36.713c0,13.077,3.717,24.379,11.162,33.906c9.411,12.053,22.736,18.088,39.974,18.088     M879.507,370.885c4.566-9.229,11.227-13.844,19.987-13.844c4.756,0,8.957,1.335,12.606,4.009    c3.649,2.673,6.651,7.253,9.007,13.737c2.354,6.49,3.532,16.262,3.532,29.332c0,10.98-1.152,19.888-3.462,26.715    c-2.305,6.827-5.531,11.798-9.675,14.909c-3.248,2.43-7.299,3.645-12.153,3.645c-7.206,0-12.805-2.819-16.817-8.454    c-5.743-8.065-8.618-20.524-8.618-37.39c0-14.192,1.858-25.073,5.579-32.651"
         id="path1135" /><path
         d="M849.935,420.502h-4.627c-2.414,8.676-6.387,15.133-11.913,19.359c-5.526,4.23-12.879,6.344-22.042,6.344h-5.229    c-2.801,0-4.823-0.385-6.082-1.15c-1.253-0.772-2.112-1.759-2.57-2.961c-0.457-1.204-0.688-4.498-0.688-9.882v-27.567    c4.71,0,10.228,0.615,12.705,1.846c2.474,1.225,4.647,3.626,6.513,7.191c1.872,3.567,3.098,7.503,3.681,13.094h3.976v-50.733    h-3.976c-0.779,7.619-2.575,12.739-5.392,16.644c-2.811,3.906-7.354,5.857-13.613,5.857h-3.897v-34.029    c-0.032-5.916,5.244-5.23,5.244-5.23h6.155c7.453,0,12.532,0.435,15.24,1.302c4.645,1.443,8.235,3.709,10.774,6.789    c2.541,3.082,4.51,8.164,5.914,15.239h3.332v-29.001h-82.887v3.994h2.612c3.185,0,5.696,0.674,7.529,2.017    c1.303,0.914,2.196,2.218,2.676,3.901c0.244,1.007,0.366,3.725,0.366,8.151v61.309c0,4.906-0.265,7.938-0.797,9.088    c-0.674,1.633-1.644,2.794-2.893,3.465c-1.74,1.012-4.032,1.516-6.882,1.516h-2.612v4.611h84.29l5.067-31.174L849.935,420.502z"
         id="path1137" /><path
         d="M690.849,447.002h-2.237c-3.21,0-6.061-0.985-8.554-2.957c-2.488-1.972-3.734-5.765-3.734-11.392v-59.211l64.138,79.957    l4.159,0.006v-81.55c0-4.637,0.385-5.983,1.15-7.891c0.765-1.908,1.835-3.285,3.201-4.131c1.368-0.844,4.05-1.532,8.04-2.064    v-4.149h-31.818v4.149c5.245-0.096,8.991,1.255,11.211,4.057c1.626,2.077,2.439,4.135,2.439,10.031v42.706l-49.931-60.943h-30.381    v3.291c2.888,0.096,2.991,1.063,4.529,1.88l8.138,8.191l-0.011,65.664c0,5.194-1.026,8.868-3.074,11.03    c-2.05,2.164-5.684,3.268-10.897,3.316v3.969h33.617v-3.969L690.849,447.002z"
         id="path1139" /><path
         stroke="#000000"
         stroke-width="0.133"
         d="M977.661,403.577c0,6.516-5.282,11.796-11.794,11.796    c-6.517,0-11.797-5.284-11.797-11.796c0-6.517,5.284-11.796,11.797-11.796C972.383,391.781,977.661,397.064,977.661,403.577z"
         id="path1141" /></g></g><path
     style="fill:#ffffff;stroke-width:0.46814948"
     d="M 49.447727,59.25466 C 33.707605,39.621642 20.118673,22.715594 19.2501,21.685665 l -1.579223,-1.872598 0.106216,30.676931 0.106217,30.676937 1.19601,2.323426 c 1.577956,3.065414 4.400762,4.83052 8.843988,5.530156 l 3.302262,0.519978 v 1.534908 1.534907 H 15.776637 0.32770463 v -1.601324 c 0,-1.726811 -0.0495666,-1.700384 4.45647727,-2.375793 4.6463583,-0.696438 7.2570631,-3.621351 8.1511211,-9.132126 0.31025,-1.912316 0.494827,-14.619803 0.497051,-34.220179 L 13.43589,14.102622 8.7711236,9.5761321 C 5.6577592,6.5550563 3.6337041,4.9551116 2.6851804,4.7654068 1.4958289,4.5275365 1.2640036,4.2605009 1.2640036,3.1283772 V 1.7755829 L 15.39397,1.8994848 29.523937,2.0233867 52.728893,30.430938 c 12.762724,15.624153 23.377376,28.42219 23.588118,28.440078 0.210743,0.01788 0.312392,-10.132163 0.225892,-22.55568 C 76.398502,15.576917 76.314689,13.563313 75.519439,11.726796 73.904132,7.9964899 69.798531,5.5345078 65.193176,5.5345078 c -1.630743,0 -1.665292,-0.038852 -1.665292,-1.8725979 V 1.789312 h 14.746708 14.746709 v 1.7867119 1.7867119 l -3.051717,0.6065848 c -3.892213,0.7736486 -5.720978,2.0239157 -7.21982,4.9359534 l -1.198125,2.327794 -0.131756,40.858994 -0.131751,40.858996 h -1.611001 c -1.571601,0 -2.310922,-0.873029 -30.229404,-35.696398 z"
     id="path1154"
     inkscape:connector-curvature="0" /><path
     style="fill:#ffffff;stroke-width:0.46814948"
     d="m 96.766497,91.276234 v -1.807576 l 2.973189,-0.277641 c 4.198084,-0.392024 6.623264,-1.476328 7.902294,-3.533148 l 1.06233,-1.708324 V 47.117172 c 0,-36.650687 -0.005,-36.838894 -0.98031,-38.1541828 -1.52213,-2.0523706 -4.13477,-3.2810308 -7.730168,-3.6353121 L 96.766497,5.0096637 V 3.3994878 1.789312 h 38.388253 38.38826 v 13.34226 13.34226 l -1.28741,-0.0033 c -1.207,-0.0031 -1.3372,-0.209769 -2.08467,-3.309003 -2.25049,-9.331347 -6.74293,-14.48094 -14.88575,-17.0632325 -3.3057,-1.0483201 -21.24037,-1.6004415 -22.91282,-0.7053744 -2.20691,1.1811042 -2.36725,2.5487425 -2.36725,20.1921649 v 16.462858 l 4.56446,-0.225984 c 10.45327,-0.517537 14.81001,-5.389177 17.17996,-19.210362 0.27981,-1.631778 0.41507,-1.755561 1.91834,-1.755561 h 1.61731 v 23.407474 23.407474 h -1.6296 c -1.31696,0 -1.66904,-0.202086 -1.83515,-1.053336 -1.92538,-9.866588 -5.12093,-15.596981 -9.87939,-17.716101 -1.69281,-0.753875 -8.10864,-1.82914 -10.914,-1.82914 h -1.1093 l 0.16898,17.204493 c 0.19377,19.727838 0.16616,19.581377 4.01197,21.282558 1.97086,0.871806 2.81596,0.932245 9.91494,0.709068 6.03603,-0.189759 8.53987,-0.470022 11.26822,-1.261293 9.2958,-2.695951 15.33551,-8.496122 19.02715,-18.272548 l 1.5026,-3.97927 1.90868,-0.143956 c 1.04977,-0.07917 1.90408,0.02617 1.89847,0.234074 -0.006,0.20792 -1.02125,6.592715 -2.25698,14.188441 l -2.24678,13.810409 -39.17425,0.119711 -39.174243,0.11971 z"
     id="path1156"
     inkscape:connector-curvature="0" /><path
     style="fill:#ffffff;stroke-width:0.46814948"
     d="m 216.15214,95.197094 c -14.36862,-2.714153 -25.20922,-10.924605 -31.84881,-24.12166 -3.59133,-7.13824 -5.14253,-14.201777 -5.14253,-23.41708 0,-6.496325 0.76313,-11.517153 2.54822,-16.76554 4.61893,-13.580221 16.35263,-24.8223767 29.98817,-28.7319157 3.40707,-0.9768624 4.6962,-1.0738106 14.27856,-1.0738106 9.54281,0 10.90463,0.1014477 14.48135,1.0787791 8.0866,2.2096485 14.10948,5.785443 19.97851,11.8612732 8.73004,9.037652 12.80688,19.524962 12.89557,33.172671 0.0913,14.041732 -4.17087,25.551397 -12.98892,35.075941 -5.25443,5.675408 -12.87946,10.222877 -20.5561,12.259378 -4.89279,1.297987 -18.28165,1.672993 -23.63402,0.661964 z m 18.81689,-5.762129 c 7.69114,-3.786332 12.8283,-13.833429 14.36366,-28.091993 0.66438,-6.169943 0.66687,-19.996304 0.005,-26.584852 -1.42707,-14.20124 -6.50114,-24.333094 -13.99873,-27.9525312 -7.8321,-3.7809246 -16.95264,-2.2775253 -22.86996,3.7698082 -6.99974,7.153548 -10.07867,18.609577 -10.09483,37.560713 -0.0157,18.430193 3.07835,30.323544 9.71393,37.339691 4.16561,4.404529 7.77436,5.766722 14.84224,5.602514 4.50357,-0.104632 5.20432,-0.247881 8.03891,-1.64335 z"
     id="path1158"
     inkscape:connector-curvature="0" /><path
     style="fill:#ffffff;stroke-width:0.46814948"
     d="m 285.47579,58.829287 c -7.64985,-2.198579 -10.43614,-11.270408 -5.30331,-17.266964 2.26561,-2.646849 4.60131,-3.725501 8.06715,-3.725501 8.13999,0 13.17178,8.099473 9.54867,15.370104 -1.42044,2.850444 -3.47491,4.57384 -6.55899,5.502011 -2.49555,0.751051 -3.48688,0.771787 -5.75352,0.12035 z"
     id="path1160"
     inkscape:connector-curvature="0" /><path
     style="fill:#ffffff;stroke-width:0.46814948"
     d="m 343.2472,95.827733 c -4.21868,-0.526958 -10.81178,-2.404294 -13.93605,-3.968189 -6.78463,-3.39613 -14.33354,-9.711518 -18.40841,-15.400391 -8.46023,-11.811214 -10.47677,-29.430638 -5.12234,-44.756196 4.59957,-13.165009 15.94782,-24.4670166 29.12771,-29.0090284 6.70405,-2.31032859 18.25666,-3.02388354 25.32924,-1.5644776 1.98463,0.409523 6.61643,1.8841939 10.2929,3.2770463 3.67645,1.3928525 7.11996,2.5324589 7.65223,2.5324589 1.75217,0 3.65365,-1.5598001 4.96788,-4.075208 0.81088,-1.5520101 1.59986,-2.47707542 2.11325,-2.4777724 0.76421,-0.001038 0.81926,1.06852 0.81926,15.9159702 v 15.917082 h -1.7805 -1.78051 l -1.48412,-3.628159 C 377.91712,20.962018 369.29288,10.472918 363.68221,7.4824614 357.73764,4.3140353 349.10607,4.4334336 342.37951,7.7771362 331.39676,13.236545 325.69958,27.258095 325.69567,48.838334 c -0.002,9.129308 0.55538,14.521314 2.15177,20.828668 2.80928,11.099585 7.89729,17.374511 16.59653,20.468137 2.97531,1.058074 4.27174,1.24252 8.86844,1.261723 6.68513,0.02795 9.46522,-0.792834 11.93127,-3.52245 l 1.69051,-1.871193 -0.13976,-11.644081 c -0.13085,-10.90175 -0.20114,-11.726218 -1.1026,-12.932522 -1.50284,-2.011067 -3.87269,-2.978254 -8.09537,-3.30388 -3.81493,-0.294186 -3.8159,-0.294602 -3.8159,-1.629324 v -1.33506 h 22.47117 22.47118 v 1.340219 c 0,1.30557 -0.0909,1.354885 -3.51671,1.907526 -3.61202,0.582682 -5.65211,1.746483 -6.91017,3.942029 -0.39743,0.693592 -0.64682,4.900697 -0.80871,13.642878 l -0.23407,12.640036 -4.44742,1.787039 c -11.8523,4.762433 -27.55212,6.909385 -39.55863,5.409654 z"
     id="path1162"
     inkscape:connector-curvature="0" /><path
     style="fill:#ffffff;stroke-width:0.46814948"
     d="m 390.29622,91.908086 v -2.106672 h 2.96934 c 3.85804,0 6.62431,-1.383097 7.99591,-3.997842 0.95427,-1.819159 0.97532,-2.487911 1.1194,-35.560789 0.0808,-18.538719 0.0109,-35.027746 -0.15532,-36.642281 -0.49976,-4.8550693 -2.97735,-6.9831411 -8.6874,-7.4618512 L 390.29622,5.8668592 V 4.296235 2.7256109 h 38.38826 38.38825 v 13.3422601 13.34226 h -1.33354 c -1.27616,0 -1.37761,-0.16683 -2.35776,-3.877098 C 461.24631,17.450745 457.92919,12.93913 452.1702,10.284636 447.86817,8.3017065 445.75291,7.9449916 436.17487,7.5872061 426.97869,7.2436855 424.88714,7.6564266 424,9.9897604 c -0.27692,0.7283556 -0.46517,8.0576446 -0.46517,18.1107786 v 16.887284 l 3.97551,-0.322571 c 2.18653,-0.177414 4.99977,-0.626743 6.25164,-0.99851 3.06742,-0.910924 6.33841,-3.882001 8.0866,-7.345141 1.49264,-2.956916 3.22113,-8.966762 3.22113,-11.199702 0,-1.239056 0.12747,-1.329562 1.8726,-1.329562 h 1.87259 v 23.407474 23.407474 h -1.87259 c -1.73723,0 -1.8726,-0.09442 -1.8726,-1.30609 0,-4.173983 -3.50057,-12.383617 -6.60338,-15.486427 -2.32337,-2.323365 -5.0475,-3.240175 -10.86164,-3.655508 l -4.12277,-0.294513 0.1435,17.532095 c 0.15873,19.394525 0.12575,19.183296 3.24661,20.797152 3.46872,1.793748 16.54463,1.23789 23.27252,-0.989307 4.5045,-1.491178 9.33593,-4.730403 12.12073,-8.12635 2.21107,-2.696292 5.98199,-10.01337 6.50299,-12.618346 0.27617,-1.38084 0.41952,-1.4705 2.35117,-1.4705 1.89234,0 2.03784,0.08436 1.81686,1.053337 -0.27507,1.206191 -4.45912,27.144346 -4.45912,27.643416 0,0.180683 -17.59072,0.328515 -39.09048,0.328515 h -39.09048 z"
     id="path1164"
     inkscape:connector-curvature="0" /><path
     style="fill:#ffffff;stroke-width:0.46814948"
     d="m 514.32259,96.321537 c -20.12354,-1.668283 -35.21638,-14.507025 -40.57217,-34.512742 -1.09368,-4.085293 -1.21969,-5.41766 -1.24879,-13.204535 -0.0379,-10.148651 0.72871,-14.062311 4.20483,-21.465365 2.62653,-5.593695 5.25822,-9.243839 9.8614,-13.677719 5.77623,-5.5637952 10.38356,-8.3020777 17.81798,-10.5898088 3.93314,-1.2103109 4.58074,-1.2682319 14.41741,-1.2894862 9.17171,-0.019818 10.75039,0.09249 14.41964,1.0258179 12.73101,3.2383235 23.19037,11.9603061 28.86078,24.0667911 6.99458,14.933611 5.97062,33.908474 -2.60192,48.215731 -2.69176,4.492446 -8.52149,10.855361 -12.63531,13.790925 -8.4198,6.008244 -19.84275,8.691686 -32.52385,7.640391 z m 13.75438,-6.16881 c 7.27813,-3.375259 12.48292,-13.020576 14.46271,-26.801759 0.91356,-6.359225 0.75466,-24.875301 -0.27119,-31.60009 -2.4079,-15.784633 -9.0159,-24.6175181 -19.65596,-26.274023 -5.90078,-0.9186659 -11.67438,0.8333128 -16.09996,4.885472 -5.66124,5.183565 -9.13749,14.147055 -10.46067,26.972772 -0.70601,6.843451 -0.29122,22.637759 0.74315,28.297424 2.56239,14.020445 7.79838,22.314775 15.92226,25.222438 1.83188,0.655662 3.46025,0.807487 7.49039,0.698394 4.43011,-0.119916 5.52964,-0.315621 7.86927,-1.400628 z"
     id="path1166"
     inkscape:connector-curvature="0" /></svg>