<?xml version="1.0" encoding="UTF-8" standalone="no"?>
<svg
   xmlns:dc="http://purl.org/dc/elements/1.1/"
   xmlns:cc="http://creativecommons.org/ns#"
   xmlns:rdf="http://www.w3.org/1999/02/22-rdf-syntax-ns#"
   xmlns:svg="http://www.w3.org/2000/svg"
   xmlns="http://www.w3.org/2000/svg"
   xmlns:sodipodi="http://sodipodi.sourceforge.net/DTD/sodipodi-0.dtd"
   xmlns:inkscape="http://www.inkscape.org/namespaces/inkscape"
   version="1.0"
   width="700.000000pt"
   height="350.000000pt"
   viewBox="0 0 700.000000 350.000000"
   preserveAspectRatio="xMidYMid meet"
   id="svg1076"
   sodipodi:docname="system.svg"
   inkscape:version="0.92.2 (5c3e80d, 2017-08-06)">
  <defs
     id="defs1080" />
  <sodipodi:namedview
     pagecolor="#ffffff"
     bordercolor="#666666"
     borderopacity="1"
     objecttolerance="10"
     gridtolerance="10"
     guidetolerance="10"
     inkscape:pageopacity="0"
     inkscape:pageshadow="2"
     inkscape:window-width="1366"
     inkscape:window-height="746"
     id="namedview1078"
     showgrid="false"
     inkscape:zoom="1.2364286"
     inkscape:cx="466.66667"
     inkscape:cy="233.33333"
     inkscape:window-x="1912"
     inkscape:window-y="1072"
     inkscape:window-maximized="1"
     inkscape:current-layer="svg1076" />
  <metadata
     id="metadata1062">
Created by potrace 1.12, written by Peter Selinger 2001-2015
<rdf:RDF>
  <cc:Work
     rdf:about="">
    <dc:format>image/svg+xml</dc:format>
    <dc:type
       rdf:resource="http://purl.org/dc/dcmitype/StillImage" />
  </cc:Work>
</rdf:RDF>
</metadata>
  <g
     transform="translate(0.000000,350.000000) scale(0.100000,-0.100000)"
     fill="#000000"
     stroke="none"
     id="g1074">
    <path
       d="M2845 2996 c-39 -17 -70 -52 -90 -98 -12 -31 -15 -85 -15 -298 l0 -260 -77 0 c-104 0 -153 -24 -193 -94 -39 -66 -39 -116 -2 -187 38 -74 88 -99 193 -99 l78 0 3 -432 c4 -414 5 -436 26 -499 42 -125 144 -249 249 -302 112 -57 296 -78 426 -49 106 25 162 99 155 207 -5 76 -35 122 -103 155 -49 24 -81 24 -188 1 -62 -14 -140 11 -171 52 -20 28 -21 41 -24 448 l-3 419 138 0 c188 1 227 18 274 124 15 34 20 61 16 87 -7 56 -54 120 -107 147 -39 20 -59 22 -182 22 l-137 0 -3 278 -3 279 -29 37 c-51 67 -156 95 -231 62z"
       id="path1064" />
    <path
       d="M305 2961 c-48 -22 -69 -44 -90 -94 -13 -32 -15 -160 -15 -1044 0 -940 1 -1010 18 -1042 62 -124 243 -135 319 -20 l28 43 0 1010 c0 556 -3 1023 -7 1038 -19 65 -105 128 -175 128 -21 0 -56 -9 -78 -19z"
       id="path1066" />
    <path
       d="M4335 2336 c-235 -55 -404 -187 -482 -378 -57 -141 -63 -201 -63 -687 0 -434 0 -446 21 -489 44 -90 158 -128 249 -82 47 24 76 63 89 121 6 26 11 220 11 475 0 407 1 433 21 491 25 75 75 135 131 158 57 23 179 30 251 15 68 -14 118 -52 149 -114 42 -85 99 -126 173 -126 60 0 103 19 142 63 71 81 67 161 -13 279 -123 182 -292 275 -513 284 -69 2 -127 -1 -166 -10z"
       id="path1068" />
    <path
       d="M1005 2323 c-46 -24 -66 -45 -86 -88 -17 -37 -19 -75 -19 -493 0 -376 3 -466 16 -530 29 -141 79 -235 183 -346 73 -77 156 -130 255 -163 71 -23 97 -26 216 -27 120 0 144 3 215 27 223 74 372 235 437 472 21 76 22 103 26 535 4 485 2 505 -45 560 -93 111 -261 83 -318 -52 -13 -32 -15 -103 -15 -482 0 -419 -1 -448 -21 -510 -41 -135 -138 -194 -304 -184 -125 8 -189 51 -239 158 -20 43 -21 65 -26 531 l-5 486 -27 40 c-49 74 -168 106 -243 66z"
       id="path1070" />
    <path
       d="M5917 2324 c-226 -50 -416 -216 -494 -431 -46 -128 -57 -197 -57 -383 -1 -256 36 -405 138 -559 85 -127 208 -214 366 -257 90 -25 291 -25 380 -1 189 52 340 175 424 347 56 117 84 234 92 396 25 448 -173 788 -511 878 -88 24 -255 29 -338 10z m291 -384 c57 -24 110 -77 142 -139 76 -149 66 -484 -18 -621 -54 -88 -156 -140 -272 -140 -168 0 -277 92 -316 268 -22 98 -16 353 10 427 39 111 98 174 202 216 65 26 178 21 252 -11z"
       id="path1072" />
  </g>
  <path
     style="fill:#ffffff;stroke-width:0.80878103"
     d="m 42.440446,373.90338 c -4.32978,-1.59351 -10.907649,-7.46753 -12.804458,-11.43436 -1.213439,-2.53769 -1.558555,-6.28976 -2.065636,-22.45747 -0.772978,-24.64548 -0.782915,-193.76888 -0.0134,-228.07625 l 0.58051,-25.880996 2.389964,-4.38593 c 2.951974,-5.417299 7.080828,-8.494757 14.365557,-10.707425 4.958679,-1.506153 6.101853,-1.589945 9.948158,-0.72918 8.563518,1.916432 17.321346,9.661931 18.973595,16.780413 0.400252,1.724429 0.724802,62.624138 0.735583,138.027608 l 0.01929,134.94159 -1.744428,2.55119 c -3.020345,4.4172 -7.438442,8.69247 -10.791678,10.44279 -4.277496,2.23278 -14.705768,2.7267 -19.593061,0.92802 z"
     id="path1082"
     inkscape:connector-curvature="0"
     transform="scale(0.75000002)" />
  <path
     style="fill:#ffffff;stroke-width:0.80878103"
     d="m 190.56813,375.16437 c -5.73309,-1.0136 -17.68674,-5.31051 -22.9887,-8.2636 -15.65958,-8.72212 -30.40532,-24.52003 -38.19256,-40.91777 -1.76293,-3.71224 -4.33623,-10.99127 -5.71845,-16.17563 l -2.51313,-9.42609 -0.29831,-60.20874 c -0.31932,-64.45031 -0.15615,-67.81797 3.59612,-74.22073 8.74422,-14.92088 32.48224,-14.05998 42.59863,1.54491 l 2.78009,4.28838 0.51356,58.06273 c 0.58663,66.3226 0.90774,71.8835 4.56966,79.13773 6.68222,13.2374 17.82486,19.27223 35.62159,19.29256 19.35483,0.0221 31.49525,-8.54481 36.66803,-25.87488 1.85052,-6.19966 2.11325,-13.29341 2.77089,-74.81225 l 0.57927,-54.18833 2.11661,-4.04391 c 2.53334,-4.84011 6.99381,-9.2496 11.96173,-11.82502 4.93448,-2.55808 14.10432,-2.65449 19.45184,-0.20451 9.09259,4.16581 13.37533,10.44186 14.642,21.45685 1.11237,9.6731 0.31141,112.28613 -0.94912,121.59521 -0.48187,3.55864 -2.1342,10.23942 -3.67184,14.84619 -9.70568,29.07815 -27.96298,47.53396 -56.97144,57.59089 -7.65807,2.65498 -7.74078,2.66444 -25.07221,2.86781 -9.56383,0.11223 -19.23625,-0.12258 -21.49426,-0.5218 z"
     id="path1084"
     inkscape:connector-curvature="0"
     transform="scale(0.75000002)" />
  <path
     style="fill:#ffffff;stroke-width:0.80878103"
     d="m 428.1495,376.75102 c -16.52716,-2.14481 -28.3038,-7.35521 -38.55353,-17.05744 -12.44956,-11.78455 -20.44426,-26.31742 -22.20942,-40.3726 -0.47025,-3.74439 -1.09426,-30.85182 -1.38668,-60.23873 l -0.53168,-53.43074 -11.39383,-0.8223 c -8.8631,-0.63964 -12.1294,-1.20152 -14.70553,-2.52969 -6.95149,-3.58396 -12.45418,-12.56268 -13.08792,-21.3555 -0.34325,-4.76253 -0.10479,-6.00678 2.0224,-10.55247 3.19898,-6.83606 6.58433,-10.53495 11.7428,-12.83033 3.59199,-1.59834 5.91537,-1.94036 14.96833,-2.20343 l 10.71635,-0.31141 0.025,-31.26091 c 0.0278,-34.849677 0.53296,-41.29647 3.65279,-46.620047 4.48691,-7.656332 10.61125,-11.175221 19.3725,-11.130945 9.19255,0.04646 16.11165,3.502783 21.90946,10.944527 l 2.84635,3.653418 0.48884,37.223537 0.48883,37.22354 19.08012,0.26499 19.0801,0.26498 4.28942,2.37627 c 5.16218,2.85975 9.05292,7.00208 11.98437,12.75934 3.12193,6.13134 2.99469,11.52816 -0.44791,18.99695 -3.1076,6.74203 -7.1397,10.9828 -12.18636,12.81701 -3.78478,1.37559 -19.84304,2.6662 -34.171,2.74636 l -7.88562,0.0441 0.0624,29.7227 c 0.0866,41.2121 1.13253,81.0237 2.19717,83.63117 1.84514,4.51909 7.46924,8.09639 14.88373,9.46703 3.72178,0.688 6.23443,0.54357 13.72362,-0.78888 10.60937,-1.88758 15.11256,-1.6231 20.71667,1.21672 8.25688,4.18407 11.47756,8.40914 13.04926,17.11874 2.17821,12.07054 -3.03579,22.95808 -13.30943,27.79191 -7.74843,3.64569 -23.6853,5.02605 -37.43163,3.24212 z"
     id="path1086"
     inkscape:connector-curvature="0"
     transform="scale(0.75000002)" />
  <path
     style="fill:#ffffff;stroke-width:0.80878103"
     d="m 521.32842,373.8856 c -4.30181,-1.52564 -9.48864,-5.99458 -12.0701,-10.39951 -3.14838,-5.37232 -3.59625,-12.83097 -3.59494,-59.86968 0.002,-62.80053 1.0743,-78.00248 6.55218,-92.86806 5.62588,-15.26725 13.68066,-26.6318 25.74381,-36.32213 8.38802,-6.73811 18.0989,-11.81849 30.9898,-16.21273 l 9.89543,-3.37315 16.17562,-0.007 c 14.07355,-0.006 17.10126,0.22742 23.29854,1.79571 15.49424,3.92097 28.97147,11.58599 39.07723,22.22473 16.28038,17.139 22.25019,32.18353 17.01519,42.88003 -2.54907,5.20842 -7.5577,10.53791 -12.06407,12.83689 -4.1644,2.12451 -12.30281,2.87883 -16.96467,1.57238 -6.17892,-1.73159 -10.56288,-5.72389 -15.99855,-14.56924 -5.49032,-8.93431 -8.03133,-11.48802 -14.29704,-14.36856 -8.78046,-4.03665 -28.44039,-4.30224 -39.47738,-0.53331 -5.1494,1.75843 -13.01206,9.45271 -16.00448,15.66175 -4.82543,10.01241 -4.75095,9.01502 -5.4662,73.19469 -0.36208,32.48966 -1.00417,60.31403 -1.42778,61.87175 -2.0659,7.59688 -6.31223,12.91495 -12.6879,15.89024 -4.7726,2.22719 -13.32496,2.49939 -18.69469,0.59501 z"
     id="path1088"
     inkscape:connector-curvature="0"
     transform="scale(0.75000002)" />
  <path
     style="fill:#ffffff;stroke-width:0.80878103"
     d="m 787.82905,374.74351 c -22.43616,-4.0619 -42.56688,-17.78309 -55.10919,-37.56269 -13.16709,-20.7649 -17.48448,-41.40651 -16.54929,-79.12272 0.48667,-19.62715 1.50518,-26.57357 5.77167,-39.3637 9.76386,-29.27016 32.99013,-51.76793 62.33275,-60.37764 5.88396,-1.72648 8.00924,-1.8985 23.45465,-1.8985 18.88458,0 24.84163,0.90758 35.99075,5.48337 30.01556,12.31889 49.48793,39.30956 56.42871,78.21585 2.08712,11.69931 1.8217,42.38439 -0.47657,55.09619 -6.23789,34.50185 -22.43793,58.2175 -49.07261,71.83861 -7.95258,4.067 -16.92301,7.06532 -24.26832,8.11158 -8.09524,1.15307 -31.20524,0.90077 -38.50255,-0.42035 z m 31.02721,-47.64549 c 11.90557,-2.5229 22.54427,-10.65917 27.34124,-20.91002 9.81495,-20.97408 10.11805,-60.29338 0.61522,-79.81018 -2.92323,-6.00369 -11.32572,-14.98025 -16.48573,-17.61204 -4.14188,-2.11252 -11.36288,-3.955 -18.14906,-4.63084 -17.3894,-1.73182 -34.73524,8.12262 -42.40759,24.09241 -4.5713,9.51504 -5.54204,16.26081 -5.61134,38.99391 -0.0531,17.43494 0.1218,20.12918 1.71877,26.46879 4.81438,19.11201 15.51122,30.34366 32.14649,33.75377 5.20012,1.06599 14.93212,0.90444 20.832,-0.3458 z"
     id="path1090"
     inkscape:connector-curvature="0"
     transform="scale(0.75000002)" />
</svg>
