<?xml version="1.0" encoding="UTF-8" standalone="no"?>
<!-- Generator: Adobe Illustrator 13.0.0, SVG Export Plug-In . SVG Version: 6.00 Build 14948)  -->

<svg
   xmlns:dc="http://purl.org/dc/elements/1.1/"
   xmlns:cc="http://creativecommons.org/ns#"
   xmlns:rdf="http://www.w3.org/1999/02/22-rdf-syntax-ns#"
   xmlns:svg="http://www.w3.org/2000/svg"
   xmlns="http://www.w3.org/2000/svg"
   xmlns:sodipodi="http://sodipodi.sourceforge.net/DTD/sodipodi-0.dtd"
   xmlns:inkscape="http://www.inkscape.org/namespaces/inkscape"
   version="1.2"
   id="Ebene_1"
   x="0px"
   y="0px"
   width="566.936px"
   height="85.117px"
   viewBox="0 0 566.936 85.117"
   xml:space="preserve"
   sodipodi:docname="system.svg"
   inkscape:version="0.92.2 (5c3e80d, 2017-08-06)"><metadata
     id="metadata5595"><rdf:RDF><cc:Work
         rdf:about=""><dc:format>image/svg+xml</dc:format><dc:type
           rdf:resource="http://purl.org/dc/dcmitype/StillImage" /></cc:Work></rdf:RDF></metadata><defs
     id="defs5593" /><sodipodi:namedview
     pagecolor="#ffffff"
     bordercolor="#666666"
     borderopacity="1"
     objecttolerance="10"
     gridtolerance="10"
     guidetolerance="10"
     inkscape:pageopacity="0"
     inkscape:pageshadow="2"
     inkscape:window-width="1366"
     inkscape:window-height="746"
     id="namedview5591"
     showgrid="false"
     inkscape:zoom="2.1360437"
     inkscape:cx="283.04134"
     inkscape:cy="49.47865"
     inkscape:window-x="1912"
     inkscape:window-y="1072"
     inkscape:window-maximized="1"
     inkscape:current-layer="Ebene_1" /><g
     id="g5586"><polygon
       fill="#6B6B6B"
       points="110.912,61.863 118.646,29.436 126.435,23.255 134.167,23.255 126.435,55.682 134.167,51.055    140.375,27.912 145.031,23.255 155.926,23.255 148.165,55.682 155.926,49.529 160.555,29.436 166.792,23.255 176.133,23.255    168.372,54.158 159.059,61.863  "
       id="polygon5566" /><polygon
       fill="#6B6B6B"
       points="425.39,61.863 429.341,43.35 436.367,36.604 445.398,36.604 440.094,56.953 447.883,52.324    449.857,41.797 455.052,36.604 465.889,36.604 460.582,56.953 467.921,52.042 470.009,43.35 476.781,36.604 484.854,36.604    480.338,54.158 469.755,61.863  "
       id="polygon5568" /><path
       fill="#6B6B6B"
       d="M364.797,61.863l7.789-7.705h33.416c0,0,2.877,0.848,4.516-2.793c1.495-3.389-1.41-3.389-1.41-3.389   h-15.522c0,0-4.459-1.017-4.486-6.491c-0.085-13.461,10.979-16.934,10.979-16.934H432.7l-6.489,6.436h-17.104   c0,0-5.447,1.553-5.562,6.097c-0.084,2.06,2.455,1.637,2.455,1.637h13.941c0,0,8.07,1.354,6.209,10.047   c-2.429,11.431-10.839,13.095-10.839,13.095L364.797,61.863L364.797,61.863z"
       id="path5570" /><path
       fill="#6B6B6B"
       d="M338.269,61.863h13.94l4.233-16.029c0.509-1.863,5.419-3.979,4.121-3.754   c-1.271,0.226,4.459-0.848,4.459-0.848s1.806,0.508,2.709,1.75c0.933,1.213-0.903,3.021-1.157,4.432   c-0.254,1.41,1.553,1.552,1.553,1.552h7.789c0,0,4.178-1.552,5.307-3.104c1.103-1.579,2.482-3.216,2.482-4.599   c0-1.383-3.076-3.104-3.076-3.104l-3.133-1.524h-23.283c0,0-11.146,6.379-12.443,7.705   C341.315,44.732,338.269,61.863,338.269,61.863z"
       id="path5572" /><path
       fill="#6B6B6B"
       d="M175.313,44.168c-1.072,1.24-4.571,12.135-3.81,13.912c0.79,1.723,5.108,3.781,5.108,3.781h22.69   c0,0,10.583-6.633,11.401-7.563c0.79-0.959,3.782-11.543,3.782-12.645c0-1.101-2.54-5.052-2.54-5.052h-26.529   C185.417,36.604,176.416,42.926,175.313,44.168z M193.009,41.656h6.971c0,0-0.79,8.383-2.539,10.752   c-1.778,2.371-5.701,4.432-5.701,4.432s-4.402,0.452-5.023,0c-0.649-0.508-0.17-5.053-0.17-5.053s0.593-4.909,1.411-6.35   C188.749,44.027,193.009,41.656,193.009,41.656z"
       id="path5574" /><path
       fill="#6B6B6B"
       d="M259.924,44.168c-1.073,1.24-4.572,12.135-3.782,13.912c0.79,1.723,5.08,3.781,5.08,3.781h31.58   c0,0,1.045-5.022,2.344-10.104c1.24-4.771,2.709-12.105,2.709-12.645c0-1.129,7.846-11.033,7.846-11.033h-13.717l-6.94,8.521   h-15.015C270.057,36.604,261.054,42.926,259.924,44.168z M277.619,41.656h6.942c0,0-0.764,8.383-2.541,10.752   c-1.723,2.371-5.673,4.432-5.673,4.432s-4.402,0.452-5.052,0c-0.593-0.508-0.169-5.053-0.169-5.053s0.593-4.909,1.439-6.35   C273.357,44.027,277.619,41.656,277.619,41.656z"
       id="path5576" /><path
       fill="#6B6B6B"
       d="M211.101,61.863l7.168-25.26h30.311c0,0,4.008,0.424,5.362,2.682c1.411,2.259,0.96,6.152,0.96,6.152   l-4.121,16.426h-12.644c0,0,1.468-8.043,2.879-13.887c1.411-5.842-2.54-6.32-2.54-6.32h-7.563l-4.346,15.154   c0,0-3.782,4.402-5.362,5.053H211.101z"
       id="path5578" /><path
       fill="#6B6B6B"
       d="M522.162,61.863l8.044-25.26h30.311c0,0,3.979,0.424,5.392,2.682c1.412,2.259,0.96,6.152,0.96,6.152   l-4.263,16.426h-13.856c0,0,2.313-6.772,3.782-12.646c1.411-5.813-2.062-7.563-2.062-7.563h-7.592l-4.233,15.154   c0,0-3.498,4.403-5.051,5.053h-11.432V61.863z"
       id="path5580" /><path
       fill="#6B6B6B"
       d="M301.606,44.168c-1.102,1.24-4.543,12.135-3.78,13.912c0.762,1.723,5.051,3.781,5.051,3.781h22.72   c0,0,4.517-2.822,7.874-5.053c0,0-19.305,0.143-20.488,0c-0.536-0.056-0.339-2.396-0.282-3.779h15.521c0,0,2.991-0.649,7.45-4.348   c4.516-3.695,5.08-4.093,5.08-7.028c0-2.905-2.541-5.052-2.541-5.052h-26.527C311.739,36.604,302.709,42.926,301.606,44.168z    M319.332,41.656h10.188c0,0-1.129,3.867-6.688,6.32h-8.494c-0.819-2.199,1.186-3.949,2.313-4.91   C317.836,41.994,319.332,41.656,319.332,41.656z"
       id="path5582" /><path
       fill="#6B6B6B"
       d="M505.737,61.863c0,0,4.29-13.574,5.646-17.922c0.677-2.37-0.902-2.285-3.896-2.285   s-5.165,0.648-9.313,7.563c-4.854,8.072,7.168,10.273,7.168,10.273l-0.848,2.369H490.61c0,0-7.593,0.312-7.593-8.832   c0-11.232,14.365-16.427,14.365-16.427h30.338l-8.07,25.259h-13.913V61.863L505.737,61.863z"
       id="path5584" /></g><path
     fill="#FF0000"
     d="M72.559,23.369c0.705-0.028,1.439-0.058,2.173-0.058c15.805,0,29.352,15.324,30.367,23.113  c0.112,0.819,0.169,1.553,0.226,2.174C105.127,27.32,71.966,0,45.325,0C24.778,0,15.184,8.297,12.022,17.667  c-4.741,11.825,1.496,28.646,16.059,40.61c1.552,1.242,3.076,2.398,4.656,3.473c-0.678,0.057-1.411,0.057-2.145,0.057  c-15.805,0-29.352-15.324-30.367-23.113C0.141,37.875,0.057,37.141,0,36.52c0.197,21.279,33.358,48.598,60,48.598  c20.545,0,30.141-8.324,33.302-17.666c4.741-11.798-1.496-28.616-16.059-40.611C75.69,25.598,74.167,24.441,72.559,23.369z   M42.896,58.703c-11.74-9.625-15.635-23.765-9.06-31.808c6.632-8.043,21.59-7.112,33.612,2.259  c11.91,9.256,16.481,23.368,10.386,31.778c2.483-5.053-0.282-12.646-6.83-17.81c-7.026-5.531-15.86-6.096-19.755-1.326  c-3.923,4.771-1.58,13.181,5.306,18.908c5.334,4.432,11.797,5.981,16.425,4.375C65.164,69.229,52.831,66.859,42.896,58.703z"
     id="path5588" /><path
     style="fill:#ffffff;stroke-width:0.46815524"
     d="m 111.32201,61.316726 c 0,-0.892597 7.57467,-31.839124 7.851,-32.075462 0.18794,-0.160747 1.85782,-1.483738 3.71085,-2.939979 l 3.36913,-2.647712 h 3.82099 c 3.72828,0 3.8146,0.02555 3.55812,1.053349 -2.24456,8.994431 -7.35339,30.912995 -7.23326,31.033118 0.0881,0.08809 1.92562,-0.933241 4.08342,-2.269615 l 3.92327,-2.429771 3.09546,-11.57442 c 3.08635,-11.540343 3.10159,-11.580657 5.17523,-13.69354 l 2.07976,-2.119121 h 5.44459 5.4446 L 151.7863,39.68789 c -2.12238,8.818874 -3.80564,16.090086 -3.74058,16.158249 0.0651,0.06816 1.91143,-1.301191 4.10304,-3.043009 l 3.98476,-3.166942 2.22879,-9.83126 2.22879,-9.831259 3.0911,-3.160048 3.09109,-3.160048 h 4.51992 4.51991 l -3.80512,15.187478 -3.80513,15.187478 -4.55882,3.772809 -4.55882,3.772808 h -23.88161 c -13.13489,0 -23.88161,-0.115839 -23.88161,-0.25742 z"
     id="path5597"
     inkscape:connector-curvature="0" /><path
     style="fill:#ffffff;stroke-width:0.46815524"
     d="m 174.99112,60.758703 c -3.0678,-2.008692 -3.38867,-2.53549 -3.09411,-5.079735 0.31839,-2.750099 2.35322,-9.279447 3.38844,-10.872838 0.38764,-0.596649 2.83004,-2.65068 5.42755,-4.564514 l 4.72274,-3.479697 h 13.26194 13.26193 l 1.21802,2.403648 c 1.38001,2.72332 1.36219,2.882397 -1.2202,10.893934 l -1.37257,4.258239 -5.57497,3.628203 -5.57496,3.628203 -11.63671,-0.02456 c -9.95967,-0.02102 -11.80539,-0.134996 -12.8071,-0.790887 z m 16.89582,-4.039851 c 2.46435,-0.880893 5.04338,-3.015012 6.06603,-5.019571 0.66867,-1.310699 2.31853,-8.485781 2.31853,-10.083055 0,-0.09501 -1.64411,-0.172754 -3.65359,-0.172754 -3.20798,0 -3.90742,0.161539 -5.7349,1.324508 -1.14472,0.72848 -2.37087,1.677007 -2.72478,2.107839 -1.51505,1.844372 -2.60131,11.668429 -1.34619,12.17488 1.06297,0.42892 3.36833,0.278173 5.0749,-0.331847 z"
     id="path5599"
     inkscape:connector-curvature="0" /><path
     style="fill:#ffffff;stroke-width:0.46815524"
     d="m 211.52176,61.22303 c 0.008,-0.193114 1.55791,-5.723198 3.44426,-12.289075 l 3.42972,-11.937958 14.46268,-0.138149 c 7.95447,-0.07598 15.37139,-0.0084 16.48204,0.150178 1.24215,0.177356 2.5762,0.785858 3.46613,1.58101 2.38229,2.128576 2.35261,5.021892 -0.15275,14.889034 l -2.05565,8.095993 -5.96898,4.1e-5 c -7.07854,5e-5 -6.61085,0.864221 -4.55681,-8.419853 1.72058,-7.776811 1.75063,-9.058689 0.24765,-10.561671 -1.04939,-1.049387 -1.51386,-1.149108 -5.35224,-1.149108 -3.59925,0 -4.23768,0.117706 -4.44362,0.819271 -0.13228,0.4506 -1.10969,3.873985 -2.17204,7.607523 -1.86929,6.569483 -2.00914,6.867459 -4.33957,9.246065 l -2.40803,2.457815 h -5.04866 c -2.77677,0 -5.04212,-0.158002 -5.03413,-0.351116 z"
     id="path5601"
     inkscape:connector-curvature="0" /><path
     style="fill:#ffffff;stroke-width:0.46815524"
     d="m 258.71825,60.038847 c -2.7076,-2.059924 -2.82936,-3.587271 -0.80204,-10.06115 1.72307,-5.502333 1.98351,-5.827421 8.32035,-10.385624 l 3.9345,-2.830154 7.53531,-0.01061 7.5353,-0.01061 3.41261,-4.202783 3.4126,-4.202783 h 6.59302 c 5.21692,0 6.49337,0.122142 6.11562,0.585194 -2.07145,2.539219 -6.66092,8.992742 -6.84699,9.62796 -0.12704,0.433672 -0.98634,4.159212 -1.90957,8.278978 -0.92323,4.119766 -2.04813,9.070507 -2.49977,11.001647 l -0.82118,3.511165 -15.97286,0.123132 -15.97286,0.123132 z m 17.47368,-3.160446 c 0.94481,-0.262419 2.78495,-1.436551 4.0892,-2.609183 2.63311,-2.367391 3.54027,-4.555258 4.08227,-9.845435 l 0.30534,-2.980311 h -3.58512 c -2.99165,0 -3.8839,0.188617 -5.39012,1.139446 -2.49415,1.574493 -3.63869,3.178506 -4.22769,5.924921 -0.55686,2.596571 -0.67873,8.052839 -0.19077,8.540807 0.4609,0.460894 2.95555,0.374518 4.91689,-0.170245 z"
     id="path5603"
     inkscape:connector-curvature="0" /><path
     style="fill:#ffffff;stroke-width:0.46815524"
     d="m 300.37607,60.01942 c -1.92872,-1.48004 -2.02518,-1.669574 -2.00788,-3.945504 0.01,-1.314928 0.63823,-4.331031 1.39609,-6.702452 1.54987,-4.84971 1.94555,-5.324968 8.14785,-9.786436 l 3.94426,-2.837198 13.37749,0.124084 13.37749,0.124083 1.11808,2.255001 c 1.69988,3.428388 1.04285,5.025955 -3.57601,8.695072 -5.85596,4.651847 -6.12179,4.733127 -15.47978,4.733127 h -8.04491 v 2.106698 2.106699 l 10.18238,6.3e-5 10.18238,6.3e-5 -3.65326,2.340713 -3.65326,2.340713 h -11.64243 -11.64243 z m 25.22927,-13.384612 c 1.91785,-1.389284 3.877,-3.75341 3.877,-4.678411 0,-0.821531 -10.03596,-0.673208 -11.67136,0.172493 -1.84254,0.952814 -3.77776,3.378028 -3.77776,4.734286 0,1.127447 0.03,1.134469 4.84539,1.134469 4.60792,0 4.93759,-0.06679 6.72673,-1.362837 z"
     id="path5605"
     inkscape:connector-curvature="0" /><path
     style="fill:#ffffff;stroke-width:0.46815524"
     d="m 338.88115,59.596692 c 0.21755,-1.101026 0.94205,-4.845908 1.60998,-8.321961 0.76838,-3.998783 1.50594,-6.609124 2.00811,-7.107015 0.43652,-0.432806 3.273,-2.276167 6.30327,-4.096358 l 5.5096,-3.309439 h 11.47968 c 10.75005,0 11.60496,0.06287 13.45069,0.989143 2.56478,1.287119 4.07771,2.699506 4.07771,3.806705 0,1.721721 -2.69589,4.895332 -5.23201,6.159132 -2.02811,1.010651 -3.08174,1.21584 -6.21267,1.209887 -5.01533,-0.0095 -5.3879,-0.267583 -4.36626,-3.02411 0.92923,-2.507205 0.72537,-3.310849 -1.07619,-4.242473 -1.83972,-0.951357 -5.48492,-0.126737 -8.02772,1.816038 -1.92287,1.469129 -1.94856,1.529742 -4.09837,9.671111 l -2.16337,8.192717 -6.829,0.129244 -6.82901,0.129243 z"
     id="path5607"
     inkscape:connector-curvature="0" /><path
     style="fill:#ffffff;stroke-width:0.46815524"
     d="m 368.79571,58.074734 3.4994,-3.522916 h 17.42847 c 12.51531,0 17.77452,-0.157669 18.656,-0.559298 1.41153,-0.643139 2.56177,-2.593898 2.56177,-4.344671 0,-1.816582 -1.46258,-2.11836 -10.26676,-2.11836 -7.11095,0 -7.97721,-0.08825 -9.03518,-0.920442 -1.83958,-1.447014 -2.39981,-3.361036 -2.10079,-7.177234 0.44674,-5.701305 2.87303,-9.899952 7.51046,-12.996708 l 2.76324,-1.845221 h 16.20152 16.20152 l -3.01596,3.043009 -3.01596,3.043008 h -8.63326 c -8.39941,0 -8.6882,0.0322 -10.66145,1.188595 -3.13438,1.83687 -4.56921,5.663468 -2.53233,6.753573 0.52185,0.279284 4.26141,0.484626 8.82572,0.484626 7.44284,0 8.01346,0.06348 9.46787,1.05335 2.67044,1.817483 3.50331,3.353355 3.44229,6.347842 -0.10238,5.024021 -3.03286,10.539729 -7.12993,13.419811 l -2.01486,1.416371 -25.82559,0.12879 -25.8256,0.128792 z"
     id="path5609"
     inkscape:connector-curvature="0" /><path
     style="fill:#ffffff;stroke-width:0.46815524"
     d="m 425.91758,60.988952 c -0.003,-0.321857 0.76761,-4.271916 1.71161,-8.77791 l 1.71636,-8.192717 3.54414,-3.628203 3.54415,-3.628203 h 4.34142 c 2.38778,0 4.33851,0.05267 4.33494,0.117039 -0.004,0.06437 -1.15583,4.529968 -2.56059,9.923547 -1.40476,5.39358 -2.46471,9.895913 -2.35544,10.005185 0.30758,0.307577 7.61857,-4.094563 7.86082,-4.733207 0.11802,-0.311121 0.58318,-2.672373 1.0337,-5.247226 0.81765,-4.67318 0.8238,-4.686367 3.44157,-7.373445 l 2.62245,-2.691893 h 5.23682 5.23682 l -2.56297,9.87659 c -1.40963,5.432124 -2.46005,9.979505 -2.33427,10.105293 0.12579,0.125787 1.81805,-0.843775 3.76059,-2.154582 2.95465,-1.993784 3.60642,-2.669786 3.98804,-4.136315 0.25089,-0.964165 0.77502,-3.001329 1.16474,-4.527032 0.61131,-2.393187 1.14383,-3.212612 3.87907,-5.968979 l 3.1705,-3.194975 h 3.87483 c 2.13116,0 3.87484,0.114815 3.87484,0.255144 0,0.243325 -3.41083,13.801361 -4.03032,16.020519 -0.17777,0.636794 -2.35844,2.554315 -5.45713,4.798591 l -5.16105,3.737973 h -21.93545 c -17.23373,0 -21.93647,-0.125432 -21.94019,-0.585194 z"
     id="path5611"
     inkscape:connector-curvature="0" /><path
     style="fill:#ffffff;stroke-width:0.46815524"
     d="m 487.44502,60.908705 c -2.01746,-0.878403 -3.31411,-2.707897 -3.91933,-5.529923 -1.35692,-6.32714 2.90236,-13.033268 10.87505,-17.122454 l 2.93948,-1.507656 15.01623,0.123662 15.01623,0.123663 -3.86111,12.084477 c -2.12362,6.646463 -3.95915,12.182508 -4.07896,12.302324 -0.11982,0.119815 -3.15891,0.159217 -6.75353,0.08756 l -6.53569,-0.130288 2.71557,-8.660872 c 1.49356,-4.763479 2.72011,-9.11234 2.72566,-9.664133 0.0122,-1.211338 -0.80257,-1.571592 -3.55439,-1.571592 -2.90176,0 -4.86335,0.943992 -6.89591,3.318585 -3.98778,4.658826 -5.10203,8.220784 -3.3893,10.834737 0.7005,1.06909 4.28053,3.192679 6.43992,3.820006 0.52597,0.1528 0.70011,0.544148 0.53059,1.192398 -0.24233,0.926661 -0.56131,0.964221 -8.03934,0.946624 -5.45289,-0.01283 -8.21988,-0.206801 -9.23117,-0.647118 z"
     id="path5613"
     inkscape:connector-curvature="0" /><path
     style="fill:#ffffff;stroke-width:0.46815524"
     d="m 523.53973,58.180021 c 0.61221,-1.866769 2.40082,-7.44952 3.97468,-12.406114 l 2.86156,-9.011988 15.53864,0.01028 c 14.23337,0.0094 15.70261,0.08473 17.49053,0.89651 3.99428,1.813549 4.19566,4.15077 1.31484,15.260318 l -2.24176,8.645117 h -6.69315 -6.69314 l 0.68728,-2.223737 c 3.54723,-11.477302 3.91034,-14.139605 2.23501,-16.387278 -0.90359,-1.212288 -1.19612,-1.293174 -5.13111,-1.418751 l -4.1729,-0.133169 -2.08947,7.623652 c -2.02504,7.388557 -2.16042,7.699447 -4.38993,10.081468 l -2.30045,2.457815 h -5.75187 -5.75186 z"
     id="path5615"
     inkscape:connector-curvature="0" /></svg>