<?xml version="1.0" encoding="UTF-8" standalone="no"?>
<!-- Generator: Adobe Illustrator 16.0.3, SVG Export Plug-In . SVG Version: 6.00 Build 0)  -->

<svg
   xmlns:dc="http://purl.org/dc/elements/1.1/"
   xmlns:cc="http://creativecommons.org/ns#"
   xmlns:rdf="http://www.w3.org/1999/02/22-rdf-syntax-ns#"
   xmlns:svg="http://www.w3.org/2000/svg"
   xmlns="http://www.w3.org/2000/svg"
   xmlns:sodipodi="http://sodipodi.sourceforge.net/DTD/sodipodi-0.dtd"
   xmlns:inkscape="http://www.inkscape.org/namespaces/inkscape"
   version="1.1"
   id="svg4237"
   sodipodi:version="0.32"
   inkscape:version="0.92.2 (5c3e80d, 2017-08-06)"
   sodipodi:docname="system.svg"
   x="0px"
   y="0px"
   width="566.929px"
   height="185.058px"
   viewBox="0 0 566.929 185.058"
   enable-background="new 0 0 566.929 185.058"
   xml:space="preserve"><metadata
     id="metadata5317"><rdf:RDF><cc:Work
         rdf:about=""><dc:format>image/svg+xml</dc:format><dc:type
           rdf:resource="http://purl.org/dc/dcmitype/StillImage" /></cc:Work></rdf:RDF></metadata><defs
     id="defs5315" /><sodipodi:namedview
     id="base"
     pagecolor="#ffffff"
     bordercolor="#666666"
     borderopacity="1.0"
     inkscape:zoom="2.02"
     inkscape:cx="271.47506"
     inkscape:cy="65.926262"
     inkscape:window-height="746"
     inkscape:window-width="1366"
     inkscape:window-x="1912"
     inkscape:window-y="1072"
     inkscape:pageopacity="0.0"
     inkscape:current-layer="layer1"
     inkscape:pageshadow="2"
     inkscape:document-units="px"
     showgrid="false"
     inkscape:window-maximized="1" /><g
     id="layer1"
     transform="translate(2.322326,-490.7257)"
     inkscape:label="Ebene 1"
     inkscape:groupmode="layer"><path
       id="path6905"
       d="M100.923,651.636c5.332,0,8.531-1.087,8.531-6.156c0-3.752-2.327-5.759-7.658-5.759h-7.368v11.915H100.923z    M91.617,667.291v-29.984h10.955c7.755,0,9.792,3.877,9.792,8.375c0,6.699-6.011,8.366-11.537,8.366h-6.399v13.242L91.617,667.291" /><path
       id="path6907"
       d="M116.143,667.291h2.424v-29.984h-2.424V667.291z" /><path
       id="path6909"
       d="M138.925,655.958c-2.132,0.872-4.362,1.047-6.494,1.213c-3.782,0.289-6.107,1.666-6.107,4.575   c0,2.637,2.327,3.878,4.654,3.878c3.974,0,7.949-1.92,7.949-6.292L138.925,655.958L138.925,655.958z M134.66,654.717   c0.969-0.087,2.521-0.339,3.296-0.718c0.873-0.369,0.969-1.492,0.969-2.238c0-2.54-1.551-4.372-5.428-4.372   c-3.393,0-5.816,1.124-6.302,4.867h-2.521c0.388-5.081,4.168-7.126,8.919-7.126c4.362,0,7.756,1.716,7.756,6.708v11.741   c0,1.957,0.581,2.414,2.617,1.666v1.959c-0.291,0.126-1.163,0.416-1.938,0.416c-0.389,0-0.679-0.038-1.066-0.125   c-1.745-0.242-2.037-1.706-2.037-3.21c-2.037,2.338-4.944,3.588-8.046,3.588c-3.781,0-7.175-2.046-7.175-6.204   c0-3.616,2.521-5.826,7.562-6.495L134.66,654.717" /><path
       id="path6911"
       d="M147.553,673.156c0.679,0.126,1.356,0.262,2.036,0.262c2.909,0,3.296-4.09,4.265-5.962l-8.434-21.735h2.812   l6.98,18.536l6.882-18.536h2.715l-8.047,21.279c-2.037,5.409-3.393,8.784-6.883,8.784c-0.873,0-1.648-0.125-2.327-0.29V673.156" /><path
       id="path6913"
       d="M170.722,658.334c0.485,5.37,3.976,7.328,8.628,7.328c5.332,0,7.562-2.906,7.562-6.204   c0-9.287-18.226-3.121-18.226-14.899c0-4.17,3.393-8.038,10.179-8.038c6.689,0,10.082,4.072,9.985,8.959h-2.617   c0-4.587-3.587-6.544-7.368-6.544c-5.817,0-7.853,3.538-7.368,6.621c1.26,7.736,18.323,2.161,18.323,13.775   c0,5.508-4.072,8.746-10.955,8.746c-6.302,0-10.955-3.238-10.955-9.743L170.722,658.334" /><path
       id="path6915"
       d="M202.812,667.37c-0.582,0.125-1.648,0.504-2.909,0.504c-2.424,0-3.781-1.086-3.781-4.294v-15.783h-3.103   v-2.074h3.103v-6.001h2.521v6.001h3.975v2.074h-3.975v14.785c0,2.133,0,3.043,2.132,3.043c0.679,0,1.356-0.126,2.037-0.29V667.37" /><path
       id="path6917"
       d="M221.52,655.958c-2.132,0.872-4.264,1.047-6.398,1.213c-3.78,0.289-6.107,1.666-6.107,4.575   c0,2.637,2.327,3.878,4.655,3.878c3.974,0,7.851-1.92,7.851-6.292V655.958z M217.352,654.717c0.873-0.087,2.425-0.339,3.297-0.718   c0.776-0.369,0.872-1.492,0.872-2.238c0-2.54-1.454-4.372-5.332-4.372c-3.489,0-5.816,1.124-6.301,4.867h-2.521   c0.387-5.081,4.168-7.126,8.821-7.126c4.364,0,7.853,1.716,7.853,6.708v11.741c0,1.957,0.486,2.414,2.619,1.666v1.959   c-0.389,0.126-1.262,0.416-1.939,0.416c-0.388,0-0.775-0.038-1.164-0.125c-1.648-0.242-1.939-1.706-1.939-3.21   c-2.134,2.338-4.943,3.588-8.046,3.588c-3.781,0-7.271-2.046-7.271-6.204c0-3.616,2.521-5.826,7.562-6.495L217.352,654.717" /><path
       id="path6919"
       d="M238.778,667.37c-0.581,0.125-1.649,0.504-2.908,0.504c-2.423,0-3.781-1.086-3.781-4.294v-15.783h-3.006   v-2.074h3.006v-6.001h2.521v6.001h3.975v2.074h-3.975v14.785c0,2.133,0,3.043,2.132,3.043c0.678,0,1.358-0.126,2.037-0.29V667.37" /><path
       id="path6921"
       d="M246.243,667.291h-2.425v-21.569h2.425V667.291z M243.624,641.008v-3.701h2.812v3.701H243.624" /><path
       id="path6923"
       d="M260.978,647.389c-5.235,0-7.271,4.449-7.271,9.112c0,5.371,2.521,9.122,7.271,9.122   c5.234,0,7.368-4.498,7.368-9.122C268.346,651.421,266.31,647.389,260.978,647.389z M250.993,656.5   c0-6.281,3.393-11.371,9.985-11.371c6.785,0,10.082,5.04,10.082,11.371c0,6.837-3.975,11.372-10.082,11.372   C255.549,667.786,250.993,664.043,250.993,656.5" /><path
       id="path6925"
       d="M277.071,667.291h-2.521v-21.569h2.521v2.995c1.938-2.123,3.975-3.587,6.883-3.587   c2.714,0,5.041,0.833,6.592,3.083c1.065,1.551,1.163,3.169,1.163,4.953v14.124h-2.521v-14.076c0-3.867-1.647-5.826-5.623-5.826   c-3.103,0-5.235,1.997-6.01,4.197c-0.486,1.377-0.486,2.59-0.486,4.092v11.614" /><path
       id="path6927"
       d="M301.5,660.283c-0.291-0.136-0.678-0.204-1.259-0.204h-0.777v1.997h0.875c0.386,0,0.774-0.038,0.968-0.114   c0.387-0.155,0.582-0.446,0.582-0.873C301.889,660.69,301.694,660.418,301.5,660.283z M300.434,659.4   c0.68,0,1.164,0.059,1.551,0.194c0.582,0.243,0.775,0.708,0.775,1.416c0,0.494-0.098,0.853-0.484,1.086   c-0.195,0.126-0.484,0.214-0.775,0.271c0.387,0.067,0.678,0.262,0.871,0.553c0.195,0.301,0.291,0.593,0.291,0.873v0.407   c0,0.135,0,0.281,0.098,0.418c0,0.154,0,0.251,0,0.299v0.068h-0.873c0-0.02,0-0.039,0-0.049c0-0.021,0-0.049,0-0.078l-0.096-0.173   v-0.447c0-0.658-0.195-1.086-0.486-1.289c-0.193-0.126-0.58-0.184-1.066-0.184h-0.774v2.22h-0.971v-5.584h1.94V659.4z    M297.43,659.11c-0.873,0.853-1.262,1.89-1.262,3.091c0,1.232,0.389,2.27,1.262,3.123c0.872,0.863,1.841,1.289,3.103,1.289   c1.261,0,2.229-0.426,3.102-1.289c0.873-0.854,1.262-1.89,1.262-3.123c0-1.201-0.389-2.238-1.262-3.091   c-0.872-0.854-1.841-1.281-3.102-1.281C299.271,657.828,298.302,658.255,297.43,659.11z M304.119,665.797   c-0.97,0.99-2.229,1.493-3.586,1.493c-1.359,0-2.619-0.504-3.587-1.493c-0.971-0.988-1.455-2.19-1.455-3.597   c0-1.386,0.484-2.588,1.455-3.567c0.968-0.998,2.228-1.483,3.587-1.483c1.356,0,2.616,0.484,3.586,1.483   c0.969,0.969,1.455,2.172,1.455,3.567C305.574,663.609,305.087,664.81,304.119,665.797" /><path
       id="path6929"
       d="M322.634,651.636c5.332,0,8.628-1.087,8.628-6.156c0-3.752-2.423-5.759-7.755-5.759h-7.369v11.915H322.634z    M313.329,667.291v-29.984h10.956c7.755,0,9.789,3.877,9.789,8.375c0,6.699-5.914,8.366-11.535,8.366h-6.4v13.242L313.329,667.291" /><path
       id="path6931"
       d="M345.222,647.389c-5.234,0-7.366,4.449-7.366,9.112c0,5.371,2.616,9.122,7.366,9.122   c5.237,0,7.369-4.498,7.369-9.122C352.494,651.421,350.555,647.389,345.222,647.389z M335.238,656.5   c0-6.281,3.296-11.371,9.984-11.371c6.787,0,9.987,5.04,9.987,11.371c0,6.837-3.976,11.372-9.987,11.372   C339.697,667.786,335.238,664.043,335.238,656.5" /><path
       id="path6933"
       d="M361.413,667.291h-2.521v-21.569h2.521v4.043h0.098c1.354-3.462,3.392-4.634,6.98-4.634v2.715   c-5.624-0.126-7.076,4.033-7.076,8.861v10.584" /><path
       id="path6935"
       d="M382.451,667.37c-0.582,0.125-1.648,0.504-2.813,0.504c-2.519,0-3.878-1.086-3.878-4.294v-15.783h-3.005   v-2.074h3.005v-6.001h2.521v6.001h4.071v2.074h-4.071v14.785c0,2.133,0.098,3.043,2.132,3.043c0.682,0,1.455-0.126,2.037-0.29   v2.035" /><path
       id="path6937"
       d="M400.384,655.958c-2.133,0.872-4.265,1.047-6.398,1.213c-3.782,0.289-6.107,1.666-6.107,4.575   c0,2.637,2.327,3.878,4.652,3.878c3.976,0,7.854-1.92,7.854-6.292V655.958z M396.215,654.717c0.871-0.087,2.423-0.339,3.296-0.718   c0.777-0.369,0.873-1.492,0.873-2.238c0-2.54-1.455-4.372-5.332-4.372c-3.489,0-5.817,1.124-6.301,4.867h-2.521   c0.387-5.081,4.169-7.126,8.822-7.126c4.363,0,7.853,1.716,7.853,6.708v11.741c0,1.957,0.484,2.414,2.618,1.666v1.959   c-0.389,0.126-1.262,0.416-1.938,0.416c-0.389,0-0.777-0.038-1.164-0.125c-1.647-0.242-1.938-1.706-1.938-3.21   c-2.133,2.338-4.944,3.588-8.049,3.588c-3.779,0-7.271-2.046-7.271-6.204c0-3.616,2.521-5.826,7.562-6.495L396.215,654.717" /><path
       id="path6939"
       d="M420.161,665.623c4.169,0,7.271-3.043,7.369-8.452c0.192-5.41-2.23-9.782-7.369-9.782   c-4.557,0-7.271,4.158-7.271,9.026C412.889,661.629,415.411,665.623,420.161,665.623z M412.889,667.291h-2.521v-29.984h2.521   v11.865c1.553-2.618,4.653-4.043,7.66-4.043c6.59,0,9.597,5.38,9.597,11.42c0,6.359-2.714,11.323-9.694,11.323   c-2.812,0-6.01-1.541-7.56-4.372l0,0v3.791" /><path
       id="path6941"
       d="M435.673,667.291h2.519v-29.984h-2.519V667.291z" /><path
       id="path6943"
       d="M459.908,654.999c0-4.198-2.326-7.61-6.785-7.61c-4.46,0-6.787,3.538-7.271,7.61H459.908z M445.851,657.092   c0,4.654,2.521,8.532,7.271,8.532c3.2,0,5.816-1.794,6.494-4.953h2.812c-1.26,4.07-3.78,7.203-9.306,7.203   c-6.885,0-9.89-4.915-9.89-11.282c0-6.293,3.685-11.461,9.89-11.461c5.914,0,9.501,4.218,9.501,11.962L445.851,657.092" /><path
       id="path6945"
       d="M-2.322,490.726H174.31v52.38H4.657v45.399h-6.979v-52.38H167.33v-38.42H-2.322V490.726" /><path
       id="path6947"
       d="M394.956,543.106v45.399h-6.98v-52.38h169.65v-38.42h-169.65v-6.979h176.631v52.38H394.956" /><path
       id="path6949"
       d="M264.371,490.726v90.798H174.31v6.981h97.428v-90.8h90.063v-6.979H264.371" /><path
       style="fill:#ffffff;stroke-width:0.35005286"
       d="M 0.25190822,71.539713 V 45.635801 H 84.964701 169.67749 V 26.207867 6.7799335 H 84.964701 0.25190822 V 3.4544313 0.12892911 H 88.290203 176.3285 V 26.207867 52.286806 H 91.615705 6.9029126 v 22.578409 22.57841 H 3.5774104 0.25190822 Z"
       id="path5319"
       inkscape:connector-curvature="0"
       transform="translate(-2.322326,490.7257)" /><path
       style="fill:#ffffff;stroke-width:0.35005286"
       d="M 176.67855,94.118123 V 90.79262 h 45.15682 45.15682 V 45.460775 0.12892911 h 48.48232 48.48232 V 3.4544313 6.7799335 H 318.97504 273.99325 V 52.111779 97.443625 H 225.3359 176.67855 Z"
       id="path5321"
       inkscape:connector-curvature="0"
       transform="translate(-2.322326,490.7257)" /><path
       style="fill:#ffffff;stroke-width:0.35005286"
       d="M 390.56085,71.539713 V 45.635801 h 84.71279 84.71279 V 26.207867 6.7799335 H 475.27364 390.56085 V 3.4544313 0.12892911 h 88.03829 88.0383 V 26.207867 52.286806 h -84.71279 -84.7128 v 22.578409 22.57841 h -3.3255 -3.3255 z"
       id="path5323"
       inkscape:connector-curvature="0"
       transform="translate(-2.322326,490.7257)" /><path
       style="fill:#ffffff;stroke-width:0.35005286"
       d="m 315.64954,161.67832 v -14.87724 h 6.77039 c 7.20501,0 9.02593,0.28599 11.06488,1.73785 3.36692,2.39746 3.67589,8.62654 0.58117,11.71691 -2.10578,2.10283 -4.1892,2.68232 -10.45274,2.90735 l -5.16328,0.1855 v 6.60344 6.60344 h -1.40021 -1.40021 z m 12.87162,-0.91731 c 3.00144,-0.52267 4.4322,-1.74414 4.99647,-4.26557 0.79233,-3.5405 -0.7951,-6.39015 -4.01077,-7.19986 -0.86099,-0.2168 -3.70102,-0.39418 -6.31117,-0.39418 h -4.74573 v 6.12592 6.12593 h 3.90942 c 2.15018,0 4.92298,-0.17651 6.16178,-0.39224 z"
       id="path5325"
       inkscape:connector-curvature="0"
       transform="translate(-2.322326,490.7257)" /><path
       style="fill:#ffffff;stroke-width:0.35005286"
       d="m 344.70166,176.57856 c -2.6595,-0.80899 -4.7702,-2.72357 -6.00697,-5.44881 -1.04193,-2.29593 -1.13976,-7.47613 -0.19243,-10.18979 2.83235,-8.11339 14.25727,-8.58921 17.79999,-0.74133 0.69894,1.54831 0.82619,2.3951 0.82727,5.5053 10e-4,4.14927 -0.66019,6.1749 -2.72956,8.35663 -2.26615,2.38919 -6.50432,3.48956 -9.6983,2.518 z m 6.27044,-2.28439 c 2.4766,-1.2889 3.93755,-4.30632 3.9634,-8.18594 0.0309,-4.64206 -1.17924,-7.33341 -3.92011,-8.71805 -1.71016,-0.86395 -4.51631,-1.05188 -6.20116,-0.4153 -2.76918,1.04627 -4.37663,3.87539 -4.58964,8.07781 -0.33423,6.59397 2.81582,10.42923 8.12212,9.88888 0.94462,-0.0962 2.12605,-0.38753 2.62539,-0.6474 z"
       id="path5327"
       inkscape:connector-curvature="0"
       transform="translate(-2.322326,490.7257)" /><path
       style="fill:#ffffff;stroke-width:0.35005286"
       d="m 361.50646,165.87896 v -10.67661 h 1.05016 c 1.0427,0 1.05031,0.0143 1.07074,2.0128 0.0174,1.6974 0.0859,1.90946 0.43757,1.35332 1.53293,-2.42445 2.93453,-3.46721 5.2423,-3.90015 1.29938,-0.24376 1.30061,-0.24284 1.30061,0.9804 0,1.19148 -0.0445,1.23107 -1.65466,1.47253 -1.29919,0.19482 -1.9662,0.56057 -3.10487,1.7025 -1.92636,1.93187 -2.24153,3.54153 -2.24153,11.4481 v 6.28372 h -1.05016 -1.05016 z"
       id="path5329"
       inkscape:connector-curvature="0"
       transform="translate(-2.322326,490.7257)" /><path
       style="fill:#ffffff;stroke-width:0.35005286"
       d="m 379.83666,176.49621 c -1.38538,-0.67081 -1.52766,-1.67753 -1.52766,-10.80875 v -8.73485 h -1.57524 c -1.44688,0 -1.57524,-0.0713 -1.57524,-0.87513 0,-0.80383 0.12836,-0.87513 1.57524,-0.87513 h 1.57524 v -2.97545 -2.97545 h 1.05016 1.05016 v 2.97545 2.97545 h 2.10031 c 2.00697,0 2.10032,0.0389 2.10032,0.87513 0,0.83624 -0.0934,0.87513 -2.10032,0.87513 h -2.10031 v 8.40127 c 0,8.08817 0.0276,8.42887 0.74074,9.14201 0.58527,0.58527 1.02611,0.70248 2.10032,0.55839 1.23785,-0.16603 1.35957,-0.11034 1.35957,0.62202 0,0.4424 -0.24917,0.89998 -0.55371,1.01685 -0.85009,0.32621 -3.38333,0.20797 -4.21958,-0.19694 z"
       id="path5333"
       inkscape:connector-curvature="0"
       transform="translate(-2.322326,490.7257)" /><path
       style="fill:#ffffff;stroke-width:0.35005286"
       d="m 391.78603,176.49578 c -2.88238,-1.07067 -4.19949,-3.08936 -3.95323,-6.05899 0.29368,-3.54139 2.53799,-5.09704 8.64913,-5.99519 6.02419,-0.88538 6.33077,-1.04668 6.33077,-3.33074 0,-3.08059 -1.77371,-4.5083 -5.60085,-4.5083 -3.44569,0 -5.57528,1.34352 -6.12953,3.86702 -0.18826,0.85713 -0.40169,1.03372 -1.24939,1.03372 -0.79563,0 -1.02234,-0.15835 -1.02234,-0.71405 0,-1.10039 1.25057,-3.29844 2.45162,-4.30905 3.63888,-3.06192 10.9656,-2.33308 13.04611,1.29779 0.28903,0.50441 0.48696,3.36088 0.6047,8.7268 0.18791,8.56408 0.2591,8.86245 2.00989,8.42303 0.66933,-0.16799 0.79053,-0.0584 0.79053,0.71467 0,0.86056 -0.0992,0.91308 -1.72526,0.91308 -1.91411,0 -2.82543,-0.61023 -2.82543,-1.89195 0,-1.22474 -0.39504,-1.34523 -1.37594,-0.41966 -1.71941,1.62242 -3.87771,2.47244 -6.50025,2.56005 -1.3477,0.045 -2.92294,-0.0937 -3.50053,-0.30823 z m 7.10962,-2.23835 c 2.83987,-1.18657 3.91705,-3.04935 3.91705,-6.77378 v -2.4434 l -0.96265,0.32748 c -0.52945,0.18012 -2.65654,0.56196 -4.72687,0.84853 -5.49109,0.76008 -6.91238,1.71914 -6.91238,4.66434 0,2.02901 0.47321,2.80143 2.21607,3.61722 1.66121,0.77758 4.26392,0.68086 6.46878,-0.24039 z"
       id="path5335"
       inkscape:connector-curvature="0"
       transform="translate(-2.322326,490.7257)" /><path
       style="fill:#ffffff;stroke-width:0.35005286"
       d="m 419.28797,176.20769 c -0.85384,-0.3993 -2.15341,-1.37697 -2.88793,-2.1726 l -1.33549,-1.44659 v 1.98354 c 0,1.97056 -0.007,1.98353 -1.05016,1.98353 h -1.05016 v -14.87725 -14.87724 h 1.05016 1.05016 v 5.77587 c 0,3.17673 0.0531,5.77587 0.11805,5.77587 0.0649,0 0.7741,-0.62408 1.57594,-1.38686 2.23975,-2.13062 5.55142,-2.92648 8.62583,-2.07296 4.00828,1.11279 6.49208,4.74754 6.7623,9.89586 0.28323,5.39629 -1.17333,9.07469 -4.32466,10.92149 -2.27731,1.3346 -6.24879,1.56605 -8.53404,0.49734 z m 6.631,-1.9289 c 1.33966,-0.69276 2.99427,-2.6841 3.53689,-4.25669 0.25482,-0.73849 0.46142,-2.69262 0.4591,-4.3425 -0.004,-2.57107 -0.14449,-3.2865 -0.98581,-5.0061 -1.41739,-2.89703 -3.04252,-3.89592 -6.33846,-3.89592 -3.27673,0 -4.92301,1.00284 -6.31418,3.84629 -2.62791,5.37125 -0.70504,12.3499 3.86381,14.02284 1.58435,0.58013 4.27683,0.4087 5.77865,-0.36792 z"
       id="path5337"
       inkscape:connector-curvature="0"
       transform="translate(-2.322326,490.7257)" /><path
       style="fill:#ffffff;stroke-width:0.35005286"
       d="m 438.16804,161.67832 v -14.87724 h 1.05016 1.05016 v 14.87724 14.87725 h -1.05016 -1.05016 z"
       id="path5339"
       inkscape:connector-curvature="0"
       transform="translate(-2.322326,490.7257)" /><path
       style="fill:#ffffff;stroke-width:0.35005286"
       d="m 451.58752,176.35434 c -2.14749,-0.79144 -4.4928,-3.46345 -5.21227,-5.93834 -0.89986,-3.09543 -0.59696,-7.82928 0.66617,-10.41101 1.80965,-3.69881 5.57491,-5.83763 9.46556,-5.37684 4.70457,0.55718 7.43999,3.77922 8.14,9.58806 l 0.22147,1.83778 h -8.49456 -8.49457 l 0.24311,1.83263 c 0.5827,4.39257 3.42746,7.11857 7.37323,7.06542 1.20976,-0.0163 2.56502,-0.27071 3.19629,-0.60002 1.22273,-0.63785 2.76391,-2.32368 3.10406,-3.39541 0.166,-0.52301 0.52916,-0.70199 1.4244,-0.70199 0.66088,0 1.20159,0.12511 1.20159,0.27803 0,0.15291 -0.51195,1.13178 -1.13767,2.17525 -1.70553,2.84423 -3.69683,3.94605 -7.37298,4.07958 -1.94049,0.0705 -3.33684,-0.0694 -4.32383,-0.43314 z m 10.73417,-13.23583 c 0,-1.97765 -1.69646,-4.76325 -3.47299,-5.70271 -2.71545,-1.43596 -6.63111,-0.89482 -8.50295,1.1751 -0.66681,0.73737 -1.82123,3.26949 -2.16565,4.75018 l -0.22392,0.96264 h 7.18275 7.18276 z"
       id="path5341"
       inkscape:connector-curvature="0"
       transform="translate(-2.322326,490.7257)" /><path
       style="fill:#ffffff;stroke-width:0.35005286"
       d="m 277.14372,165.87896 v -10.67661 h 1.05016 c 0.99182,0 1.05016,0.0778 1.05016,1.40021 0,0.77011 0.094,1.40021 0.20882,1.40021 0.11486,0 0.90089,-0.60918 1.74675,-1.35373 2.64506,-2.32828 6.25088,-2.738 9.25197,-1.05129 3.08997,1.73666 3.49024,3.24586 3.49273,13.16915 l 0.002,7.78867 h -1.00947 -1.00946 l -0.14675,-8.13873 c -0.16282,-9.02981 -0.33893,-9.81706 -2.48952,-11.12835 -2.35005,-1.43291 -7.02545,-0.53721 -8.54039,1.63613 -1.32456,1.90024 -1.50663,3.17 -1.50663,10.5071 v 7.12385 h -1.05016 -1.05016 z"
       id="path5343"
       inkscape:connector-curvature="0"
       transform="translate(-2.322326,490.7257)" /><path
       style="fill:#ffffff;stroke-width:0.35005286"
       d="m 259.80308,176.36949 c -3.23612,-1.19693 -5.44484,-4.20831 -6.10149,-8.31881 -0.65355,-4.09106 0.45504,-8.36019 2.7728,-10.67795 2.01194,-2.01193 3.68704,-2.66391 6.84224,-2.66313 4.52345,0.001 7.06493,1.68041 8.98652,5.93784 0.63036,1.3966 0.78223,2.3734 0.78618,5.05649 0.004,2.90281 -0.11851,3.59234 -0.96603,5.42479 -1.14818,2.48252 -1.97109,3.42878 -4.04007,4.64562 -1.9135,1.1254 -6.04386,1.42228 -8.28015,0.59515 z m 5.55113,-1.58943 c 1.84086,-0.51118 3.92185,-2.49422 4.68049,-4.46018 0.76828,-1.99096 0.85382,-6.93887 0.15445,-8.93412 -0.60473,-1.72525 -2.34833,-3.70671 -3.79284,-4.31026 -0.62254,-0.26012 -2.00961,-0.47294 -3.08238,-0.47294 -4.69918,0 -7.3121,3.2421 -7.33509,9.10137 -0.0139,3.5402 0.67589,5.64412 2.39755,7.31282 1.94258,1.88283 4.35345,2.49206 6.97782,1.76331 z"
       id="path5345"
       inkscape:connector-curvature="0"
       transform="translate(-2.322326,490.7257)" /><path
       style="fill:#ffffff;stroke-width:0.35005286"
       d="m 246.33907,165.87896 v -10.67661 h 1.05016 1.05016 v 10.67661 10.67661 h -1.05016 -1.05016 z"
       id="path5347"
       inkscape:connector-curvature="0"
       transform="translate(-2.322326,490.7257)" /><path
       style="fill:#ffffff;stroke-width:0.35005286"
       d="m 245.98902,148.37632 c 0,-1.56691 0.006,-1.57524 1.22518,-1.57524 1.2187,0 1.22519,0.008 1.22519,1.57524 0,1.5669 -0.006,1.57523 -1.22519,1.57523 -1.2187,0 -1.22518,-0.008 -1.22518,-1.57523 z"
       id="path5349"
       inkscape:connector-curvature="0"
       transform="translate(-2.322326,490.7257)" /><path
       style="fill:#ffffff;stroke-width:0.35005286"
       d="m 235.85899,176.29303 c -1.17459,-0.95157 -1.40437,-2.80122 -1.41337,-11.37672 l -0.008,-7.9637 h -1.40021 c -1.26019,0 -1.40021,-0.0875 -1.40021,-0.87513 0,-0.78762 0.14002,-0.87513 1.40021,-0.87513 h 1.40021 v -2.97545 -2.97545 h 1.22519 1.22518 v 2.97545 2.97545 h 1.92529 c 1.82028,0 1.92529,0.0477 1.92529,0.87513 0,0.8274 -0.10501,0.87513 -1.92529,0.87513 h -1.92529 v 8.75999 8.75998 l 0.95901,0.36462 c 0.52745,0.20053 1.47259,0.26826 2.10031,0.1505 1.03387,-0.19396 1.14132,-0.13408 1.14132,0.63605 0,0.96433 -0.72267,1.2695 -3.02418,1.27709 -0.86469,0.003 -1.75386,-0.24223 -2.20511,-0.60781 z"
       id="path5351"
       inkscape:connector-curvature="0"
       transform="translate(-2.322326,490.7257)" /><path
       style="fill:#ffffff;stroke-width:0.35005286"
       d="m 212.90902,176.47802 c -2.64389,-0.93738 -4.02561,-2.85318 -4.02561,-5.58166 0,-3.6222 2.57093,-5.54958 8.58205,-6.43381 6.18404,-0.90968 6.47023,-1.05793 6.47023,-3.35169 0,-3.08059 -1.77371,-4.5083 -5.60085,-4.5083 -3.44569,0 -5.57528,1.34352 -6.12953,3.86702 -0.18826,0.85713 -0.40169,1.03372 -1.24939,1.03372 -1.22491,0 -1.30381,-0.57169 -0.36437,-2.63988 0.84024,-1.84978 2.44816,-3.16678 4.67295,-3.82747 4.13138,-1.22689 8.5801,-0.027 10.1668,2.74204 0.2874,0.50155 0.48764,3.31144 0.6047,8.48559 0.18929,8.3658 0.35121,9.08055 1.96535,8.67542 0.7202,-0.18076 0.83508,-0.084 0.83508,0.70349 0,0.86056 -0.0992,0.91308 -1.72526,0.91308 -1.91412,0 -2.82543,-0.61023 -2.82543,-1.89195 0,-1.29185 -0.36552,-1.29984 -1.83721,-0.0401 -0.76719,0.65669 -2.11344,1.43881 -2.99167,1.73806 -1.80697,0.61569 -4.98056,0.67215 -6.54784,0.11647 z m 7.14255,-2.23435 c 2.80514,-1.17206 3.88412,-3.04994 3.88412,-6.76002 v -2.4434 l -0.96265,0.32748 c -0.52945,0.18012 -2.65654,0.56196 -4.72687,0.84853 -3.99996,0.55368 -5.48409,1.1048 -6.36606,2.36399 -0.74254,1.06013 -0.69326,3.73853 0.0874,4.7531 1.36179,1.76971 5.03677,2.18354 8.08401,0.91032 z"
       id="path5353"
       inkscape:connector-curvature="0"
       transform="translate(-2.322326,490.7257)" /><path
       style="fill:#ffffff;stroke-width:0.35005286"
       d="m 200.21224,176.67134 c -1.28418,-0.51669 -1.48036,-1.96782 -1.48036,-10.95002 v -8.76871 h -1.57524 c -1.44688,0 -1.57523,-0.0713 -1.57523,-0.87513 0,-0.80383 0.12835,-0.87513 1.57523,-0.87513 h 1.57524 v -2.97545 -2.97545 h 1.05016 1.05016 v 2.97545 2.97545 h 1.92529 c 1.82027,0 1.92529,0.0477 1.92529,0.87513 0,0.8274 -0.10502,0.87513 -1.92529,0.87513 h -1.92529 v 8.56823 8.56822 l 0.87359,0.5724 c 0.61346,0.40196 1.23886,0.50387 2.10031,0.34226 1.12871,-0.21175 1.22673,-0.1622 1.22673,0.62003 0,0.58575 -0.24496,0.91582 -0.78762,1.06124 -0.93117,0.24955 -3.39958,0.24119 -4.03297,-0.0137 z"
       id="path5355"
       inkscape:connector-curvature="0"
       transform="translate(-2.322326,490.7257)" /><path
       style="fill:#ffffff;stroke-width:0.06188119"
       d="m 301.84173,176.43441 c -1.09681,-0.24247 -1.86066,-0.67781 -2.64138,-1.50542 -0.90278,-0.95699 -1.34902,-2.09689 -1.34902,-3.44598 0,-1.44463 0.46617,-2.5528 1.51035,-3.59034 0.44829,-0.44544 0.67703,-0.6177 1.13267,-0.85302 0.82625,-0.42673 1.35519,-0.55299 2.33748,-0.55799 0.96286,-0.005 1.41769,0.0943 2.22772,0.4857 2.0144,0.97344 3.12023,3.16377 2.72871,5.40479 -0.35964,2.05858 -1.94341,3.67625 -3.98087,4.06608 -0.56457,0.10802 -1.4677,0.10626 -1.96566,-0.004 z m 2.45159,-0.75495 c 1.33606,-0.46281 2.44814,-1.64425 2.81424,-2.98977 0.17159,-0.63063 0.15695,-1.87391 -0.0291,-2.47368 -0.3473,-1.11939 -1.00768,-1.95812 -2.02325,-2.56966 -1.2774,-0.76921 -3.1413,-0.75308 -4.457,0.0386 -0.86277,0.51912 -1.61885,1.44777 -1.92272,2.36155 -0.15402,0.46317 -0.16903,0.59077 -0.16903,1.43654 0,0.84361 0.0152,0.97334 0.16645,1.42327 0.22418,0.66675 0.46235,1.06133 0.95743,1.58614 0.97872,1.03749 1.93952,1.43244 3.38717,1.39234 0.63057,-0.0175 0.82301,-0.0484 1.27585,-0.2053 z"
       id="path5357"
       inkscape:connector-curvature="0"
       transform="translate(-2.322326,490.7257)" /><path
       style="fill:#ffffff;stroke-width:0.06188119"
       d="m 300.82069,171.47832 v -2.7584 l 1.5625,0.0252 c 1.66773,0.0269 1.88718,0.0605 2.21913,0.33982 0.29974,0.25221 0.42335,0.58586 0.42493,1.14697 0.002,0.86437 -0.1398,1.03268 -1.17438,1.38959 -0.0575,0.0199 -0.0105,0.0545 0.12376,0.0913 0.60869,0.16645 0.92043,0.68533 0.99545,1.6569 0.0276,0.35777 0.0516,0.69923 0.0534,0.75879 0.003,0.0923 -0.0559,0.10829 -0.39627,0.10829 h -0.39943 l -0.0305,-0.20111 c -0.0168,-0.11061 -0.0465,-0.40729 -0.066,-0.65928 -0.085,-1.09617 -0.44293,-1.36733 -1.80495,-1.36733 h -0.57942 v 1.11386 1.11386 h -0.46411 -0.46411 z m 2.88803,-0.25507 c 0.49227,-0.25405 0.66299,-0.84826 0.39476,-1.37404 -0.19383,-0.37994 -0.43629,-0.46059 -1.47277,-0.48991 l -0.8818,-0.0249 v 1.03657 1.03658 l 0.86142,-0.031 c 0.6947,-0.025 0.90729,-0.0547 1.09839,-0.15327 z"
       id="path5359"
       inkscape:connector-curvature="0"
       transform="translate(-2.322326,490.7257)" /><path
       style="fill:#ffffff;stroke-width:0.17502643"
       d="m 179.17011,177.14877 c -4.46832,-0.61632 -7.55872,-3.06265 -8.51708,-6.74205 -0.1474,-0.56591 -0.268,-1.40618 -0.268,-1.86728 v -0.83836 h 1.28181 1.2818 l 0.19917,1.071 c 0.70266,3.77837 3.18932,5.82158 7.54775,6.20177 2.68462,0.23419 5.20423,-0.4605 6.73089,-1.85579 1.35963,-1.24262 1.7696,-2.25322 1.77148,-4.36682 0.002,-1.93821 -0.28512,-2.65797 -1.49477,-3.75082 -1.12263,-1.01423 -2.56325,-1.59013 -6.56486,-2.62434 -4.16621,-1.07676 -4.76687,-1.275 -6.23645,-2.05828 -3.06345,-1.6328 -4.43792,-4.84485 -3.54676,-8.28857 0.8684,-3.35579 3.78761,-5.51263 8.18476,-6.04727 6.13832,-0.74635 11.02278,2.48956 11.45,7.58552 l 0.0991,1.18165 h -1.25057 -1.25057 v -0.55736 c 0,-0.99255 -0.54104,-2.52069 -1.20331,-3.39867 -0.73124,-0.9694 -2.10016,-1.86545 -3.5224,-2.30562 -1.45648,-0.45077 -4.46769,-0.38864 -5.94387,0.12264 -2.60002,0.90052 -3.99687,2.54831 -4.16553,4.91382 -0.23887,3.35033 1.55692,4.92884 7.05722,6.20333 4.32972,1.00326 5.798,1.45171 7.28364,2.22462 3.03209,1.57747 4.40045,4.41627 3.84688,7.98078 -0.55294,3.56047 -2.80475,5.87012 -6.67813,6.84965 -1.5712,0.39734 -4.56336,0.57732 -6.09217,0.36645 z"
       id="path5361"
       inkscape:connector-curvature="0"
       transform="translate(-2.322326,490.7257)" /><path
       style="fill:#ffffff;stroke-width:0.17502643"
       d="m 151.13212,184.92143 c -1.28585,-0.22994 -1.22518,-0.16587 -1.22518,-1.29405 v -1.04459 l 1.27748,0.10799 c 2.34004,0.19781 3.11319,-0.56601 4.48696,-4.43276 l 0.57108,-1.60741 -4.06743,-10.46942 c -2.23708,-5.75818 -4.10495,-10.60725 -4.15082,-10.77572 -0.074,-0.27165 0.0624,-0.30607 1.20597,-0.30437 l 1.28935,0.002 3.41302,9.08513 c 1.87715,4.99682 3.48686,9.11126 3.57712,9.14321 0.0903,0.032 0.7652,-1.55653 1.49986,-3.52995 0.73466,-1.97342 2.2648,-6.08873 3.40031,-9.14513 l 2.06456,-5.55709 h 1.20505 c 0.66278,0 1.20505,0.0696 1.20505,0.15474 0,0.20384 -8.02596,21.42798 -9.04215,23.91139 -1.25006,3.05496 -2.40559,4.67625 -3.85097,5.40324 -0.58526,0.29436 -2.12432,0.48431 -2.85926,0.35288 z"
       id="path5363"
       inkscape:connector-curvature="0"
       transform="translate(-2.322326,490.7257)" /><path
       style="fill:#ffffff;stroke-width:0.17502643"
       d="m 130.45036,176.64163 c -2.49871,-0.79911 -4.02637,-2.59521 -4.28122,-5.03354 -0.32067,-3.06798 1.37044,-5.39528 4.68017,-6.44082 0.74312,-0.23475 2.55873,-0.59085 4.0347,-0.79134 4.97205,-0.67537 5.72762,-0.90091 6.17477,-1.8432 0.52767,-1.11199 0.24951,-3.08545 -0.60381,-4.28383 -0.8327,-1.16942 -3.37461,-1.82691 -5.98475,-1.54802 -2.69689,0.28816 -4.10129,1.38004 -4.78059,3.71674 l -0.28562,0.98251 h -1.14905 -1.14904 l 0.1134,-0.82736 c 0.16833,-1.22809 1.02746,-2.90808 1.9414,-3.79633 1.57538,-1.53109 3.63412,-2.20345 6.73712,-2.20026 4.46585,0.005 6.80124,1.51673 7.51135,4.86352 0.12605,0.59409 0.19772,3.36243 0.19938,7.70116 0.002,5.16602 0.0559,6.87751 0.22728,7.21123 0.20482,0.39884 0.32077,0.43606 1.31012,0.42063 l 1.08541,-0.0169 v 0.84156 0.84155 l -0.74386,0.20105 c -0.40912,0.11057 -1.16346,0.15805 -1.67631,0.1055 -1.55225,-0.15904 -2.24063,-0.83094 -2.42223,-2.36424 l -0.10544,-0.89028 -0.96495,0.86005 c -1.16668,1.03984 -2.8966,1.97369 -4.35152,2.34905 -1.48073,0.38201 -4.23062,0.3529 -5.51671,-0.0584 z m 5.69724,-2.04419 c 2.19803,-0.53416 3.81554,-1.75981 4.68107,-3.54703 0.33597,-0.69372 0.40371,-1.17328 0.46694,-3.30557 0.0407,-1.37177 0.0111,-2.49413 -0.0656,-2.49413 -0.0768,0 -0.69593,0.15352 -1.37592,0.34116 -1.22806,0.33887 -2.83366,0.58107 -5.34947,0.80695 -1.56556,0.14056 -3.02279,0.56652 -4.1022,1.1991 -1.95086,1.14328 -2.43015,4.10582 -0.93901,5.80413 1.33924,1.52532 3.63622,1.9361 6.6842,1.19539 z"
       id="path5365"
       inkscape:connector-curvature="0"
       transform="translate(-2.322326,490.7257)" /><path
       style="fill:#ffffff;stroke-width:0.17502643"
       d="m 118.57721,161.57516 v -14.87725 h 1.13767 1.13767 v 14.87725 14.87724 h -1.13767 -1.13767 z"
       id="path5367"
       inkscape:connector-curvature="0"
       transform="translate(-2.322326,490.7257)" /><path
       style="fill:#ffffff;stroke-width:0.17502643"
       d="m 94.073506,161.57516 v -14.87725 l 6.257194,0.001 c 7.74525,0.002 9.22739,0.21412 11.28431,1.61775 1.87066,1.27653 2.76262,3.15429 2.89545,6.09553 0.12645,2.79981 -0.54512,4.6532 -2.24134,6.18563 -2.20386,1.99105 -5.54094,2.70982 -12.638525,2.72218 l -2.931692,0.005 v 6.56349 6.56349 h -1.312698 -1.312699 z m 13.389984,-0.98989 c 1.68797,-0.44941 2.80454,-1.14253 3.43045,-2.12948 0.69396,-1.09426 0.89574,-1.93033 0.90599,-3.7539 0.008,-1.41284 -0.0389,-1.627 -0.5889,-2.69191 -0.68176,-1.32006 -1.43463,-1.94965 -3.0479,-2.54881 -0.9818,-0.36464 -1.38908,-0.3941 -6.25719,-0.45266 l -5.207037,-0.0626 v 6.07502 6.07501 l 4.769467,-0.0922 c 3.88646,-0.0751 4.99639,-0.15257 5.99512,-0.41847 z"
       id="path5369"
       inkscape:connector-curvature="0"
       transform="translate(-2.322326,490.7257)" /></g></svg>