<?xml version="1.0" encoding="UTF-8" standalone="no"?>
<!-- Generator: Adobe Illustrator 16.0.3, SVG Export Plug-In . SVG Version: 6.00 Build 0)  -->

<svg
   xmlns:dc="http://purl.org/dc/elements/1.1/"
   xmlns:cc="http://creativecommons.org/ns#"
   xmlns:rdf="http://www.w3.org/1999/02/22-rdf-syntax-ns#"
   xmlns:svg="http://www.w3.org/2000/svg"
   xmlns="http://www.w3.org/2000/svg"
   xmlns:sodipodi="http://sodipodi.sourceforge.net/DTD/sodipodi-0.dtd"
   xmlns:inkscape="http://www.inkscape.org/namespaces/inkscape"
   version="1.1"
   id="Ebene_3"
   x="0px"
   y="0px"
   width="566.927px"
   height="167.468px"
   viewBox="0 0 566.927 167.468"
   enable-background="new 0 0 566.927 167.468"
   xml:space="preserve"
   sodipodi:docname="system.svg"
   inkscape:version="0.92.2 (5c3e80d, 2017-08-06)"><metadata
     id="metadata1416"><rdf:RDF><cc:Work
         rdf:about=""><dc:format>image/svg+xml</dc:format><dc:type
           rdf:resource="http://purl.org/dc/dcmitype/StillImage" /></cc:Work></rdf:RDF></metadata><defs
     id="defs1414" /><sodipodi:namedview
     pagecolor="#ffffff"
     bordercolor="#666666"
     borderopacity="1"
     objecttolerance="10"
     gridtolerance="10"
     guidetolerance="10"
     inkscape:pageopacity="0"
     inkscape:pageshadow="2"
     inkscape:window-width="1366"
     inkscape:window-height="746"
     id="namedview1412"
     showgrid="false"
     inkscape:zoom="0.37760872"
     inkscape:cx="330.77459"
     inkscape:cy="-196.62759"
     inkscape:window-x="1912"
     inkscape:window-y="1072"
     inkscape:window-maximized="1"
     inkscape:current-layer="Ebene_3" /><g
     id="g1409"><g
       id="g1369"><path
         fill="#1D1D1B"
         d="M33.98,108.929l-0.068-41.587h5.384v49.797h-5.384L5.249,75.215l0.135,41.924H0V67.342h5.652    L33.98,108.929z"
         id="path1357" /><path
         fill="#1D1D1B"
         d="M45.31,67.342h26.419v4.912H50.827v17.294h20.767v4.912H50.827v17.767h20.902v4.912H45.31V67.342z"
         id="path1359" /><path
         fill="#1D1D1B"
         d="M74.242,92.375c0-15.341,11.911-25.908,25.976-25.908c14.602,0,25.975,11.171,25.975,25.773    c0,14.604-11.305,25.773-25.975,25.773c-14.738,0-25.976-11.373-25.976-25.572V92.375z M79.827,92.24    c0,11.709,8.815,20.861,20.458,20.861c11.776,0,20.39-9.486,20.39-20.861c0-11.373-8.613-20.861-20.457-20.861    c-11.709,0-20.391,9.286-20.391,20.792V92.24z"
         id="path1361" /><path
         fill="#1D1D1B"
         d="M172.16,80.262c-1.548-2.153-3.433-3.97-5.586-5.383c-3.23-2.221-7.133-3.5-11.574-3.5    c-10.902,0-20.39,8.344-20.39,20.792c0,12.652,9.556,20.996,20.457,20.996c5.249,0,9.892-1.815,13.324-4.508    c3.5-2.76,5.922-6.527,6.73-10.432h-27.104v-4.576h33.564c-0.067,2.895-0.74,6.527-2.221,9.624    c-4.307,9.354-14.267,14.804-24.293,14.804c-14.535,0-26.042-11.17-26.042-25.908c0-14.938,11.709-25.706,26.109-25.706    c10.094,0,19.448,5.653,23.351,13.795h-6.325V80.262L172.16,80.262z"
         id="path1363" /><path
         fill="#1D1D1B"
         d="M184.25,67.342h27.59v4.912h-22.071v17.294h21.937v4.912h-21.937v17.767h22.071v4.912h-27.59V67.342z"
         id="path1365" /><path
         fill="#1D1D1B"
         d="M214.061,92.375c0-15.341,11.911-25.908,25.975-25.908c14.603,0,25.975,11.171,25.975,25.773    c0,14.604-11.305,25.773-25.975,25.773c-14.737,0-25.975-11.373-25.975-25.572V92.375z M219.646,92.24    c0,11.709,8.815,20.861,20.457,20.861c11.777,0,20.39-9.486,20.39-20.861c0-11.373-8.613-20.861-20.457-20.861    c-11.709,0-20.39,9.286-20.39,20.792V92.24L219.646,92.24z"
         id="path1367" /></g><g
       id="g1379"><path
         fill="#1D1D1B"
         d="M327.466,92.375c0-15.341,11.91-25.908,25.976-25.908c14.603,0,25.976,11.171,25.976,25.773    c0,14.604-11.305,25.773-25.976,25.773c-14.737,0-25.976-11.373-25.976-25.572V92.375z M333.05,92.24    c0,11.709,8.816,20.861,20.459,20.861c11.777,0,20.391-9.486,20.391-20.861c0-11.373-8.613-20.861-20.458-20.861    c-11.708,0-20.392,9.286-20.392,20.792V92.24L333.05,92.24z"
         id="path1371" /><path
         fill="#1D1D1B"
         d="M435.001,103.748c-3.229,7.672-11.91,14.268-22.879,14.268c-14.736,0-25.976-11.373-25.976-25.772    c0-14.2,10.97-25.774,25.906-25.774c12.313,0,20.054,8.21,22.946,14.535h-5.99c-1.684-2.96-7.334-9.623-16.956-9.623    c-11.642,0-20.39,9.219-20.39,20.793c0,11.777,8.813,20.929,20.39,20.929c10.433,0,15.745-7.47,16.956-9.354L435.001,103.748    L435.001,103.748z"
         id="path1373" /><path
         fill="#1D1D1B"
         d="M489.644,67.342h27.592v4.912h-22.072v17.294h21.936v4.912h-21.936v17.767h22.072v4.912h-27.592V67.342    L489.644,67.342z"
         id="path1375" /><path
         fill="#1D1D1B"
         d="M545.228,72.254h-16.047v-4.912h37.746v4.912h-16.113v44.885h-5.586V72.254z"
         id="path1377" /></g><path
       fill="#F10000"
       d="M214.245,155.511c-2.053,6.982-8.625,11.957-16.521,11.957c-10.314,0-17.707-8.17-17.707-17.569   c0-8.99,6.982-17.479,17.662-17.479c9.721,0.047,15.243,7.211,16.566,12.142h-7.165c-1.049-2.328-4.061-6.115-9.447-6.162   c-6.572,0-10.816,5.521-10.816,11.5c0,6.162,4.427,11.594,10.862,11.594c6.024,0,8.763-4.746,9.401-5.979L214.245,155.511   L214.245,155.511z"
       id="path1381" /><path
       fill="#F10000"
       d="M232.454,150.216c0-10.813,8.306-17.799,17.708-17.799c10.223,0,17.753,7.94,17.753,17.524   s-7.485,17.523-17.799,17.523c-10.36,0-17.662-8.168-17.662-17.203V150.216L232.454,150.216z M239.254,149.943   c0,6.162,4.427,11.547,11,11.547c6.846,0,10.862-5.934,10.862-11.5c0-5.658-4.016-11.594-10.908-11.594   c-6.754,0-10.954,5.567-10.954,11.502V149.943z"
       id="path1383" /><path
       fill="#F10000"
       d="M287.996,133.059h6.799v27.793h11.09v5.979h-17.889V133.059z"
       id="path1385" /><path
       fill="#F10000"
       d="M322.606,150.216c0-10.813,8.306-17.799,17.707-17.799c10.224,0,17.754,7.94,17.754,17.524   s-7.485,17.523-17.799,17.523c-10.358,0-17.662-8.168-17.662-17.203V150.216z M329.406,149.943c0,6.162,4.428,11.547,10.998,11.547   c6.846,0,10.862-5.934,10.862-11.5c0-5.658-4.017-11.594-10.907-11.594c-6.754,0-10.953,5.567-10.953,11.502V149.943   L329.406,149.943z"
       id="path1387" /><path
       fill="#1D1D1B"
       d="M475.574,117.139h6.932l-25.871-24.968l23.783-24.83h-6.055l-26.105,26.998v-6.396V67.342h-5.518v49.797   h5.518v-16.228l5.08-5.306L475.574,117.139z"
       id="path1389" /><path
       fill="#F10000"
       d="M385.808,133.059c3.799,0.096,7.156,0.291,10.176,2.821c0.778,0.636,1.51,1.461,2.045,2.289   c1.559,2.388,1.704,5.063,1.704,5.99c0,0.825-0.097,3.114-1.362,5.209c-0.342,0.532-0.779,1.264-1.802,2.188   c-1.12,0.976-2.288,1.51-2.728,1.704c-0.828,0.341-1.654,0.585-3.456,0.974l9.933,13.193h-7.645l-9.543-12.998v12.998h-6.864   v-34.371L385.808,133.059L385.808,133.059z M383.13,149.369h3.408c0.391,0,0.729,0,1.121-0.049c0.729,0,3.164-0.098,4.771-2.045   c0.388-0.488,1.071-1.51,1.071-3.166c0-0.535-0.049-1.851-0.926-3.064c-1.511-2.047-3.848-2.24-6.186-2.291h-3.262v10.615H383.13z"
       id="path1391" /><path
       fill="none"
       d="M302.794,120.945c-10.838-21.554-21.646-43.05-32.461-64.562c0.06-0.042,0.108-0.083,0.163-0.11   c2.697-1.38,5.395-2.76,8.091-4.138c3.812-1.946,7.625-3.883,11.433-5.839c4.003-2.056,8.21-3.293,12.751-3.146   c3.091,0.1,5.925,0.999,8.411,2.895c2.194,1.674,3.747,3.848,4.937,6.306c1.129,2.332,1.934,4.759,1.979,7.377   c0.063,3.636-1.036,6.924-2.985,9.977c-1.306,2.042-2.796,3.921-4.544,5.584c-1.204,1.146-2.491,2.204-3.739,3.299   c-4.569-3.241-9.041-6.41-13.531-9.593c0.853-3.113,1.693-6.198,2.539-9.291c4.361,0,8.662,0,12.94,0c0-3.277,0-6.527,0-9.823   c-6.682,0.064-13.29,0.127-19.897,0.193c-2.407,6.801-4.803,13.565-7.2,20.342c7.735,6.398,15.444,12.774,23.159,19.157   c3.066-1.169,5.975-2.609,8.713-4.387c4.363-2.835,8-6.396,10.671-10.881c2.481-4.169,3.728-8.71,3.796-13.559   c0.042-3.005-0.414-5.943-1.298-8.823c-1.173-3.816-2.987-7.27-5.755-10.165c-5.189-5.433-11.553-8.353-19.081-8.621   c-4.45-0.158-8.66,0.847-12.632,2.842c-1.789,0.9-3.541,1.872-5.341,2.744c-4.01,1.939-8.04,3.837-12.062,5.748   c-3.547,1.686-7.095,3.366-10.642,5.047c-1.199,0.569-2.399,1.14-3.6,1.71c12.046,24.561,24.078,49.093,36.104,73.625   C296.762,123.541,299.748,122.255,302.794,120.945z"
       id="path1393" /><path
       fill="#F10000"
       d="M302.794,120.945c-3.047,1.311-6.032,2.596-9.086,3.908c-12.025-24.529-24.059-49.063-36.104-73.624   c1.201-0.57,2.4-1.141,3.6-1.71c3.547-1.682,7.095-3.362,10.642-5.047c4.022-1.911,8.052-3.809,12.062-5.748   c1.8-0.872,3.552-1.844,5.341-2.744c3.972-1.996,8.182-3,12.631-2.842c7.529,0.268,13.893,3.188,19.082,8.621   c2.768,2.895,4.582,6.348,5.754,10.165c0.885,2.879,1.341,5.818,1.299,8.823c-0.068,4.849-1.313,9.39-3.796,13.559   c-2.673,4.484-6.308,8.045-10.673,10.881c-2.736,1.776-5.645,3.217-8.711,4.386c-7.715-6.382-15.424-12.758-23.159-19.156   c2.397-6.777,4.793-13.541,7.2-20.342c6.607-0.065,13.218-0.129,19.897-0.193c0,3.296,0,6.546,0,9.823c-4.278,0-8.579,0-12.94,0   c-0.846,3.093-1.688,6.178-2.539,9.291c4.49,3.183,8.961,6.352,13.531,9.593c1.248-1.095,2.535-2.153,3.739-3.299   c1.748-1.663,3.238-3.542,4.543-5.584c1.95-3.053,3.05-6.341,2.986-9.977c-0.048-2.618-0.851-5.045-1.979-7.377   c-1.188-2.458-2.742-4.632-4.937-6.306c-2.486-1.896-5.32-2.794-8.411-2.895c-4.541-0.147-8.748,1.089-12.751,3.146   c-3.806,1.956-7.621,3.893-11.433,5.839c-2.697,1.378-5.395,2.758-8.091,4.138c-0.055,0.028-0.104,0.069-0.163,0.11   C281.149,77.895,291.957,99.391,302.794,120.945z"
       id="path1395" /><path
       fill="#F10000"
       d="M310.439,26.526c-2.162-0.445-4.264-0.879-6.423-1.324c1.257-8.395,2.514-16.788,3.774-25.202   c3.935,0.574,7.832,1.145,11.791,1.724C316.526,10.012,313.488,18.253,310.439,26.526z"
       id="path1397" /><path
       fill="#07B8F9"
       d="M345.539,19.679c2.088,3.381,4.147,6.72,6.241,10.112c-6.819,4.222-13.635,8.44-20.472,12.671   c-1.434-2.14-2.84-4.241-4.278-6.391C333.195,30.612,339.347,25.163,345.539,19.679z"
       id="path1399" /><path
       fill="#069211"
       d="M329.069,6.482c3.017,2.085,5.979,4.134,8.954,6.19c-5.377,6.412-10.738,12.805-16.136,19.239   c-1.888-1.165-3.759-2.319-5.683-3.507C320.475,21.129,324.753,13.837,329.069,6.482z"
       id="path1401" /><g
       id="g1407"><path
         d="M412.074,158.443h-1.98v-1.621h5.791v1.621h-1.967v7.535h-1.844V158.443L412.074,158.443z"
         id="path1403" /><path
         d="M416.851,165.979v-9.156h2.486l2.354,6.57l2.313-6.57h2.5v9.156h-1.709l0.051-7.338l-2.563,7.338h-1.213l-2.574-7.338    l0.051,7.338H416.851z"
         id="path1405" /></g></g><path
     style="fill:#ffffff;stroke-width:0.46814781"
     d="M 0.32770347,92.090485 V 67.489362 l 2.66672363,0.140399 2.6667234,0.1404 14.0695605,20.647124 14.069561,20.647125 0.121857,-20.764162 0.121856,-20.764161 h 2.569994 2.569993 v 24.57776 24.577763 l -2.69185,-0.0156 -2.69185,-0.0156 L 19.521764,95.72636 5.2432555,74.792378 5.121399,95.741993 4.9995424,116.69161 H 2.663623 0.32770347 Z"
     id="path1418"
     inkscape:connector-curvature="0" /><path
     style="fill:#ffffff;stroke-width:0.46814781"
     d="M 45.738041,92.347921 V 67.536087 h 12.874065 12.874065 v 2.340739 2.340739 H 60.952845 50.419519 v 8.660734 8.660735 h 10.533326 10.533326 v 2.340739 2.340739 H 60.952845 50.419519 v 9.128878 9.12889 h 10.533326 10.533326 v 2.34074 2.34074 H 58.612106 45.738041 Z"
     id="path1420"
     inkscape:connector-curvature="0" /><path
     style="fill:#ffffff;stroke-width:0.46814781"
     d="M 93.489118,116.91676 C 84.616129,114.48525 78.021447,107.99285 75.4283,99.136064 c -0.543007,-1.854615 -0.813646,-4.323733 -0.796625,-7.267818 0.04311,-7.457068 2.649331,-13.368041 8.13232,-18.444321 9.96516,-9.225981 25.887965,-8.927568 35.549045,0.666231 5.1295,5.093771 7.48301,10.838116 7.47272,18.239085 -0.0117,8.411419 -3.38984,15.298369 -9.93415,20.252459 -4.4354,3.35765 -8.37888,4.67059 -14.63805,4.87362 -3.598087,0.1167 -5.9254,-0.0456 -7.724442,-0.53856 z m 13.826252,-4.87267 c 7.17086,-2.52036 12.46003,-9.34254 13.27402,-17.121356 0.98935,-9.45451 -3.44102,-17.760501 -11.55063,-21.654975 -6.64725,-3.192209 -14.86567,-2.505933 -20.789488,1.736019 -8.327425,5.963139 -10.941396,17.323021 -6.216336,27.015162 4.487342,9.20453 15.355696,13.51411 25.282434,10.02515 z"
     id="path1422"
     inkscape:connector-curvature="0" /><path
     style="fill:#ffffff;stroke-width:0.46814781"
     d="m 147.54974,116.75359 c -8.26098,-2.36637 -14.87092,-9.08304 -17.33757,-17.617526 -1.14141,-3.949233 -1.04617,-10.766277 0.20604,-14.746656 4.73709,-15.057793 22.17634,-21.98567 36.98893,-14.694138 3.59975,1.771984 8.35856,6.0372 10.02394,8.984225 l 0.84573,1.496583 h -2.98139 c -2.78129,0 -3.05231,-0.09592 -4.03805,-1.429206 -1.80716,-2.444311 -6.46962,-5.523488 -9.97651,-6.588675 -2.60512,-0.791281 -4.06364,-0.944124 -7.31682,-0.766758 -7.04172,0.383918 -12.17622,3.201683 -15.88254,8.716179 -2.57129,3.825736 -3.54456,7.211538 -3.51855,12.240303 0.0562,10.870569 7.01659,19.111589 17.514,20.736439 10.08923,1.56167 20.2588,-4.63438 23.08543,-14.065333 l 0.3157,-1.053332 H 161.87025 148.26241 V 95.85903 93.752364 h 16.62478 16.62478 l -0.28082,1.989629 c -0.81032,5.741167 -3.87796,11.673597 -7.83957,15.160747 -2.75141,2.42189 -7.76331,5.07718 -11.34329,6.00965 -3.67907,0.95828 -10.87396,0.87947 -14.49855,-0.1588 z"
     id="path1424"
     inkscape:connector-curvature="0" /><path
     style="fill:#ffffff;stroke-width:0.46814781"
     d="M 184.30979,92.347921 V 67.536087 h 13.57629 13.57629 v 2.340739 2.340739 h -11.00148 -11.00147 v 8.660734 8.660735 h 11.00147 11.00148 v 2.340739 2.340739 h -11.00148 -11.00147 v 9.128878 9.12889 h 11.00147 11.00148 v 2.34074 2.34074 h -13.57629 -13.57629 z"
     id="path1426"
     inkscape:connector-curvature="0" /><path
     style="fill:#ffffff;stroke-width:0.46814781"
     d="m 232.76309,116.75406 c -4.26403,-1.22528 -7.63718,-3.24375 -11.04663,-6.61026 -14.29466,-14.114592 -6.88596,-38.681576 12.91922,-42.839729 4.12118,-0.865253 6.64268,-0.867629 10.69006,-0.01007 9.00673,1.908336 16.00215,7.923104 18.89734,16.248216 4.98844,14.344276 -3.02266,29.593233 -17.52056,33.350033 -3.72291,0.96469 -10.32924,0.8992 -13.93943,-0.13819 z m 11.05259,-3.81733 c 9.82647,-1.86355 16.80221,-10.4058 16.80221,-20.575421 0,-5.882015 -1.91431,-10.736139 -5.92489,-15.023772 -7.72082,-8.25418 -22.13605,-8.025814 -29.77606,0.471712 -10.56192,11.747401 -5.09982,30.821461 9.95282,34.755971 3.59097,0.93862 5.53079,1.01918 8.94592,0.37151 z"
     id="path1428"
     inkscape:connector-curvature="0" /><path
     style="fill:#ffffff;stroke-width:0.46814781"
     d="m 346.86348,116.97834 c -8.68584,-2.20137 -15.89431,-9.28799 -18.39978,-18.088732 -0.98064,-3.444602 -0.7888,-10.464749 0.39037,-14.285566 3.62223,-11.736901 15.39225,-19.219466 27.77376,-17.656632 10.7902,1.361973 19.36221,8.894879 21.76742,19.128747 0.99598,4.237795 0.67897,11.033792 -0.69481,14.894703 -2.45608,6.9027 -7.88115,12.40079 -14.90444,15.10507 -2.56589,0.98798 -4.13943,1.24788 -8.31448,1.37331 -3.25846,0.0979 -6.05613,-0.075 -7.61804,-0.4709 z m 10.40217,-4.06696 c 5.60974,-1.03702 10.30058,-4.17224 13.38696,-8.94746 2.47991,-3.83691 3.41746,-7.696804 3.1805,-13.094091 -0.24252,-5.523906 -1.90746,-9.407657 -5.76814,-13.455181 -5.04607,-5.29027 -12.89536,-7.409013 -20.16152,-5.442156 -15.73201,4.258457 -20.30445,24.840255 -8.03171,36.152878 2.56877,2.36781 5.09191,3.69857 8.64563,4.5599 3.36082,0.81459 5.29457,0.86456 8.74828,0.22611 z"
     id="path1430"
     inkscape:connector-curvature="0" /><path
     style="fill:#ffffff;stroke-width:0.46814781"
     d="m 406.91408,117.31942 c -9.10811,-1.94433 -16.44515,-8.49913 -19.20135,-17.15419 -2.97469,-9.341161 -0.5844,-19.217772 6.31057,-26.075074 4.64714,-4.621748 11.4426,-7.474107 17.80633,-7.474107 5.371,0 11.56957,2.177733 15.82147,5.558522 2.29731,1.826648 6.64963,7.097504 6.64963,8.053007 0,0.229156 -1.2284,0.416648 -2.72978,0.416648 -2.46612,0 -2.7932,-0.118492 -3.38635,-1.2268 -1.0061,-1.879926 -4.47711,-4.714711 -7.73918,-6.320625 -3.89279,-1.916414 -9.46195,-2.35906 -14.05119,-1.116812 -6.62708,1.793867 -11.96645,7.075509 -13.96486,13.813863 -0.89095,3.004176 -1.01652,9.358477 -0.24245,12.268963 0.90451,3.400945 3.29518,7.333705 5.9118,9.725145 8.37949,7.65838 20.67261,7.23784 28.69035,-0.98148 2.59177,-2.65692 2.77307,-2.75486 5.09948,-2.75486 1.3267,0 2.41218,0.16942 2.41218,0.37649 0,0.20707 -0.59893,1.31307 -1.33095,2.45778 -2.93019,4.58211 -8.5946,8.52051 -14.44713,10.0449 -2.45497,0.63944 -9.35204,0.87034 -11.60857,0.38863 z"
     id="path1432"
     inkscape:connector-curvature="0" /><path
     style="fill:#ffffff;stroke-width:0.46814781"
     d="m 442.72739,92.113847 v -24.57776 h 2.57481 2.57481 v 13.342212 c 0,7.338217 0.18326,13.342213 0.40724,13.342213 0.22398,0 6.17531,-5.951329 13.22518,-13.225176 l 12.81793,-13.225175 2.75501,-0.141015 2.75501,-0.141016 -4.6276,4.913969 c -2.54518,2.702682 -7.83833,8.268471 -11.76256,12.368419 l -7.13496,7.454451 12.59339,12.116281 12.5934,12.11628 -3.01654,0.13879 -3.01654,0.13879 -10.76787,-10.43804 c -5.92233,-5.74092 -10.94491,-10.499509 -11.16131,-10.574637 -0.21639,-0.07513 -1.57412,1.083538 -3.01717,2.574813 l -2.62374,2.711414 -0.009,7.84147 -0.009,7.84148 h -2.57481 -2.57481 z"
     id="path1434"
     inkscape:connector-curvature="0" /><path
     style="fill:#ffffff;stroke-width:0.46814781"
     d="M 490.01032,92.347921 V 67.536087 h 13.57628 13.57629 v 2.340739 2.340739 h -11.00147 -11.00148 v 8.660734 8.660735 h 10.7674 10.7674 v 2.340739 2.340739 h -10.7674 -10.7674 v 9.128878 9.12889 h 11.00148 11.00147 v 2.34074 2.34074 H 503.5866 490.01032 Z"
     id="path1436"
     inkscape:connector-curvature="0" /><path
     style="fill:#ffffff;stroke-width:0.46814781"
     d="M 545.25176,94.68866 V 72.217565 h -7.95851 -7.95852 v -2.340739 -2.340739 h 18.72592 18.72591 v 2.340739 2.340739 h -8.19259 -8.19259 v 22.471095 22.4711 h -2.57481 -2.57481 z"
     id="path1438"
     inkscape:connector-curvature="0" /><path
     style="fill:#ffffff;stroke-width:0.11703695"
     d="m 416.86696,161.39077 v -4.50592 h 1.21744 1.21743 l 0.11629,0.33358 c 0.7559,2.16836 2.17946,6.06491 2.24105,6.13413 0.0436,0.049 0.59738,-1.38611 1.23053,-3.18926 l 1.15118,-3.27845 h 1.21155 1.21156 v 4.50592 4.50593 h -0.83815 -0.83815 l 0.0758,-3.62815 c 0.0417,-1.99548 0.037,-3.62739 -0.0104,-3.62647 -0.0474,9.2e-4 -0.64555,1.62042 -1.32928,3.59889 l -1.24315,3.59721 -0.58601,0.0349 -0.58601,0.0349 -0.46746,-1.32229 c -0.25711,-0.72726 -0.82966,-2.36214 -1.27232,-3.63307 -0.44267,-1.27093 -0.83119,-2.31112 -0.86338,-2.31152 -0.0322,-4e-4 -0.0403,1.63195 -0.0179,3.62745 l 0.0406,3.62819 h -0.83057 -0.83056 z"
     id="path1440"
     inkscape:connector-curvature="0" /><path
     style="fill:#ffffff;stroke-width:0.11703695"
     d="m 412.15786,162.18077 -0.0309,-3.71592 -0.96556,-0.034 -0.96555,-0.034 v -0.756 -0.75601 h 2.80889 2.80888 v 0.76074 0.76074 h -0.99481 -0.99481 v 3.74518 3.74519 h -0.81762 -0.81761 z"
     id="path1442"
     inkscape:connector-curvature="0" /></svg>