<?xml version="1.0" encoding="UTF-8" standalone="no"?>
<svg
   xmlns:dc="http://purl.org/dc/elements/1.1/"
   xmlns:cc="http://creativecommons.org/ns#"
   xmlns:rdf="http://www.w3.org/1999/02/22-rdf-syntax-ns#"
   xmlns:svg="http://www.w3.org/2000/svg"
   xmlns="http://www.w3.org/2000/svg"
   xmlns:sodipodi="http://sodipodi.sourceforge.net/DTD/sodipodi-0.dtd"
   xmlns:inkscape="http://www.inkscape.org/namespaces/inkscape"
   version="1.0"
   width="900.000000pt"
   height="720.000000pt"
   viewBox="0 0 900.000000 720.000000"
   preserveAspectRatio="xMidYMid meet"
   id="svg1002"
   sodipodi:docname="system.svg"
   inkscape:version="0.92.2 (5c3e80d, 2017-08-06)">
  <defs
     id="defs1006" />
  <sodipodi:namedview
     pagecolor="#ffffff"
     bordercolor="#666666"
     borderopacity="1"
     objecttolerance="10"
     gridtolerance="10"
     guidetolerance="10"
     inkscape:pageopacity="0"
     inkscape:pageshadow="2"
     inkscape:window-width="1366"
     inkscape:window-height="746"
     id="namedview1004"
     showgrid="false"
     inkscape:zoom="0.60104167"
     inkscape:cx="757.79276"
     inkscape:cy="400.58394"
     inkscape:window-x="1912"
     inkscape:window-y="1072"
     inkscape:window-maximized="1"
     inkscape:current-layer="svg1002" />
  <metadata
     id="metadata972">
Created by potrace 1.10, written by Peter Selinger 2001-2011
<rdf:RDF>
  <cc:Work
     rdf:about="">
    <dc:format>image/svg+xml</dc:format>
    <dc:type
       rdf:resource="http://purl.org/dc/dcmitype/StillImage" />
  </cc:Work>
</rdf:RDF>
</metadata>
  <g
     transform="translate(0.000000,720.000000) scale(0.100000,-0.100000)"
     fill="#000000"
     stroke="none"
     id="g1000">
    <path
       d="M418 7179 c-10 -10 -29 -19 -42 -19 -21 0 -55 -13 -106 -42 -8 -4 -22 -11 -30 -15 -25 -11 -93 -66 -125 -102 -39 -44 -87 -134 -103 -194 -18 -71 -17 -6392 2 -6457 12 -43 31 -86 61 -140 44 -78 169 -167 275 -197 68 -18 7785 -18 7850 1 82 23 133 52 196 110 58 52 90 101 119 181 l25 68 0 3180 c0 2900 -1 3185 -16 3236 -34 118 -84 212 -147 276 -36 36 -135 95 -160 95 -9 0 -26 9 -37 20 -20 20 -33 20 -3882 19 -3794 -1 -3863 -1 -3880 -20z m7757 -100 c134 -47 207 -134 259 -308 15 -48 16 -344 16 -3216 0 -3136 0 -3162 -20 -3220 -19 -56 -57 -117 -90 -142 -52 -42 -95 -67 -155 -88 l-68 -25 -3837 0 c-3504 0 -3842 1 -3891 16 -87 26 -120 46 -183 110 -64 63 -84 96 -110 183 -15 49 -16 331 -16 3189 0 2875 1 3140 16 3191 50 169 147 261 329 312 56 16 329 17 3875 18 l3816 1 59 -21z"
       id="path974" />
    <path
       d="M1430 6624 c-109 -19 -154 -33 -265 -86 -55 -26 -68 -35 -155 -99 -82 -62 -122 -102 -192 -194 -44 -58 -138 -239 -138 -266 0 -7 -6 -31 -14 -54 -8 -22 -20 -86 -27 -142 -27 -225 31 -453 169 -661 110 -167 333 -323 537 -376 225 -58 456 -36 670 66 76 36 179 109 249 176 47 45 156 183 156 198 0 4 6 15 13 23 19 22 72 154 91 226 9 33 20 101 25 150 9 79 8 92 -7 103 -12 9 -120 12 -461 12 -245 0 -452 -4 -459 -8 -9 -7 -12 -44 -10 -153 l3 -144 285 -5 c325 -6 308 1 246 -93 -66 -99 -196 -204 -306 -245 -19 -7 -80 -23 -134 -34 -103 -22 -151 -20 -281 11 -222 53 -424 255 -476 476 -35 150 -35 191 -1 350 28 127 144 290 268 374 51 35 169 91 192 91 9 0 39 7 66 15 27 8 81 15 121 15 40 0 94 -7 121 -15 27 -8 57 -15 66 -15 30 0 150 -61 208 -105 30 -23 74 -63 97 -88 24 -25 51 -51 62 -57 11 -5 82 -10 161 -10 161 0 166 3 130 72 -59 114 -166 238 -275 320 -62 46 -241 138 -270 138 -9 0 -25 5 -36 11 -30 16 -204 39 -283 38 -39 -1 -105 -8 -146 -15z"
       id="path976" />
    <path
       d="M3330 6253 c-135 -203 -247 -372 -250 -378 -3 -5 -104 -158 -225 -340 -121 -181 -222 -334 -224 -340 -2 -5 -17 -26 -32 -46 -16 -20 -29 -39 -29 -42 0 -2 -45 -71 -99 -153 -55 -82 -97 -152 -95 -156 3 -4 85 -8 184 -8 l178 0 79 118 c43 64 80 122 83 127 11 22 65 102 84 123 19 22 22 22 295 22 152 0 281 -4 287 -8 8 -5 11 -64 10 -185 -1 -98 1 -183 5 -188 3 -6 68 -8 155 -7 l149 3 0 910 0 910 -155 3 -155 2 -245 -367z m246 -486 c-1 -193 -4 -247 -15 -261 -12 -14 -34 -16 -170 -14 -141 3 -156 5 -159 21 -2 11 58 110 145 240 81 122 151 230 155 239 4 10 16 18 26 18 17 0 18 -13 18 -243z"
       id="path978" />
    <path
       d="M4933 6233 c-142 -214 -259 -391 -261 -395 -2 -3 -157 -238 -346 -522 -189 -283 -341 -518 -338 -521 3 -3 87 -5 186 -5 l181 0 101 153 c56 83 213 321 350 527 137 206 251 379 253 385 2 5 17 26 32 46 16 20 29 40 29 43 0 14 45 66 57 66 10 0 13 -116 15 -607 l3 -608 155 -3 155 -2 165 247 c91 136 167 252 170 258 3 5 104 158 225 340 121 181 222 334 224 340 6 16 42 48 47 42 3 -3 6 -279 7 -613 l2 -609 153 -3 152 -3 0 916 0 915 -154 0 -154 0 -174 -262 c-96 -145 -192 -289 -214 -321 -21 -32 -44 -66 -49 -75 -43 -73 -378 -568 -385 -570 -6 -2 -11 234 -12 610 l-3 613 -157 3 -157 3 -258 -388z"
       id="path980" />
    <path
       d="M6915 6608 c-3 -7 -4 -418 -3 -913 l3 -900 470 0 470 0 3 130 c1 72 0 140 -3 153 l-5 22 -309 0 c-272 0 -310 2 -315 16 -3 9 -6 98 -6 199 0 101 3 190 6 199 5 14 42 16 309 16 246 0 305 3 314 14 8 9 11 59 9 152 l-3 139 -315 5 -315 5 -3 210 c-1 116 0 220 3 233 l5 22 310 0 310 0 5 23 c3 12 4 81 3 152 l-3 130 -468 3 c-369 2 -469 0 -472 -10z"
       id="path982" />
    <path
       d="M4005 4471 c-131 -39 -217 -112 -272 -229 -22 -47 -25 -68 -25 -156 0 -95 3 -108 33 -169 18 -37 56 -94 86 -126 29 -33 53 -63 53 -68 0 -4 -26 -26 -56 -48 -162 -115 -264 -300 -264 -476 0 -71 30 -189 66 -264 44 -90 150 -194 244 -237 169 -78 375 -74 548 11 58 28 150 120 204 202 28 43 58 79 65 79 12 0 53 -35 208 -181 108 -102 139 -129 147 -129 10 0 21 11 110 107 75 82 83 98 59 115 -16 12 -102 91 -328 302 -68 64 -73 72 -67 100 3 17 10 36 14 41 4 6 27 55 50 109 23 54 46 106 50 115 13 25 64 139 90 204 21 50 22 60 10 67 -16 11 -232 13 -267 4 -16 -4 -33 -31 -64 -102 -105 -242 -102 -236 -122 -240 -9 -2 -48 27 -89 66 -40 38 -88 82 -107 99 l-34 30 66 71 c36 40 73 87 82 104 33 65 55 151 55 217 0 263 -281 460 -545 382z m233 -317 c17 -20 32 -47 32 -59 0 -31 -20 -86 -41 -113 -23 -30 -88 -82 -103 -82 -19 0 -105 88 -126 130 -28 54 -25 83 10 124 36 40 53 46 135 41 55 -3 63 -7 93 -41z m-78 -666 c25 -23 70 -65 100 -92 30 -28 89 -82 129 -120 l74 -69 -15 -31 c-9 -17 -19 -38 -22 -46 -12 -32 -80 -126 -106 -148 -49 -41 -89 -52 -189 -52 -109 0 -153 14 -205 67 -60 60 -71 90 -71 198 0 91 3 104 26 140 15 22 42 54 60 71 39 36 158 124 168 124 3 0 26 -19 51 -42z"
       id="path984" />
    <path
       d="M5685 2460 c-207 -45 -352 -124 -495 -269 -85 -86 -166 -205 -204 -301 -10 -25 -23 -56 -28 -70 -25 -62 -48 -209 -48 -307 0 -255 111 -512 299 -691 62 -59 191 -148 261 -179 142 -64 236 -83 404 -83 179 1 271 22 421 97 149 76 280 189 368 320 26 39 47 76 47 82 0 13 15 12 -188 11 l-164 -1 -63 -52 c-318 -262 -787 -183 -991 168 -81 139 -113 320 -79 448 8 32 15 64 15 72 0 28 63 150 106 206 55 71 123 132 194 173 74 42 108 54 220 78 83 18 104 20 165 10 117 -19 147 -27 215 -61 96 -48 105 -53 160 -104 l51 -47 174 0 c105 0 176 4 180 10 17 28 -157 233 -272 320 -59 44 -186 112 -263 139 -143 51 -339 63 -485 31z"
       id="path986" />
    <path
       d="M657 2413 c-4 -3 -7 -415 -7 -915 l0 -908 159 0 159 0 36 50 c20 28 36 53 36 56 0 3 13 23 29 43 15 20 30 41 32 46 2 6 90 138 194 295 105 157 192 290 194 295 2 6 17 26 32 46 16 20 29 40 29 44 0 4 13 24 30 45 16 21 30 40 30 43 0 12 167 252 176 252 5 0 11 -244 14 -605 l5 -605 160 0 160 0 103 154 c56 85 102 156 102 159 0 2 13 21 29 41 15 20 30 41 32 46 2 6 117 179 254 385 138 206 252 380 254 385 2 6 16 26 31 45 15 19 29 40 31 45 2 6 84 130 182 277 98 147 176 272 172 278 -7 11 -322 14 -350 4 -13 -5 -380 -545 -394 -579 -2 -5 -17 -26 -32 -46 -16 -20 -29 -40 -29 -44 0 -4 -13 -24 -30 -45 -16 -21 -30 -40 -30 -42 0 -12 -312 -473 -318 -471 -4 2 -9 279 -12 615 l-5 613 -151 3 -151 3 -42 -55 c-22 -30 -41 -58 -41 -62 0 -3 -13 -23 -29 -43 -15 -20 -30 -40 -32 -46 -2 -5 -103 -158 -224 -340 -121 -181 -222 -334 -224 -340 -2 -5 -17 -26 -32 -46 -16 -20 -29 -40 -29 -44 0 -4 -13 -24 -30 -45 -16 -21 -30 -40 -30 -43 0 -3 -19 -34 -43 -69 -24 -35 -46 -71 -50 -80 -3 -10 -13 -18 -22 -18 -13 0 -15 68 -15 603 0 456 -3 606 -12 615 -13 13 -289 18 -301 5z"
       id="path988" />
    <path
       d="M3518 2392 c-22 -26 -336 -492 -348 -517 -3 -6 -171 -260 -375 -565 -203 -305 -372 -559 -374 -564 -2 -4 -23 -37 -47 -72 -24 -35 -44 -69 -44 -74 0 -6 68 -10 179 -10 l179 0 29 37 c16 21 73 106 128 188 55 83 104 153 110 157 12 9 536 11 559 2 14 -5 16 -32 16 -195 l0 -188 142 -3 c83 -2 147 1 155 7 11 8 13 163 11 915 l-3 905 -146 3 -147 3 -24 -29z m10 -843 l-3 -254 -179 -3 c-154 -2 -178 0 -173 12 4 9 64 102 134 208 70 106 130 198 133 203 17 35 75 104 82 97 5 -5 7 -123 6 -263z"
       id="path990" />
    <path
       d="M3970 2401 c-5 -11 -10 -74 -10 -141 0 -67 5 -130 10 -141 10 -18 23 -19 168 -19 110 0 162 -4 170 -12 9 -9 12 -190 12 -755 l0 -743 23 -1 c125 -3 281 1 288 8 5 5 10 344 11 753 l3 745 159 3 c97 1 165 7 173 13 10 9 13 48 13 154 0 121 -2 144 -16 149 -9 3 -236 6 -504 6 -474 0 -490 -1 -500 -19z"
       id="path992" />
    <path
       d="M6807 2413 c-4 -3 -7 -415 -7 -915 l0 -908 23 0 c164 -3 278 -1 287 5 7 4 10 122 10 382 -1 298 2 378 12 384 22 14 522 11 536 -3 9 -9 12 -109 12 -390 l0 -378 23 -1 c107 -2 279 1 287 6 16 10 14 1797 -2 1813 -13 13 -262 18 -292 6 -14 -5 -16 -46 -16 -358 0 -193 -4 -357 -9 -364 -6 -10 -66 -13 -276 -13 -147 0 -269 2 -272 4 -2 3 -4 161 -3 351 0 226 -3 353 -10 366 -10 18 -22 20 -154 20 -78 0 -146 -3 -149 -7z"
       id="path994" />
    <path
       d="M8577 253 c-14 -13 -6 -23 26 -31 l32 -8 5 -82 c5 -80 20 -116 40 -96 5 5 10 47 12 94 3 76 5 85 23 88 26 5 46 22 39 33 -6 10 -167 12 -177 2z"
       id="path996" />
    <path
       d="M8789 256 c-11 -11 1 -210 13 -218 18 -10 30 5 37 48 7 41 24 48 29 12 6 -54 13 -68 31 -68 21 0 31 19 31 60 0 39 18 48 26 13 12 -55 16 -63 30 -63 11 0 14 21 14 110 l0 110 -30 0 c-32 0 -37 -10 -42 -79 -5 -66 -49 -46 -57 26 -6 47 -7 48 -41 51 -20 2 -38 1 -41 -2z"
       id="path998" />
  </g>
  <path
     style="fill:#ffffff;stroke-width:1.66377819"
     d="m 188.84349,328.38918 c -24.65752,-4.67194 -47.29652,-17.05799 -66.82833,-36.56249 -39.260021,-39.20515 -47.970801,-99.19183 -21.52618,-148.23975 9.64906,-17.89649 20.14301,-30.33241 35.08592,-41.57877 23.40553,-17.615513 47.47344,-25.663445 76.59409,-25.611863 22.40765,0.03969 36.53505,3.362668 56.73738,13.345475 12.59163,6.222054 20.20705,11.365078 28.72045,19.396178 17.51168,16.51965 32.1117,37.96741 27.73698,40.74627 -1.12756,0.71624 -9.64143,1.31372 -18.91969,1.32773 l -16.86959,0.0255 -14.14807,-12.12113 c -21.57283,-18.48214 -39.76474,-26.02724 -62.75401,-26.02724 -40.50566,0 -78.12898,29.41996 -87.28216,68.25122 -12.08551,51.27134 20.37259,100.44249 72.94203,110.50067 32.06524,6.1351 68.73927,-9.2822 87.72641,-36.87907 5.42603,-7.88646 6.02046,-11.39665 2.17955,-12.87054 -1.44745,-0.55545 -11.43989,-1.00989 -22.2054,-1.00989 -10.76553,0 -26.42699,-0.48647 -34.80327,-1.08103 L 216,238.9194 v -18.90481 -18.90481 l 61.14385,0.43645 61.14384,0.43644 -0.18863,12.67944 c -0.596,40.06216 -29.52633,82.5359 -69.97517,102.73327 -23.11325,11.54117 -53.87669,15.80713 -79.2804,10.9938 z"
     id="path1008"
     inkscape:connector-curvature="0"
     transform="scale(0.75)" />
  <path
     style="fill:#ffffff;stroke-width:1.66377819"
     d="m 320.97328,319.43722 c -2.86454,-1.84656 -6.40622,3.74099 85.64567,-135.11923 L 477.07756,78.031196 h 20.03315 20.03314 V 198.42897 318.82673 l -7.71922,1.05805 c -9.62996,1.31992 -23.54011,1.33007 -28.42453,0.0208 -3.58283,-0.96044 -3.71462,-1.76361 -4.15944,-25.34989 l -0.45938,-24.35812 H 437.2825 398.18371 l -16.77157,24.95668 -16.77157,24.95667 -20.66344,0.41751 c -11.36489,0.22962 -21.71662,-0.26142 -23.00385,-1.09121 z m 155.4333,-95.40949 c 0.50632,-2.05893 0.70776,-17.59445 0.44764,-34.5234 -0.39193,-25.50753 -0.88463,-30.77989 -2.87638,-30.77989 -2.84671,0 -43.35046,61.72537 -43.35046,66.06359 0,2.72089 1.9722,2.9832 22.42931,2.9832 21.87807,0 22.45193,-0.092 23.34989,-3.7435 z"
     id="path1010"
     inkscape:connector-curvature="0"
     transform="scale(0.75)" />
  <path
     style="fill:#ffffff;stroke-width:1.66377819"
     d="m 533.78163,319.53134 c 0,-0.77632 22.20209,-35.02935 49.33799,-76.11785 27.13589,-41.08851 62.79053,-95.10846 79.23254,-120.04434 l 29.89456,-45.337954 h 20.59414 20.59415 l 0.01,67.798964 c 0.01,66.23445 1.00599,95.2513 3.27029,95.2513 0.61779,0 25.40112,-36.67065 55.07402,-81.49034 l 53.95073,-81.49033 20.38129,-0.0348 20.38128,-0.0348 V 199.487 320.94281 H 874.2565 c -6.73536,0 -15.71976,-0.47613 -19.96534,-1.05803 l -7.71922,-1.05805 -0.11694,-78.38737 c -0.0642,-43.11305 -0.65277,-79.74644 -1.30768,-81.40752 -1.15034,-2.91769 -1.28334,-2.91769 -3.91995,0 -1.50106,1.66108 -26.23189,38.58341 -54.95742,82.04962 l -52.22821,79.02946 -9.87008,0.53816 c -5.42854,0.29599 -14.44663,0.0602 -20.04019,-0.5239 l -10.17012,-1.06206 -0.79282,-79.76313 c -0.43605,-43.86971 -1.3505,-80.32027 -2.03212,-81.00123 -2.11301,-2.11095 -8.1106,6.39978 -60.38951,85.69431 l -50.733,76.94974 h -23.11612 c -12.71387,0 -23.11613,-0.63517 -23.11613,-1.41147 z"
     id="path1012"
     inkscape:connector-curvature="0"
     transform="scale(0.75)" />
  <path
     style="fill:#ffffff;stroke-width:1.66377819"
     d="m 923.10572,199.66501 c 0,-107.537527 0.26571,-119.715986 2.63174,-120.623919 1.44746,-0.555442 29.14937,-1.009895 61.55979,-1.009895 h 58.92805 v 19.965338 19.965336 h -41.3795 -41.3796 l -1.14742,10.14191 c -0.63109,5.57805 -0.62841,19.6897 0.006,31.35921 l 1.15338,21.21731 27.49721,1.08446 c 15.12343,0.59645 33.74153,1.08446 41.37353,1.08446 h 13.8764 v 18.87609 18.8761 l -40.9168,0.96622 c -22.50428,0.53141 -41.40896,1.45832 -42.01042,2.05978 -1.60779,1.60779 -1.33493,53.53797 0.28986,55.16636 0.76089,0.76256 19.66557,1.61085 42.01036,1.88509 l 40.627,0.4986 v 19.05079 19.05078 h -61.55978 -61.55979 z"
     id="path1014"
     inkscape:connector-curvature="0"
     transform="scale(0.75)" />
  <path
     style="fill:#ffffff;stroke-width:1.66377819"
     d="m 533.78163,605.28591 c -17.98921,-3.51319 -38.1686,-18.01203 -47.69617,-34.26961 -5.27749,-9.00536 -10.53607,-28.3581 -10.53607,-38.77511 0,-20.80624 12.40252,-43.73992 32.02773,-59.22294 5.2617,-4.15114 9.56673,-8.44745 9.56673,-9.54736 0,-1.0999 -3.10177,-5.7296 -6.89283,-10.28822 -11.12657,-13.37933 -14.70106,-22.68602 -14.72004,-38.32567 -0.0134,-11.0871 0.72407,-14.88511 4.27362,-22.00814 9.74717,-19.56002 32.1056,-31.71871 54.95438,-29.88463 18.54372,1.48851 35.21725,12.31632 45.25316,29.38743 3.96788,6.74939 4.48006,9.33249 4.48006,22.59461 0,18.10798 -4.01229,28.03417 -17.24557,42.66461 l -8.49242,9.38905 11.59015,10.93356 c 15.71462,14.82438 19.52367,17.2469 22.35766,14.21926 1.20286,-1.28505 5.65292,-10.14627 9.88902,-19.69159 11.88713,-26.78562 9.87608,-25.07121 29.40941,-25.07121 13.20034,0 16.84837,0.51267 17.60081,2.4735 0.52205,1.36043 -5.49105,16.94306 -13.36243,34.62806 -7.8714,17.68501 -14.31162,34.13472 -14.31162,36.55492 0,3.5489 5.14993,9.16253 26.61498,29.01146 14.63823,13.5361 26.61644,25.35979 26.61822,26.27487 0.002,0.91507 -5.07925,7.21815 -11.2912,14.00683 l -11.29446,12.34304 -22.88851,-21.07788 c -12.58869,-11.59284 -23.56858,-21.07789 -24.39978,-21.07789 -0.8312,0 -6.00124,5.89828 -11.48899,13.10728 -5.48775,7.20902 -12.90849,15.4285 -16.49052,18.26552 -15.84112,12.5464 -40.84568,17.81544 -63.52532,13.38625 z m 38.78051,-39.571 c 7.37709,-4.55931 22.77928,-26.96491 22.77928,-33.13709 0,-1.86413 -44.48958,-42.60151 -47.21904,-43.23663 -3.15817,-0.73489 -23.87075,15.68492 -29.38111,23.29174 -4.52696,6.24929 -4.92498,7.92816 -4.92498,20.77385 0,8.94921 0.86696,15.65161 2.41068,18.63684 3.26673,6.31717 13.27243,14.86646 18.83301,16.09173 2.49968,0.55081 5.29357,1.30033 6.20865,1.66561 4.69946,1.87595 26.18631,-0.92963 31.29351,-4.08605 z m -13.2309,-131.59256 c 9.02666,-8.32049 12.33896,-17.68742 8.72551,-24.67507 -3.83719,-7.4203 -7.00297,-9.09591 -17.55596,-9.29218 -8.73383,-0.16243 -10.40029,0.3623 -14.93859,4.70384 -6.6616,6.37279 -6.75241,13.14143 -0.29588,22.05441 4.91508,6.78507 12.76256,13.82149 15.41464,13.82149 0.81212,0 4.70474,-2.97562 8.65028,-6.61249 z"
     id="path1016"
     inkscape:connector-curvature="0"
     transform="scale(0.75)" />
  <path
     style="fill:#ffffff;stroke-width:1.66377819"
     d="M 87.889081,759.29555 V 638.61884 l 19.549389,0.46874 19.5494,0.46875 1.01203,70.71057 c 1.3949,97.46104 1.15936,91.5078 3.62058,91.5078 1.17532,0 3.55217,-2.43328 5.2819,-5.40728 1.72973,-2.97401 25.8342,-39.66031 53.56551,-81.52513 l 50.42055,-76.11785 h 19.99946 19.99945 l 0.2378,23.70884 c 0.82038,81.79127 2.42306,138.50953 3.91387,138.50953 0.91081,0 24.17081,-33.81575 51.68892,-75.1461 27.51809,-41.33035 52.07963,-77.82949 54.58117,-81.10918 l 4.54827,-5.96309 h 22.37634 c 12.30698,0 22.37633,0.40121 22.37633,0.89159 0,1.69632 -20.84547,33.65404 -89.22321,136.78605 l -68.66825,103.57019 h -20.88095 -20.88097 v -52.97518 c 0,-29.13634 -0.49229,-65.4576 -1.09398,-80.71391 -1.07531,-27.26505 -1.14881,-27.68912 -4.30445,-24.83331 -2.90981,2.63335 -28.50621,40.69722 -85.6219,127.32656 l -20.56776,31.19584 H 108.62883 87.889081 Z"
     id="path1018"
     inkscape:connector-curvature="0"
     transform="scale(0.75)" />
  <path
     style="fill:#ffffff;stroke-width:1.66377819"
     d="m 481.21151,880.40573 -8.47998,-0.58967 -1.10767,-24.37738 c -0.74961,-16.49734 -1.77317,-24.80004 -3.16646,-25.68497 -2.39927,-1.52386 -66.80542,-1.79667 -72.36636,-0.30652 -2.48191,0.66508 -9.4194,9.40728 -20.44681,25.76585 l -16.69037,24.75923 h -23.40537 c -18.04458,0 -23.22093,-0.47634 -22.60011,-2.07972 1.2298,-3.17617 149.03413,-225.80741 154.64094,-232.92895 l 4.91213,-6.23916 h 18.99364 18.99364 v 120.62391 120.62392 h -8.18281 c -4.50055,0 -9.17992,0.2302 -10.39861,0.51158 -1.2187,0.28136 -6.03179,0.2462 -10.6958,-0.0782 z m -10.65345,-126.8806 c 0,-19.21664 -0.61819,-34.93934 -1.37376,-34.93934 -0.75557,0 -2.93135,1.68457 -4.83508,3.7435 -4.31769,4.66969 -42.04073,62.71561 -42.04073,64.68973 0,0.795 10.85615,1.44545 24.12479,1.44545 h 24.12478 z"
     id="path1020"
     inkscape:connector-curvature="0"
     transform="scale(0.75)" />
  <path
     style="fill:#ffffff;stroke-width:1.66377819"
     d="m 584.22753,880.29825 -6.95445,-0.50592 -0.53256,-98.7674 c -0.2929,-54.32208 -1.0838,-99.31812 -1.75755,-99.99119 -0.67375,-0.67308 -10.7812,-1.58393 -22.461,-2.02412 -12.92989,-0.4873 -21.71411,-1.5266 -22.45836,-2.65715 -1.47321,-2.23786 -1.69177,-31.27408 -0.26342,-34.99629 0.8975,-2.33884 8.38368,-2.63174 67.26329,-2.63174 h 66.25341 l 1.14445,9.15991 c 0.62945,5.03795 0.63312,13.93474 0.008,19.77065 l -1.13633,10.61073 -22.34943,1.19703 -22.34942,1.19702 v 59.45615 c 0,32.70089 -0.49265,77.49289 -1.09478,99.5378 l -1.09477,40.08167 -12.6314,0.53437 c -6.94726,0.29392 -15.7609,0.30673 -19.58584,0.0285 z"
     id="path1022"
     inkscape:connector-curvature="0"
     transform="scale(0.75)" />
  <path
     style="fill:#ffffff;stroke-width:1.66377819"
     d="m 766.71057,884.01876 c -23.80755,-4.13786 -33.44194,-7.68434 -50.60377,-18.62751 -61.68534,-39.33338 -78.94285,-117.90571 -39.01005,-177.6102 11.91473,-17.81401 30.54019,-34.34213 48.85126,-43.35035 21.94555,-10.79621 32.56701,-13.1829 58.23223,-13.08507 19.64757,0.0749 22.92475,0.53886 35.77123,5.06432 20.60709,7.2593 37.17212,17.60859 51.57713,32.2237 12.2207,12.39894 22.8347,26.00824 21.40169,27.44126 -0.39696,0.39696 -10.59858,1.24317 -22.67029,1.88046 l -21.94853,1.15872 -7.58328,-6.99002 c -10.84381,-9.99548 -30.86527,-19.21611 -47.26497,-21.76728 -12.30279,-1.91385 -14.77572,-1.78645 -28.96447,1.49228 -55.09681,12.73172 -84.37494,68.83238 -62.76496,120.2657 14.08795,33.53034 43.68461,52.91816 80.78267,52.91816 22.5968,0 39.28557,-5.80321 57.03394,-19.8325 l 8.58741,-6.78795 h 22.50995 c 12.38047,0 22.50674,0.56152 22.50283,1.24783 -0.015,2.53751 -9.77641,15.85919 -17.6561,24.0945 -16.96243,17.72801 -39.64432,31.72815 -60.12903,37.11399 -9.52059,2.50315 -40.74538,4.52468 -48.65489,3.14996 z"
     id="path1024"
     inkscape:connector-curvature="0"
     transform="scale(0.75)" />
  <path
     style="fill:#ffffff;stroke-width:1.66377819"
     d="M 908.13172,759.29555 V 638.61884 l 19.54939,0.46874 19.54939,0.46875 0.89607,48.24956 c 0.49284,26.53726 1.05436,48.43674 1.24783,48.66551 0.19347,0.22877 16.02099,0.41595 35.17227,0.41595 29.43663,0 35.22473,-0.40425 37.43503,-2.61451 2.2445,-2.24451 2.6145,-8.8179 2.6145,-46.44971 0,-24.10936 0.4544,-45.01949 1.0099,-46.46695 0.838,-2.18377 4.1925,-2.63174 19.7074,-2.63174 h 18.6975 l 1.0898,22.72407 c 1.4079,29.35536 1.4186,189.17593 0.014,205.79439 l -1.076,12.72937 h -19.7212 -19.7212 v -48.96261 c 0,-42.55428 -0.3466,-49.30917 -2.6478,-51.61042 -2.2811,-2.28104 -7.405,-2.58557 -36.99193,-2.19856 l -34.34412,0.44923 -1.17909,6.65512 c -0.64851,3.66031 -1.22225,26.68284 -1.27498,51.16117 l -0.0959,44.50607 h -19.96534 -19.96533 z"
     id="path1026"
     inkscape:connector-curvature="0"
     transform="scale(0.75)" />
  <path
     style="fill:#ffffff;stroke-width:1.66377819"
     d="M 171.90988,958.33249 43.79896,957.33795 35.0382,952.48403 C 21.058803,944.73871 13.622228,937.34237 7.6816613,925.2755 L 2.2045061,914.14995 V 482.3644 50.578856 L 7.439417,40.569147 C 16.654972,22.948023 32.482685,11.08417 56.052412,4.1306935 64.108765,1.7539298 114.72333,1.4974003 575.61449,1.4974003 h 510.63611 l 12.1786,5.7792145 c 21.1586,10.0406452 34.9057,29.9249172 37.7707,54.6328022 0.7629,6.579284 1.42,200.556213 1.4601,431.059853 l 0.073,419.09751 -5.824,12.10867 c -6.9171,14.38123 -18.7392,25.69703 -32.061,30.68795 -8.6244,3.23107 -15.2874,3.29493 -404.29809,3.87442 -217.54107,0.32408 -453.17913,0.14168 -523.64013,-0.40533 z m 923.84932,-13.55112 c 13.5668,-6.14418 22.1833,-14.19873 27.313,-25.53162 l 3.8463,-8.49758 0.4546,-392.65165 c 0.2499,-215.95841 -0.1479,-408.7487 -0.8842,-428.422877 -1.2503,-33.411118 -1.6207,-36.379989 -5.614,-44.99793 -6.0223,-12.996372 -13.9537,-21.315973 -25.553,-26.803425 l -9.9978,-4.729815 -504.95668,0.07175 C 302.64125,13.257682 69.979604,13.919431 63.341544,14.688773 40.893429,17.290478 24.967146,28.416492 15.701737,47.969678 l -5.17834,10.928069 V 481.4974 c 0,480.23035 -1.5696813,431.71215 14.53709,449.33552 10.218824,11.18102 18.828913,15.85506 32.048698,17.39778 5.490468,0.64074 238.914185,1.2674 518.719375,1.39262 l 508.73674,0.22763 z"
     id="path1028"
     inkscape:connector-curvature="0"
     transform="scale(0.75)" />
  <path
     style="fill:#ffffff;stroke-width:0.41594455"
     d="m 1184.8752,955.17382 c -0.9763,-0.97632 -1.3782,-2.21655 -2.047,-6.31769 -0.7212,-4.42292 -0.9583,-5.05624 -1.8929,-5.05624 -1.1619,0 -1.6009,0.84726 -2.6647,5.14179 -0.5474,2.20964 -1.3005,4.48354 -1.6737,5.05312 -0.9026,1.37753 -2.6204,1.40209 -3.1364,0.0448 -1.0414,-2.73906 -2.4029,-20.77971 -1.9133,-25.35179 0.2805,-2.61913 0.3242,-2.69851 1.6188,-2.94137 1.8544,-0.3479 7.3415,0.40011 8.037,1.09563 0.3165,0.31645 0.9212,2.63219 1.3438,5.14608 1.0222,6.08028 2.7144,9.31603 4.872,9.31603 2.0352,0 2.8027,-1.82375 3.4664,-8.23671 0.4621,-4.46571 1.1447,-6.41613 2.4989,-7.1409 0.4402,-0.23556 2.0292,-0.42828 3.5313,-0.42828 h 2.7309 v 12.7903 c 0,14.91731 -0.3331,17.066 -2.45,15.93307 -0.829,-0.4437 -1.6803,-2.67204 -2.5512,-6.67831 -0.6076,-2.79492 -1.4149,-4.15944 -2.4608,-4.15944 -1.0161,0 -1.5484,1.7175 -1.8221,5.87875 -0.1148,1.74631 -0.5076,3.75289 -0.8728,4.45907 -1.0922,2.11209 -3.2671,2.79686 -4.6119,1.45205 z"
     id="path1030"
     inkscape:connector-curvature="0"
     transform="scale(0.75)" />
  <path
     style="fill:#ffffff;stroke-width:0.41594455"
     d="m 1154.7835,954.80313 c -1.5315,-1.94697 -2.1948,-6.40159 -3.1092,-20.88144 -0.076,-1.20078 -0.2363,-2.28157 -0.3565,-2.40177 -0.1201,-0.12019 -1.6022,-0.60004 -3.2933,-1.06633 -3.6487,-1.006 -4.9466,-1.76573 -4.9466,-2.89542 0,-1.50211 1.7604,-1.79202 11.0225,-1.81523 9.5833,-0.024 12.5946,0.28022 12.9907,1.31246 0.3678,0.95852 -1.9099,2.71692 -4.63,3.57437 -2.8949,0.91253 -3.0746,1.41547 -3.5915,10.05054 -0.5416,9.04954 -1.1519,13.57034 -1.9513,14.45367 -0.8738,0.96554 -1.1486,0.92296 -2.1348,-0.33085 z"
     id="path1032"
     inkscape:connector-curvature="0"
     transform="scale(0.75)" />
</svg>
